<?xml version="1.0" encoding="UTF-8" standalone="no"?><!DOCTYPE svg PUBLIC "-//W3C//DTD SVG 1.1//EN" "http://www.w3.org/Graphics/SVG/1.1/DTD/svg11.dtd"><svg width="100%" height="100%" viewBox="0 0 1155 819" version="1.1" xmlns="http://www.w3.org/2000/svg" xmlns:xlink="http://www.w3.org/1999/xlink" xml:space="preserve" xmlns:serif="http://www.serif.com/" style="fill-rule:evenodd;clip-rule:evenodd;stroke-linejoin:round;stroke-miterlimit:2;"><g id="Layer-1" serif:id="Layer 1"><rect x="46.379" y="230.054" width="1062.12" height="354.039" style="fill:#464647;"/><path d="M208.352,383.884c-12.214,6.55 -20.888,8.674 -33.988,8.674c-33.28,0 -50.627,-21.596 -50.627,-44.078c-0,-23.189 18.764,-44.786 52.043,-44.786c12.215,0 23.19,2.125 31.156,7.258l-0,19.472c-9.382,-5.133 -18.764,-8.674 -29.563,-8.674c-18.056,0 -31.155,10.799 -31.155,26.022c0,15.224 12.922,26.73 31.155,26.73c11.507,0 18.765,-3.54 31.156,-9.382l-0.177,18.764m83.199,7.258l-64.258,-0l-0,-86.74l62.842,0l-0,15.932l-41.246,0l0,18.056l39.653,0l-0,15.932l-39.653,-0l0,20.888l42.662,0l-0,15.932Zm107.628,-0l-18.056,-0l-47.618,-55.584l-0,55.584l-21.774,-0l0,-86.74l19.472,0l46.202,53.46l0,-53.46l21.597,0l0.177,86.74Zm98.246,-70.808l-31.156,0l0,70.808l-21.596,-0l-0,-70.808l-30.979,0l0,-15.932l83.731,0l-0,15.932Zm77.357,70.808l-62.134,-0l0,-86.74l62.134,0l0,15.932l-41.245,0l-0,18.056l39.652,0l-0,15.932l-39.652,-0l-0,20.888l41.245,0l0,15.932Zm109.044,-0l-18.056,-0l-47.618,-55.584l-0,55.584l-20.888,-0l-0,-86.74l19.472,0l46.202,53.46l-0,-53.46l20.888,0l0,86.74Zm111.345,-0l-18.056,-0l-47.795,-55.761l0,55.584l-21.596,-0l-0,-86.74l19.472,0l46.202,53.46l-0,-53.46l21.596,0l0,86.917l0.177,-0Zm23.013,-86.74l21.596,0l0,86.032l-21.596,-0l-0,-86.032Zm85.323,20.889l-12.922,33.279l26.73,0c-0.177,0 -13.808,-33.279 -13.808,-33.279Zm50.628,65.851l-23.19,-0l-7.258,-17.348l-38.236,0l-6.55,17.348l-23.189,-0l34.696,-86.031l24.605,-0l39.122,86.031Zm80.898,-0l-65.675,-0l0,-86.74l21.597,0l-0,70.808l44.078,0l-0,15.932Z" style="fill:#fff;fill-rule:nonzero;"/><path d="M556.018,439.468c-10.798,-6.549 -19.472,-8.674 -29.562,-8.674c-19.472,0 -34.696,13.808 -34.696,33.28c-0,19.472 14.516,32.572 34.696,32.572c9.382,-0 20.18,-3.541 30.27,-10.091l0,13.808c-8.674,4.248 -17.348,7.966 -31.155,7.966c-32.572,-0 -46.202,-25.314 -46.202,-43.37c-0,-26.022 19.472,-45.494 46.91,-45.494c8.674,0 18.056,2.124 29.562,7.258l0.177,12.745m61.426,57.178c19.472,-0 33.987,-13.808 33.987,-33.28c0,-18.764 -14.515,-33.28 -33.987,-33.28c-19.472,0 -33.28,13.808 -33.28,33.28c-0.708,18.764 13.631,33.28 33.28,33.28m-0,-77.358c28.146,0 46.202,20.18 46.202,44.078c-0,23.189 -17.348,44.078 -46.91,44.078c-28.146,-0 -46.202,-20.889 -46.202,-44.078c0.531,-23.898 18.587,-44.078 46.91,-44.078m76.295,76.472l39.121,0l0,10.799l-51.335,-0l-0,-86.032l12.214,0l0,75.233Zm70.808,0l39.121,0l0,10.799l-51.335,-0l-0,-86.032l12.214,0l-0,75.233Zm106.389,-64.258l-38.237,0l0,26.022l35.404,0l0,11.507l-35.404,-0l0,26.729l38.237,0l-0,10.799l-50.628,-0l0,-86.032l50.628,0l-0,10.975Zm93.289,69.392c-11.506,5.134 -20.888,7.258 -33.28,7.258c-26.73,-0 -46.202,-18.764 -46.202,-44.078c0,-25.314 20.18,-44.786 46.202,-44.786c10.09,0 17.348,1.416 31.156,7.258l-0,12.214c-10.091,-5.841 -20.889,-8.674 -31.156,-8.674c-18.764,0 -33.279,14.516 -33.279,33.28c-0,19.472 14.515,32.571 34.695,32.571c6.55,0 12.923,-1.416 18.764,-3.54l0,-17.525l-16.639,0l-0,-10.798l28.854,0l-0,36.82m71.693,-69.392l-36.82,0l-0,26.022l35.403,0l0,11.507l-35.403,-0l-0,26.729l36.82,0l-0,10.799l-49.212,-0l0,-86.032l49.212,0l-0,10.975Z" style="fill:#d6e037;fill-rule:nonzero;"/></g></svg>