<?xml version="1.0" encoding="UTF-8" standalone="no"?><!DOCTYPE svg PUBLIC "-//W3C//DTD SVG 1.1//EN" "http://www.w3.org/Graphics/SVG/1.1/DTD/svg11.dtd"><svg width="100%" height="100%" viewBox="0 0 1616 679" version="1.1" xmlns="http://www.w3.org/2000/svg" xmlns:xlink="http://www.w3.org/1999/xlink" xml:space="preserve" xmlns:serif="http://www.serif.com/" style="fill-rule:evenodd;clip-rule:evenodd;stroke-miterlimit:10;"><g id="Layer-1" serif:id="Layer 1"><path d="M992.316,106.93l-123.129,-0c-24.033,-0 -36.05,12.241 -36.05,36.72l-0.312,360.234l35.604,-0l23.475,-0.004c-0,-18.409 -0.375,-49.125 -0.375,-49.125l-0,-296.567l78.45,-0l-0,296.567c-0,-0 0.05,46.62 0.096,49.162l22.241,-0.033l36.067,-0l-0.267,-360.234c0,-24.479 -11.933,-36.72 -35.8,-36.72Z" style="fill:#98ca40;fill-rule:nonzero;stroke:#99ca3c;stroke-width:12.5px;"/><path d="M798.766,469.544c-0,24.337 -12.1,34.375 -36.304,34.375l-124.905,-0c-23.529,-0 -35.291,-10.038 -35.291,-34.375l-0,-326.238c-0,-24.508 12.016,-36.758 36.05,-36.758l124.146,-0c24.204,-0 36.304,12.25 36.304,36.758l-0,85.263l-59.658,-0l-0,-70.713l-77.434,0l0,292.646l77.434,0l-0.005,-107.875l-44.179,0l0.117,-48.854l103.833,-0l-0.108,175.771Z" style="fill:#353795;fill-rule:nonzero;stroke:#353795;stroke-width:12.5px;"/><path d="M1222.72,160.824l-102.821,-0l-0,132.95l87.842,-0l-0,49.641l-87.842,0l-0,161.592l-59.408,0l-0,-396.971l162.229,0l-0,52.788Z" style="fill:#98ca40;fill-rule:nonzero;stroke:#99ca3c;stroke-width:12.5px;"/><path d="M1420.2,503.198l-164.766,0l-0,-396.871l163.241,0l0.025,53.209l-103.837,-0l-0.021,134.2l89.362,-0l-0.045,49.716c-30.175,0 -78.475,0.113 -89.321,0l0.004,107.25l105.358,0l0,52.496Z" style="fill:#353795;fill-rule:nonzero;stroke:#353795;stroke-width:12.5px;"/><path d="M651.183,430.998c0.804,2.15 2.029,6.404 2.029,11.4c0.004,5.621 -1.404,10.258 -4.858,13.867c-3.05,3.2 -7.938,5.175 -13.671,5.17c-10.988,-0.012 -19.029,-7.612 -19.038,-20.037c0,-4.288 0.93,-7.683 1.684,-9.275l3.883,1.196c-0.896,1.971 -1.575,4.446 -1.575,8.187c0.008,9 5.571,14.896 14.792,14.888c9.337,-0.004 14.858,-5.65 14.854,-14.325c-0.004,-3.134 -0.442,-5.254 -0.996,-6.363l-10.971,0.009l0.004,7.504l-3.804,0.004l-0.008,-12.213l17.675,-0.012Z" style="fill:#fff;fill-rule:nonzero;"/><path d="M616.002,423.751l-0.004,-4.813l32.817,-0.021l-0.009,-15.858l4.017,0l0.012,20.667l-36.833,0.025Z" style="fill:#fff;fill-rule:nonzero;"/><path d="M634.614,397.014c7.883,-0.004 14.933,-4.317 14.929,-11.875c-0.004,-7.604 -6.946,-11.875 -15.317,-11.867c-7.333,0.004 -14.983,3.858 -14.979,11.829c0.004,7.959 7.313,11.917 15.367,11.913m-0.6,-28.809c12.641,-0.008 19.391,7.738 19.4,17.192c0.004,9.833 -7.559,16.675 -18.688,16.683c-11.666,0.005 -19.341,-7.262 -19.346,-17.162c-0.008,-10.129 7.692,-16.708 18.634,-16.713" style="fill:#fff;fill-rule:nonzero;"/><path d="M649.173,357.239c0.195,-0.975 0.241,-2.304 0.241,-4.033c-0.004,-4.975 -1.816,-9.546 -7.175,-9.542c-5.004,0.004 -7.104,4.371 -7.108,9.6l-0,3.983l14.042,-0.008Zm-17.617,0.013l-0.004,-4.392c-0,-5.013 -2.654,-7.979 -6.23,-7.975c-4.266,-0 -5.991,3.258 -5.987,8.104c0,2.229 0.163,3.488 0.346,4.271l11.875,-0.008Zm-15.088,4.791c-0.458,-2.112 -0.791,-5.421 -0.796,-8.741c-0.004,-4.813 0.8,-7.884 2.667,-10.188c1.442,-1.917 3.638,-3.1 6.521,-3.1c3.558,-0.004 6.692,2.379 8.071,6.267l0.146,-0c0.841,-3.534 3.725,-7.663 9.233,-7.667c3.142,0 5.579,1.258 7.338,3.171c2.387,2.55 3.462,6.725 3.466,12.8c0,3.321 -0.225,5.829 -0.404,7.437l-36.242,0.021Z" style="fill:#fff;fill-rule:nonzero;"/><path d="M637.47,314.05l-10.596,3.68c-2.408,0.804 -4.6,1.362 -6.716,1.912l-0,0.129c2.15,0.529 4.4,1.113 6.654,1.834l10.666,3.65l-0.008,-11.205Zm3.729,12.175l11.579,3.825l0,4.967l-36.837,-12.587l-0.004,-5.763l36.825,-12.687l0.004,5.125l-11.575,3.979l0.008,13.141Z" style="fill:#fff;fill-rule:nonzero;"/><path d="M615.925,298.576l-0,-4.812l32.816,-0.021l-0.012,-15.858l4.016,-0l0.013,20.666l-36.833,0.025Z" style="fill:#fff;fill-rule:nonzero;"/><path d="M869.575,440.935l-10.6,3.675c-2.409,0.808 -4.605,1.366 -6.717,1.916l-0,0.125c2.154,0.534 4.4,1.113 6.654,1.834l10.667,3.65l-0.004,-11.2Zm3.725,12.175l11.579,3.825l-0,4.962l-36.838,-12.587l-0.004,-5.759l36.825,-12.687l0,5.121l-11.571,3.979l0.009,13.146Z" style="fill:#fff;fill-rule:nonzero;"/><path d="M883.662,400.342c0.866,1.729 1.758,5.279 1.762,9.8c0.004,10.442 -6.554,18.279 -18.646,18.288c-11.558,0.008 -19.325,-7.834 -19.333,-19.342c-0.004,-4.583 0.958,-7.542 1.613,-8.804l3.87,1.183c-0.846,1.796 -1.512,4.371 -1.508,7.458c0.004,8.705 5.533,14.459 15.204,14.45c9.013,-0.004 14.763,-5.237 14.759,-14.216c-0,-2.946 -0.588,-5.913 -1.513,-7.854l3.792,-0.963Z" style="fill:#fff;fill-rule:nonzero;"/><path d="M869.534,375.965l-10.596,3.679c-2.412,0.804 -4.604,1.362 -6.72,1.912l-0,0.129c2.15,0.53 4.404,1.109 6.654,1.834l10.666,3.646l-0.004,-11.2Zm3.725,12.175l11.579,3.825l0.005,4.966l-36.842,-12.587l-0.004,-5.763l36.825,-12.687l0.004,5.125l-11.575,3.975l0.008,13.146Z" style="fill:#fff;fill-rule:nonzero;"/><path d="M881.07,355.66c0.195,-1.216 0.225,-2.991 0.225,-4.816c0.016,-10.267 -5.671,-15.792 -15.625,-15.784c-8.7,-0.054 -14.188,4.9 -14.18,15.005c0,2.479 0.23,4.333 0.488,5.612l29.092,-0.017Zm-32.575,4.83c-0.484,-2.938 -0.8,-6.417 -0.8,-10.192c-0.005,-6.863 1.608,-11.779 4.616,-15.025c2.979,-3.317 7.246,-5.254 13.175,-5.258c6.038,-0.005 10.925,1.891 14.329,5.325c3.43,3.5 5.317,9.233 5.321,16.416c0.004,3.434 -0.129,6.271 -0.404,8.709l-36.237,0.025Z" style="fill:#fff;fill-rule:nonzero;"/><path d="M867.516,304.651l0.012,14.379l13.3,-0.008l-0.008,-16.079l3.967,-0.004l0.008,20.896l-36.829,0.02l-0.013,-20.045l3.963,-0.005l0.008,15.234l11.667,-0.009l-0.008,-14.375l3.933,-0.004Z" style="fill:#fff;fill-rule:nonzero;"/><path d="M868.586,265.503c-5.117,0.288 -11.333,0.629 -15.888,0.604l0,0.15c4.28,1.271 8.921,2.805 13.967,4.655l17.871,6.537l0.004,3.617l-17.533,6.05c-5.204,1.771 -9.929,3.216 -14.292,4.258l0,0.129c4.592,0.13 10.725,0.363 16.254,0.717l15.809,0.975l0.004,4.554l-36.834,-2.558l-0.004,-6.121l17.821,-6.325c4.508,-1.529 8.567,-2.775 12.408,-3.742l0,-0.146c-3.733,-0.97 -7.791,-2.266 -12.408,-3.912l-17.833,-6.604l-0.004,-6.125l36.829,-2.325l0.004,4.708l-16.175,0.904Z" style="fill:#fff;fill-rule:nonzero;"/><path d="M884.748,244.377l-15.613,0.008l-21.212,11.771l-0.004,-5.484l10.175,-5.212c2.783,-1.413 5.021,-2.554 7.596,-3.692l-0,-0.108c-2.421,-1.021 -4.834,-2.288 -7.634,-3.717l-10.146,-5.341l-0.004,-5.43l21.15,12.4l15.688,-0.012l0.004,4.817Z" style="fill:#fff;fill-rule:nonzero;"/><path d="M1072.07,459.005l-0.013,-19.975l3.959,0l0.012,15.158l12.263,-0.008l-0.008,-14.008l3.937,-0.005l0.008,14.009l16.667,-0.009l0.004,4.813l-36.829,0.025Z" style="fill:#fff;fill-rule:nonzero;"/><path d="M1072.05,427.442l21.825,-0.013c8.216,-0.004 11.704,-3.679 11.7,-8.679c-0.005,-5.458 -3.613,-9.017 -11.709,-9.013l-21.829,0.017l-0.004,-4.812l21.487,-0.017c11.325,-0.008 15.95,5.979 15.955,14.021c0.004,7.571 -4.284,13.287 -15.73,13.296l-21.691,0.016l-0.004,-4.816Z" style="fill:#fff;fill-rule:nonzero;"/><path d="M1089.29,391.83l-0.004,-4.892c-0.004,-5.125 -2.779,-8.371 -7,-8.371c-4.783,0.004 -6.858,3.479 -6.862,8.529c0.004,2.325 0.212,3.934 0.42,4.746l13.446,-0.012Zm-16.758,4.795c-0.492,-2.429 -0.8,-5.916 -0.804,-9.208c-0.004,-5.083 0.958,-8.433 3.029,-10.75c1.604,-1.829 4.117,-2.908 6.996,-2.912c4.841,-0 8.058,3.108 9.387,6.987l0.138,0c0.983,-2.829 3.637,-4.542 7.454,-5.446c5.146,-1.225 8.667,-2.104 10.104,-2.854l0.004,4.963c-1.062,0.587 -4.204,1.425 -8.816,2.445c-5.042,1.105 -7,3.109 -7.138,7.446l0,4.534l15.963,-0.013l0.004,4.788l-36.321,0.02Z" style="fill:#fff;fill-rule:nonzero;"/><path d="M1076.02,359.436l0.004,11.296l-4.02,0.004l-0.017,-27.462l4.021,-0.004l0.008,11.354l32.808,-0.021l0.005,4.812l-32.809,0.021Z" style="fill:#fff;fill-rule:nonzero;"/><path d="M1071.99,334.387l15.424,-0.012l-0.012,-17.925l-15.425,0.008l-0.004,-4.812l36.833,-0.025l0.004,4.816l-17.283,0.009l0.012,17.929l17.28,-0.013l0.004,4.813l-36.829,0.025l-0.005,-4.813Z" style="fill:#fff;fill-rule:nonzero;"/><path d="M1091.52,284.111l0.008,14.379l13.304,-0.008l-0.008,-16.08l3.967,-0.004l0.008,20.896l-36.829,0.021l-0.013,-20.046l3.963,0l0.008,15.229l11.667,-0.008l-0.009,-14.375l3.934,-0.004Z" style="fill:#fff;fill-rule:nonzero;"/><path d="M1089.22,271.472l-0.004,-4.891c-0.004,-5.125 -2.779,-8.371 -7,-8.371c-4.784,0.004 -6.854,3.479 -6.863,8.529c0.005,2.325 0.213,3.933 0.417,4.746l13.45,-0.013Zm-16.763,4.796c-0.487,-2.429 -0.795,-5.916 -0.8,-9.208c0,-5.083 0.959,-8.433 3.03,-10.75c1.604,-1.829 4.116,-2.908 6.995,-2.913c4.842,0 8.059,3.109 9.388,6.988l0.138,0c0.983,-2.829 3.637,-4.542 7.458,-5.446c5.142,-1.225 8.662,-2.104 10.1,-2.854l0.004,4.963c-1.062,0.587 -4.2,1.424 -8.817,2.445c-5.045,1.104 -7,3.109 -7.141,7.446l0.004,4.533l15.962,-0.012l0.005,4.787l-36.325,0.021Z" style="fill:#fff;fill-rule:nonzero;"/><path d="M1286.25,439.677l0.009,14.379l13.304,-0.008l-0.013,-16.079l3.967,-0.004l0.008,20.895l-36.825,0.021l-0.012,-20.046l3.958,-0.004l0.013,15.234l11.666,-0.009l-0.008,-14.375l3.933,-0.004Z" style="fill:#fff;fill-rule:nonzero;"/><path d="M1299.76,427.006c0.192,-1.216 0.221,-2.991 0.221,-4.816c0.016,-10.267 -5.667,-15.788 -15.621,-15.784c-8.7,-0.054 -14.192,4.9 -14.183,15.004c-0,2.48 0.229,4.334 0.491,5.613l29.092,-0.017Zm-32.579,4.829c-0.484,-2.937 -0.8,-6.416 -0.8,-10.191c-0.004,-6.863 1.608,-11.779 4.621,-15.025c2.979,-3.317 7.241,-5.254 13.17,-5.259c6.038,-0.004 10.93,1.892 14.334,5.325c3.429,3.5 5.316,9.234 5.321,16.417c-0,3.433 -0.134,6.271 -0.409,8.708l-36.237,0.025Z" style="fill:#fff;fill-rule:nonzero;"/><path d="M1266.65,390.41l21.825,-0.017c8.217,-0.004 11.704,-3.679 11.7,-8.679c-0.004,-5.454 -3.616,-9.013 -11.708,-9.009l-21.829,0.013l-0.004,-4.813l21.487,-0.012c11.325,-0.008 15.946,5.979 15.95,14.021c0.008,7.566 -4.279,13.287 -15.725,13.296l-21.696,0.012l0,-4.812Z" style="fill:#fff;fill-rule:nonzero;"/><path d="M1302.27,333.651c0.867,1.733 1.763,5.283 1.763,9.804c0.008,10.442 -6.555,18.279 -18.646,18.287c-11.559,0.009 -19.325,-7.833 -19.33,-19.341c-0.004,-4.584 0.955,-7.542 1.609,-8.804l3.875,1.179c-0.85,1.8 -1.513,4.375 -1.508,7.462c0.004,8.704 5.529,14.459 15.2,14.45c9.012,-0.004 14.766,-5.237 14.762,-14.216c-0.004,-2.946 -0.592,-5.913 -1.517,-7.859l3.792,-0.962Z" style="fill:#fff;fill-rule:nonzero;"/><path d="M1288.14,309.278l-10.596,3.679c-2.413,0.804 -4.604,1.362 -6.717,1.912l0,0.129c2.15,0.53 4.4,1.109 6.65,1.834l10.671,3.646l-0.008,-11.2Zm3.729,12.174l11.579,3.826l-0,4.962l-36.838,-12.587l-0.004,-5.759l36.825,-12.687l0,5.12l-11.571,3.98l0.009,13.145Z" style="fill:#fff;fill-rule:nonzero;"/><path d="M1270.61,290.955l0.009,11.3l-4.017,0l-0.021,-27.458l4.021,-0.005l0.008,11.351l32.813,-0.021l-0,4.812l-32.813,0.021Z" style="fill:#fff;fill-rule:nonzero;"/><path d="M1303.41,270.697l-36.83,0.025l-0.003,-4.816l36.83,-0.025l0.003,4.816Z" style="fill:#fff;"/><path d="M1285.2,254.643c7.883,-0.004 14.933,-4.321 14.929,-11.875c-0.004,-7.608 -6.946,-11.875 -15.317,-11.867c-7.333,0.004 -14.979,3.859 -14.979,11.829c0.004,7.959 7.308,11.917 15.367,11.913m-0.6,-28.808c12.641,-0.009 19.391,7.737 19.4,17.191c0.004,9.834 -7.554,16.675 -18.688,16.679c-11.666,0.009 -19.341,-7.258 -19.346,-17.158c-0.008,-10.129 7.692,-16.708 18.634,-16.712" style="fill:#fff;fill-rule:nonzero;"/><path d="M1303.38,219.65l-36.829,0.025l-0.004,-5.267l18.608,-11.888c4.317,-2.716 8.187,-4.87 11.992,-6.625l-0.063,-0.12c-4.912,0.437 -9.408,0.525 -15.112,0.525l-15.434,0.012l-0.004,-4.508l36.829,-0.021l0.004,4.862l-18.658,11.8c-4.129,2.555 -8.325,5.05 -12.329,6.905l0.054,0.162c4.667,-0.287 9.108,-0.354 15.196,-0.358l15.75,-0.013l-0,4.509Z" style="fill:#fff;fill-rule:nonzero;"/><path d="M483.292,212.117c-0,-0 9.287,8.512 16.258,10.058c6.963,1.546 4.642,20.129 5.413,30.187c0.779,10.063 -5.413,-2.325 -9.284,-9.287c-3.871,-6.967 -6.196,-6.196 -6.196,-6.196c0,0 -4.641,-12.383 -7.741,-17.029c-3.092,-4.642 -8.513,2.325 -8.513,2.325c0,-0 3.096,13.933 0,20.9c-3.096,6.962 7.738,2.321 13.934,0.771c6.191,-1.542 4.645,8.516 4.645,8.516c0,0 -7.741,1.546 -8.516,6.196c-0.771,4.642 7.737,8.509 11.612,10.834c3.867,2.32 -9.291,8.512 -17.808,12.383c-8.513,3.875 -1.542,22.446 8.517,24c10.066,1.546 15.479,10.058 6.195,10.833c-9.287,0.775 -4.645,10.838 -3.875,17.029c0.78,6.196 -16.25,8.513 -12.379,13.159c3.867,4.641 -3.871,6.191 -11.617,13.937c-7.737,7.734 -1.541,30.959 3.875,34.055c5.417,3.095 10.838,6.191 10.059,10.833c-0.775,4.646 0.779,7.741 7.742,13.162c6.966,5.417 7.741,2.325 10.066,-1.55c2.317,-3.871 9.284,-4.641 19.346,3.875c10.067,8.513 0,17.029 -3.092,24.767c-3.095,7.737 -4.65,30.187 -4.65,30.187l-5.412,24.771c-0,0 9.283,-11.612 16.25,-22.454c6.971,-10.833 30.962,-81.271 34.058,-107.587c3.1,-26.317 -8.512,-71.213 -20.125,-108.367c-11.608,-37.15 -36.375,-59.604 -36.375,-59.604l-3.1,-0c0,-0 -10.058,-1.542 -12.383,-1.542c-2.325,0 3.096,10.838 3.096,10.838Z" style="fill:url(#_Linear1);fill-rule:nonzero;"/><path d="M229.533,134.454c-16.383,1.025 -22.57,-13.421 -22.57,-13.421l-19.355,2.325l-22.575,23.996c0,0 -3.741,21.413 -6.454,19.35c-8.125,-9.546 -25.8,0 -25.8,0l-23.862,10.579l-17.029,17.93l-18.451,26.316c-2.704,9.642 1.667,19.15 -13.804,29.029c0,0 28.638,-6.712 30.704,-22.575c2.063,-15.866 14.963,-8.133 28.638,14.705c13.679,22.837 0.904,23.995 0.904,23.995l9.675,48.375l41.929,38.704l35.479,32.25l48.376,29.025c-0,0 14.833,3.746 15.354,16.517c0.516,12.771 -18.838,11.996 -11.23,32.379c1.68,17.546 8.775,5.934 8.775,5.934l1.292,11.995c0,0 4.259,8.134 16.125,9.676c11.867,1.554 8.384,39.608 8.384,39.608l-6.45,32.254l-6.45,22.575l16.125,9.675c-0,0 10.837,6.062 17.545,-6.063c-25.025,1.809 3.225,-12.775 3.225,-12.775l11.484,-19.862l14.704,-10.967c-0,0 21.933,-7.741 24.383,-17.546c2.45,-9.804 22.192,-19.87 22.192,-19.87l11.091,-12.896l9.675,-25.804c0,-0 12.134,-6.192 -1.416,-19.35c-10.454,0.775 -25.8,-9.68 -25.8,-9.68l-29.029,-16.125c-0,0 5.158,-6.45 -19.35,-19.345c-24.513,-12.905 -45.15,9.67 -45.15,9.67c-0,0 -17.025,-9.566 -24.542,-13.3c-4.804,-6.883 -34.933,-37.525 -34.933,-37.525l-18.963,-4c0,0 -1.292,-19.087 17.154,-28.641c18.45,-9.546 24.513,2.325 24.513,2.325c-0,-0 5.029,14.45 13.804,29.541c8.771,15.096 44.379,23.609 35.608,16.255c-15.775,-7.75 -30.554,-11.725 -31.996,-38.834l0,-22.575l6.45,-19.346l16.125,-9.679l12.905,-6.45l22.575,-9.675l3.225,-12.9l-9.675,-12.9c-0,0 49.537,22.575 33.67,6.063c-15.87,-16.517 -7.87,-25.413 -7.87,-25.413l-16.125,-6.454c-0,0 5.029,-1.158 -0,-16.125c-5.034,-14.967 -29.03,-12.896 -29.03,-12.896c0,0 4.388,-4.65 6.45,-16.129c2.067,-11.483 15.738,-15.612 15.738,-15.612c0,-0 -12.642,-27.605 -38.313,-29.155c-25.67,-1.545 -38.7,-19.354 -38.7,-19.354c0,0 -2.97,21.159 -19.354,22.196Z" style="fill:url(#_Linear2);fill-rule:nonzero;"/><path d="M273.721,101.762c-12.929,2.496 43.287,12.138 53.471,16.567c0.996,8.246 15.225,22.575 15.225,22.575c-0,0 -4.909,14.688 -0,19.35c4.779,4.542 16.425,6.325 9.675,12.9c-3.217,1.375 -0.388,17.675 12.9,12.383c6.162,-1.962 19.354,19.867 19.354,19.867c-0,0 8.379,-9.546 -0,-22.575c11.479,-0.904 -3.1,-1.55 12.9,-6.45c7.771,-2.383 11.037,-3.212 12.337,-3.433c-1.12,-0.679 -3.445,-2.863 -3.716,-5.038c-0.425,-3.446 4.262,-6.883 26.854,-4.429c-11.738,-8.646 -14.838,-28.642 -14.838,-28.642l-15.604,-10.575c0,0 -31.996,-13.195 -56.25,-18.45c-21.262,-3.937 -39.329,-5.512 -53.012,-5.512c-8.013,-0 -14.525,0.542 -19.296,1.462Zm135.862,71.184c0.275,0.162 0.475,0.241 0.563,0.208c-0,0 0.508,-0.279 0.046,-0.279c-0.125,-0 -0.317,0.021 -0.609,0.071Z" style="fill:url(#_Linear3);fill-rule:nonzero;"/><path d="M432.979,185.021c0.771,3.483 6.192,7.741 8.9,10.066c2.713,2.321 9.292,-0.391 9.292,-1.941c-0,-1.542 6.192,-3.484 6.192,-5.8c-0,-2.325 -7.742,-4.259 -10.455,-8.9c-2.704,-4.646 -4.641,-0.779 -7.737,0.771c-3.096,1.55 -5.421,-3.484 -5.421,-3.484l-9.283,-1.158c-0,-0 7.741,6.962 8.512,10.446Z" style="fill:url(#_Linear4);fill-rule:nonzero;"/><path d="M419.383,564.649c0.967,-2.754 0.454,-4.129 -1.537,-4.129c-0.471,-0 -1.384,0.162 -2.733,0.483c-8.413,3.512 -12.621,9.096 -12.621,16.75c-0,5.846 3.504,8.904 10.512,9.171c6.8,-0.267 10.246,-3.429 10.338,-9.488c-5.563,0.342 -8.584,0.6 -9.071,0.771c-0.484,0.171 -1,-0.133 -1.554,-0.912c-0.3,-0.721 -0.271,-1.38 0.087,-1.98c0.363,-0.595 1.879,-1.041 4.558,-1.337c2.675,-0.296 5.184,-0.479 7.517,-0.558c1.238,-0 2.183,0.4 2.838,1.2c0.654,0.795 0.979,2.079 0.979,3.841c-0,3.896 -1.346,6.988 -4.042,9.288c-2.696,2.3 -6.937,3.446 -12.733,3.446c-10.367,-0 -15.55,-4.55 -15.55,-13.642c-0,-6.021 2.516,-11.358 7.546,-16.008c4.52,-4.084 8.937,-6.125 13.245,-6.125c5.034,-0 7.546,1.675 7.546,5.012c0,2.375 -1.771,3.783 -5.325,4.217Z" style="fill:#fdd411;fill-rule:nonzero;stroke:#fecd03;stroke-width:1.04px;"/><path d="M439.163,553.797c0.796,0.037 1.129,0.579 0.996,1.625c-2.034,14.295 -3.075,24.008 -3.134,29.137c1.784,0 5.955,-0.608 12.505,-1.825c0.287,0 0.429,0.342 0.429,1.025c-0,2.942 -2.904,5.242 -8.717,6.896c-0.95,0.15 -2.375,0.225 -4.271,0.225c-4.216,0 -6.346,-2.512 -6.383,-7.546c-0,-8.375 2.308,-17.879 6.925,-28.512c0.321,-0.684 0.871,-1.025 1.65,-1.025" style="fill:#fdd411;fill-rule:nonzero;"/><path d="M439.163,553.797c0.796,0.037 1.129,0.579 0.996,1.625c-2.034,14.295 -3.075,24.008 -3.134,29.137c1.784,0 5.955,-0.608 12.505,-1.825c0.287,0 0.429,0.342 0.429,1.025c-0,2.942 -2.904,5.242 -8.717,6.896c-0.95,0.15 -2.375,0.225 -4.271,0.225c-4.216,0 -6.346,-2.512 -6.383,-7.546c-0,-8.375 2.308,-17.879 6.925,-28.512c0.321,-0.684 0.871,-1.025 1.65,-1.025Z" style="fill:none;fill-rule:nonzero;stroke:#fecd03;stroke-width:1.04px;"/><path d="M465.905,564.193c-0.75,1.404 -1.371,2.108 -1.863,2.108c-0.458,0 -0.783,-0.8 -0.971,-2.391c-2.716,1.27 -4.071,4.537 -4.071,9.795c0.284,8.546 3.834,12.817 10.65,12.817c6.305,0 9.638,-4.187 10,-12.558c0,-6.646 -2.291,-10.817 -6.866,-12.504c-1.25,-0.492 -2.525,-0.513 -3.817,-0.059c-1.292,0.454 -2.308,1.388 -3.062,2.792m5.6,-10.054c6.112,-0 10.495,4.3 13.158,12.904c0.417,1.729 0.625,3.692 0.625,5.896c-0,8.883 -3.8,14.675 -11.392,17.375c-2.321,0.604 -4.729,0.729 -7.233,0.366c-9.725,-1.045 -14.583,-6.37 -14.583,-15.979c-0,-7.366 3.545,-12.466 10.65,-15.291c1.783,-3.513 4.708,-5.271 8.775,-5.271" style="fill:#fdd411;fill-rule:nonzero;"/><path d="M465.905,564.193c-0.75,1.404 -1.371,2.108 -1.863,2.108c-0.458,0 -0.783,-0.8 -0.971,-2.391c-2.716,1.27 -4.071,4.537 -4.071,9.795c0.284,8.546 3.834,12.817 10.65,12.817c6.305,0 9.638,-4.187 10,-12.558c0,-6.646 -2.291,-10.817 -6.866,-12.504c-1.25,-0.492 -2.525,-0.513 -3.817,-0.059c-1.292,0.454 -2.308,1.388 -3.062,2.792Zm5.6,-10.054c6.112,-0 10.495,4.3 13.158,12.904c0.417,1.729 0.625,3.692 0.625,5.896c-0,8.883 -3.8,14.675 -11.392,17.375c-2.321,0.604 -4.729,0.729 -7.233,0.366c-9.725,-1.045 -14.583,-6.37 -14.583,-15.979c-0,-7.366 3.545,-12.466 10.65,-15.291c1.783,-3.513 4.708,-5.271 8.775,-5.271Z" style="fill:none;fill-rule:nonzero;stroke:#fecd03;stroke-width:1.04px;"/><path d="M498.457,561.686l-0.542,2.309c-0.683,2.941 -1.083,4.991 -1.196,6.15c8.088,-0.534 12.134,-2.342 12.134,-5.438c-0,-2.358 -1.288,-3.592 -3.875,-3.704c-2.563,-0 -4.734,0.229 -6.521,0.683m-2.221,13.3l-0.483,9.659c1.633,0.587 3.287,0.904 4.954,0.937c7.104,0 10.654,-1.954 10.654,-5.867c-0,-3.566 -2.867,-5.354 -8.604,-5.354c-3.075,0 -5.25,0.209 -6.521,0.625m-6.096,12.363c-0.437,-1.446 -0.654,-4.009 -0.654,-7.692c-0,-1.537 0.046,-2.754 0.142,-3.646c-0,-3.416 0.866,-7.537 2.591,-12.358c-1.496,0.587 -2.837,0.883 -4.016,0.883c-1.213,0 -1.821,-0.458 -1.821,-1.371c0.096,-0.775 0.537,-1.545 1.337,-2.304c2.834,-3.496 8.479,-5.241 16.946,-5.241c2.833,-0 5.242,0.904 7.238,2.704c2.012,1.787 3.016,3.971 3.016,6.554c0,2.392 -1.296,4.392 -3.9,6.008c4.35,0.913 6.521,3.617 6.521,8.117c0,3.533 -1.125,6.517 -3.387,8.946c-2.43,2.221 -5.688,3.333 -9.771,3.333c-3.796,0.133 -7.013,-0.133 -9.642,-0.783c-2.629,-0.659 -4.162,-1.704 -4.6,-3.15" style="fill:#fdd411;fill-rule:nonzero;"/><path d="M498.457,561.686l-0.542,2.309c-0.683,2.941 -1.083,4.991 -1.196,6.15c8.088,-0.534 12.134,-2.342 12.134,-5.438c-0,-2.358 -1.288,-3.592 -3.875,-3.704c-2.563,-0 -4.734,0.229 -6.521,0.683Zm-2.221,13.3l-0.483,9.659c1.633,0.587 3.287,0.904 4.954,0.937c7.104,0 10.654,-1.954 10.654,-5.867c-0,-3.566 -2.867,-5.354 -8.604,-5.354c-3.075,0 -5.25,0.209 -6.521,0.625Zm-6.096,12.363c-0.437,-1.446 -0.654,-4.009 -0.654,-7.692c-0,-1.537 0.046,-2.754 0.142,-3.646c-0,-3.416 0.866,-7.537 2.591,-12.358c-1.496,0.587 -2.837,0.883 -4.016,0.883c-1.213,0 -1.821,-0.458 -1.821,-1.371c0.096,-0.775 0.537,-1.545 1.337,-2.304c2.834,-3.496 8.479,-5.241 16.946,-5.241c2.833,-0 5.242,0.904 7.238,2.704c2.012,1.787 3.016,3.971 3.016,6.554c0,2.392 -1.296,4.392 -3.9,6.008c4.35,0.913 6.521,3.617 6.521,8.117c0,3.533 -1.125,6.517 -3.387,8.946c-2.43,2.221 -5.688,3.333 -9.771,3.333c-3.796,0.133 -7.013,-0.133 -9.642,-0.783c-2.629,-0.659 -4.162,-1.704 -4.6,-3.15Z" style="fill:none;fill-rule:nonzero;stroke:#fecd03;stroke-width:1.04px;"/><path d="M529.885,575.643l9.088,-0.258c-1.538,-9.646 -2.488,-14.467 -2.85,-14.467c-0.946,0.625 -3.025,5.534 -6.238,14.725m8.234,-23.212c1.708,-0 3.466,6.521 5.266,19.567c1.88,10.083 2.821,16.529 2.821,19.341c0,0.375 -0.271,0.567 -0.825,0.567c-2.033,-0.15 -3.371,-1.688 -4.016,-4.613l-1.625,-6.666c-3.305,0.437 -7.263,0.591 -11.875,0.458c-2.375,7.654 -3.921,11.613 -4.646,11.875c-0.342,0.15 -0.671,0.15 -0.996,0c-2.088,-1.425 -2.971,-3.504 -2.65,-6.237c-0,-0.55 0.612,-3.18 1.825,-7.888c-1.483,-0.837 -2.221,-2.592 -2.221,-5.271c0,-0.262 0.075,-0.425 0.225,-0.471c0.154,-0.045 0.279,-0.02 0.371,0.071c0.992,0.95 2.137,1.425 3.446,1.425c4.35,-10.025 8.254,-16.937 11.708,-20.733c0.95,-0.95 2.013,-1.425 3.192,-1.425" style="fill:#fdd411;fill-rule:nonzero;"/><path d="M529.885,575.643l9.088,-0.258c-1.538,-9.646 -2.488,-14.467 -2.85,-14.467c-0.946,0.625 -3.025,5.534 -6.238,14.725Zm8.234,-23.212c1.708,-0 3.466,6.521 5.266,19.567c1.88,10.083 2.821,16.529 2.821,19.341c0,0.375 -0.271,0.567 -0.825,0.567c-2.033,-0.15 -3.371,-1.688 -4.016,-4.613l-1.625,-6.666c-3.305,0.437 -7.263,0.591 -11.875,0.458c-2.375,7.654 -3.921,11.613 -4.646,11.875c-0.342,0.15 -0.671,0.15 -0.996,0c-2.088,-1.425 -2.971,-3.504 -2.65,-6.237c-0,-0.55 0.612,-3.18 1.825,-7.888c-1.483,-0.837 -2.221,-2.592 -2.221,-5.271c0,-0.262 0.075,-0.425 0.225,-0.471c0.154,-0.045 0.279,-0.02 0.371,0.071c0.992,0.95 2.137,1.425 3.446,1.425c4.35,-10.025 8.254,-16.937 11.708,-20.733c0.95,-0.95 2.013,-1.425 3.192,-1.425Z" style="fill:none;fill-rule:nonzero;stroke:#fecd03;stroke-width:1.04px;"/><path d="M557.042,553.797c0.796,0.037 1.129,0.579 0.996,1.625c-2.033,14.295 -3.075,24.008 -3.133,29.137c1.783,0 5.954,-0.608 12.504,-1.825c0.287,0 0.429,0.342 0.429,1.025c-0,2.942 -2.904,5.242 -8.717,6.896c-0.95,0.15 -2.375,0.225 -4.271,0.225c-4.216,0 -6.345,-2.512 -6.383,-7.546c0,-8.375 2.308,-17.879 6.925,-28.512c0.321,-0.684 0.871,-1.025 1.65,-1.025" style="fill:#fdd411;fill-rule:nonzero;"/><path d="M557.042,553.797c0.796,0.037 1.129,0.579 0.996,1.625c-2.033,14.295 -3.075,24.008 -3.133,29.137c1.783,0 5.954,-0.608 12.504,-1.825c0.287,0 0.429,0.342 0.429,1.025c-0,2.942 -2.904,5.242 -8.717,6.896c-0.95,0.15 -2.375,0.225 -4.271,0.225c-4.216,0 -6.345,-2.512 -6.383,-7.546c0,-8.375 2.308,-17.879 6.925,-28.512c0.321,-0.684 0.871,-1.025 1.65,-1.025Z" style="fill:none;fill-rule:nonzero;stroke:#fecd03;stroke-width:1.04px;"/><path d="M595.23,575.643l9.087,-0.258c-1.537,-9.646 -2.487,-14.467 -2.85,-14.467c-0.946,0.625 -3.025,5.534 -6.237,14.725m8.233,-23.212c1.708,-0 3.467,6.521 5.267,19.567c1.879,10.083 2.82,16.529 2.82,19.341c0,0.375 -0.27,0.567 -0.825,0.567c-2.033,-0.15 -3.37,-1.688 -4.016,-4.613l-1.625,-6.666c-3.304,0.437 -7.263,0.591 -11.875,0.458c-2.375,7.654 -3.921,11.613 -4.646,11.875c-0.342,0.15 -0.671,0.15 -0.996,0c-2.087,-1.425 -2.971,-3.504 -2.65,-6.237c0,-0.55 0.613,-3.18 1.825,-7.888c-1.483,-0.837 -2.221,-2.592 -2.221,-5.271c0,-0.262 0.075,-0.425 0.225,-0.471c0.154,-0.045 0.279,-0.02 0.371,0.071c0.992,0.95 2.138,1.425 3.446,1.425c4.35,-10.025 8.254,-16.937 11.708,-20.733c0.95,-0.95 2.013,-1.425 3.192,-1.425" style="fill:#fdd411;fill-rule:nonzero;"/><path d="M595.23,575.643l9.087,-0.258c-1.537,-9.646 -2.487,-14.467 -2.85,-14.467c-0.946,0.625 -3.025,5.534 -6.237,14.725Zm8.233,-23.212c1.708,-0 3.467,6.521 5.267,19.567c1.879,10.083 2.82,16.529 2.82,19.341c0,0.375 -0.27,0.567 -0.825,0.567c-2.033,-0.15 -3.37,-1.688 -4.016,-4.613l-1.625,-6.666c-3.304,0.437 -7.263,0.591 -11.875,0.458c-2.375,7.654 -3.921,11.613 -4.646,11.875c-0.342,0.15 -0.671,0.15 -0.996,0c-2.087,-1.425 -2.971,-3.504 -2.65,-6.237c0,-0.55 0.613,-3.18 1.825,-7.888c-1.483,-0.837 -2.221,-2.592 -2.221,-5.271c0,-0.262 0.075,-0.425 0.225,-0.471c0.154,-0.045 0.279,-0.02 0.371,0.071c0.992,0.95 2.138,1.425 3.446,1.425c4.35,-10.025 8.254,-16.937 11.708,-20.733c0.95,-0.95 2.013,-1.425 3.192,-1.425Z" style="fill:none;fill-rule:nonzero;stroke:#fecd03;stroke-width:1.04px;"/><path d="M641.682,583.533c1.816,-0.988 2.72,-0.379 2.72,1.821c0,3.683 -5.266,5.529 -15.808,5.529c-9.837,-0 -14.754,-4.483 -14.754,-13.446c-0,-5.675 1.946,-10.658 5.842,-14.954c4.212,-4.65 9.558,-6.979 16.033,-6.979c1.767,-0 3.579,0.416 5.442,1.237c1.858,0.834 2.654,1.95 2.375,3.363c-0.271,1.416 -1.505,1.829 -3.684,1.241c-6.837,-0.912 -11.975,0.692 -15.412,4.813c-3.134,3.796 -4.7,7.662 -4.7,11.592c-0,4.67 3.171,7.329 9.516,7.975c3.034,-0 5.413,-0.117 7.134,-0.355c1.721,-0.237 3.483,-0.85 5.296,-1.837" style="fill:#fdd411;fill-rule:nonzero;"/><path d="M641.682,583.533c1.816,-0.988 2.72,-0.379 2.72,1.821c0,3.683 -5.266,5.529 -15.808,5.529c-9.837,-0 -14.754,-4.483 -14.754,-13.446c-0,-5.675 1.946,-10.658 5.842,-14.954c4.212,-4.65 9.558,-6.979 16.033,-6.979c1.767,-0 3.579,0.416 5.442,1.237c1.858,0.834 2.654,1.95 2.375,3.363c-0.271,1.416 -1.505,1.829 -3.684,1.241c-6.837,-0.912 -11.975,0.692 -15.412,4.813c-3.134,3.796 -4.7,7.662 -4.7,11.592c-0,4.67 3.171,7.329 9.516,7.975c3.034,-0 5.413,-0.117 7.134,-0.355c1.721,-0.237 3.483,-0.85 5.296,-1.837Z" style="fill:none;fill-rule:nonzero;stroke:#fecd03;stroke-width:1.04px;"/><path d="M657.429,575.643l9.087,-0.258c-1.537,-9.646 -2.487,-14.467 -2.85,-14.467c-0.946,0.625 -3.025,5.534 -6.237,14.725m8.233,-23.212c1.708,-0 3.467,6.521 5.267,19.567c1.879,10.083 2.821,16.529 2.821,19.341c-0,0.375 -0.271,0.567 -0.825,0.567c-2.034,-0.15 -3.371,-1.688 -4.017,-4.613l-1.625,-6.666c-3.304,0.437 -7.263,0.591 -11.875,0.458c-2.375,7.654 -3.921,11.613 -4.646,11.875c-0.342,0.15 -0.671,0.15 -0.996,0c-2.087,-1.425 -2.971,-3.504 -2.65,-6.237c0,-0.55 0.613,-3.18 1.825,-7.888c-1.483,-0.837 -2.221,-2.592 -2.221,-5.271c0,-0.262 0.075,-0.425 0.225,-0.471c0.155,-0.045 0.28,-0.02 0.371,0.071c0.992,0.95 2.138,1.425 3.446,1.425c4.35,-10.025 8.254,-16.937 11.708,-20.733c0.95,-0.95 2.013,-1.425 3.192,-1.425" style="fill:#fdd411;fill-rule:nonzero;"/><path d="M657.429,575.643l9.087,-0.258c-1.537,-9.646 -2.487,-14.467 -2.85,-14.467c-0.946,0.625 -3.025,5.534 -6.237,14.725Zm8.233,-23.212c1.708,-0 3.467,6.521 5.267,19.567c1.879,10.083 2.821,16.529 2.821,19.341c-0,0.375 -0.271,0.567 -0.825,0.567c-2.034,-0.15 -3.371,-1.688 -4.017,-4.613l-1.625,-6.666c-3.304,0.437 -7.263,0.591 -11.875,0.458c-2.375,7.654 -3.921,11.613 -4.646,11.875c-0.342,0.15 -0.671,0.15 -0.996,0c-2.087,-1.425 -2.971,-3.504 -2.65,-6.237c0,-0.55 0.613,-3.18 1.825,-7.888c-1.483,-0.837 -2.221,-2.592 -2.221,-5.271c0,-0.262 0.075,-0.425 0.225,-0.471c0.155,-0.045 0.28,-0.02 0.371,0.071c0.992,0.95 2.138,1.425 3.446,1.425c4.35,-10.025 8.254,-16.937 11.708,-20.733c0.95,-0.95 2.013,-1.425 3.192,-1.425Z" style="fill:none;fill-rule:nonzero;stroke:#fecd03;stroke-width:1.04px;"/><path d="M687.833,561.373c-0,10.879 0.162,18.921 0.483,24.125c0.912,0.421 2.642,0.625 5.183,0.625c6.154,-0.321 9.563,-3.338 10.225,-9.054c0,-4.104 -1.496,-7.625 -4.5,-10.554c-2.996,-2.938 -6.791,-4.65 -11.391,-5.142Zm-2.65,-5.896c0.554,-0.854 1.187,-1.283 1.908,-1.283l0.683,-0l0,1.483c7.825,0.946 14.254,4.692 19.284,11.221c2.091,3.246 3.133,6.387 3.133,9.429c-0,4.708 -1.775,8.367 -5.325,10.967c-3.55,2.6 -8.867,3.9 -15.95,3.9l-0.6,-0c-0.358,1.504 -1.196,2.329 -2.504,2.479c-1.767,-0 -2.65,-1.338 -2.65,-4.017l-0,-0.4c-4.159,-1.9 -6.238,-4.079 -6.238,-6.55c0,-2.029 0.229,-3.379 0.684,-4.046c0.987,2.034 2.591,3.571 4.812,4.617c-0.054,-0.742 -0.083,-2.058 -0.083,-3.958c-0,-9.059 0.454,-15.221 1.366,-18.488c-1.175,-0.058 -3.32,-0.008 -6.437,0.142c-1.367,-0.021 -2.05,-0.721 -2.05,-2.108c-0,-0.855 0.812,-1.642 2.437,-2.363c1.621,-0.721 3.621,-1.083 5.992,-1.083c0.533,-0 1.046,0.021 1.538,0.058Z" style="fill:#fdd411;fill-rule:nonzero;stroke:#fecd03;stroke-width:1.04px;"/><path d="M730.655,556.36c4.612,-0.092 7.7,0.721 9.258,2.45c0.529,0.854 0.55,1.813 0.054,2.875c-1.137,0.854 -3.758,1.283 -7.858,1.283l-7.067,0c-0.817,1.217 -1.729,4.559 -2.733,10.025l0.2,0c5.258,-0.433 8.104,-0.654 8.546,-0.654c2.279,0.092 3.416,0.863 3.416,2.308c-0.987,2.125 -3.033,3.351 -6.125,3.676c-2.487,0.225 -4.862,0.375 -7.121,0.454l-0.2,4.7c0.209,2.258 1.209,3.387 2.992,3.387c7.329,-0.362 11.808,-0.704 13.446,-1.025c0.721,-0.037 1.083,0.171 1.083,0.629c0,2.584 -4.35,4.917 -13.046,7.005c-1.312,0.304 -2.583,0.458 -3.816,0.458c-4.842,-0 -7.263,-2.421 -7.263,-7.267c0,-1.933 0.354,-4.841 1.079,-8.712c-2.295,-0.667 -3.445,-1.504 -3.445,-2.509c-0,-0.72 1.425,-1.308 4.275,-1.766c0.854,-4.292 1.779,-7.925 2.787,-10.909l-0.254,0c-3.267,-0.283 -4.9,-1.062 -4.9,-2.333c0.208,-2.075 5.771,-3.429 16.692,-4.075" style="fill:#fdd411;fill-rule:nonzero;"/><path d="M730.655,556.36c4.612,-0.092 7.7,0.721 9.258,2.45c0.529,0.854 0.55,1.813 0.054,2.875c-1.137,0.854 -3.758,1.283 -7.858,1.283l-7.067,0c-0.817,1.217 -1.729,4.559 -2.733,10.025l0.2,0c5.258,-0.433 8.104,-0.654 8.546,-0.654c2.279,0.092 3.416,0.863 3.416,2.308c-0.987,2.125 -3.033,3.351 -6.125,3.676c-2.487,0.225 -4.862,0.375 -7.121,0.454l-0.2,4.7c0.209,2.258 1.209,3.387 2.992,3.387c7.329,-0.362 11.808,-0.704 13.446,-1.025c0.721,-0.037 1.083,0.171 1.083,0.629c0,2.584 -4.35,4.917 -13.046,7.005c-1.312,0.304 -2.583,0.458 -3.816,0.458c-4.842,-0 -7.263,-2.421 -7.263,-7.267c0,-1.933 0.354,-4.841 1.079,-8.712c-2.295,-0.667 -3.445,-1.504 -3.445,-2.509c-0,-0.72 1.425,-1.308 4.275,-1.766c0.854,-4.292 1.779,-7.925 2.787,-10.909l-0.254,0c-3.267,-0.283 -4.9,-1.062 -4.9,-2.333c0.208,-2.075 5.771,-3.429 16.692,-4.075Z" style="fill:none;fill-rule:nonzero;stroke:#fecd03;stroke-width:1.04px;"/><path d="M757.042,558.667c2.879,-2.487 5.192,-3.733 6.917,-3.733c2.033,-0 3.183,2.612 3.45,7.833c0.775,9.992 1.229,15.438 1.366,16.35c2.355,-14.717 6.609,-22.075 12.763,-22.075c1.367,0 2.321,0.4 2.854,1.196c0.546,0.8 0.879,2.129 1.021,3.987c0.512,9.038 0.642,16.317 0.396,21.821c-0.25,5.504 -1.059,8.296 -2.425,8.375c-2.45,0.188 -3.767,-1.046 -3.954,-3.704c-0.138,-6.175 -0.205,-11.942 -0.205,-17.317c0,-4.579 0.1,-7.208 0.288,-7.891c-2.029,0.816 -3.842,4.55 -5.438,11.196c-0.4,1.329 -0.991,3.616 -1.766,6.862c-0.667,2.713 -1.179,4.579 -1.538,5.583c-0.325,0.946 -1.187,1.425 -2.596,1.425c-2.22,0.092 -4.004,-3.712 -5.354,-11.42c-0.946,-6.384 -1.425,-11.367 -1.425,-14.955c-3.225,2.125 -5.479,4.234 -6.746,6.321c-2.758,4.388 -4.095,9.704 -4.02,15.95c-0,4.863 -0.855,7.329 -2.563,7.409c-1.537,0.133 -2.6,-0.809 -3.192,-2.821c-0.812,-2.509 -1.22,-6.721 -1.22,-12.646c-0,-4.35 0.379,-8.375 1.141,-12.079c0.584,-2.696 1.042,-4.359 1.367,-4.984c0.642,-1.345 1.758,-2.02 3.329,-2.02c1.504,-0 1.821,3.504 0.967,10.508c2.391,-4.388 4.587,-7.442 6.583,-9.171" style="fill:#fdd411;fill-rule:nonzero;"/><path d="M757.042,558.667c2.879,-2.487 5.192,-3.733 6.917,-3.733c2.033,-0 3.183,2.612 3.45,7.833c0.775,9.992 1.229,15.438 1.366,16.35c2.355,-14.717 6.609,-22.075 12.763,-22.075c1.367,0 2.321,0.4 2.854,1.196c0.546,0.8 0.879,2.129 1.021,3.987c0.512,9.038 0.642,16.317 0.396,21.821c-0.25,5.504 -1.059,8.296 -2.425,8.375c-2.45,0.188 -3.767,-1.046 -3.954,-3.704c-0.138,-6.175 -0.205,-11.942 -0.205,-17.317c0,-4.579 0.1,-7.208 0.288,-7.891c-2.029,0.816 -3.842,4.55 -5.438,11.196c-0.4,1.329 -0.991,3.616 -1.766,6.862c-0.667,2.713 -1.179,4.579 -1.538,5.583c-0.325,0.946 -1.187,1.425 -2.596,1.425c-2.22,0.092 -4.004,-3.712 -5.354,-11.42c-0.946,-6.384 -1.425,-11.367 -1.425,-14.955c-3.225,2.125 -5.479,4.234 -6.746,6.321c-2.758,4.388 -4.095,9.704 -4.02,15.95c-0,4.863 -0.855,7.329 -2.563,7.409c-1.537,0.133 -2.6,-0.809 -3.192,-2.821c-0.812,-2.509 -1.22,-6.721 -1.22,-12.646c-0,-4.35 0.379,-8.375 1.141,-12.079c0.584,-2.696 1.042,-4.359 1.367,-4.984c0.642,-1.345 1.758,-2.02 3.329,-2.02c1.504,-0 1.821,3.504 0.967,10.508c2.391,-4.388 4.587,-7.442 6.583,-9.171Z" style="fill:none;fill-rule:nonzero;stroke:#fecd03;stroke-width:1.04px;"/><path d="M814.415,564.791c0,-2.583 -0.321,-3.875 -0.967,-3.875c-2.166,0 -5.554,5.521 -10.17,16.55c6.516,0.988 10.225,-3.237 11.137,-12.675m-16.633,-12.362c0.646,0.037 0.875,0.429 0.683,1.166c-0.171,0.63 -0.717,2.217 -1.642,4.759c-0.916,2.541 -1.379,5.866 -1.379,9.971c0.134,4.27 1.275,6.633 3.421,7.091c1.933,-5.525 4.463,-10.421 7.575,-14.687c3.113,-4.259 5.867,-6.392 8.258,-6.392c2.85,0 4.359,3.696 4.53,11.079c-0.225,5.509 -1.859,9.904 -4.9,13.188c-3.038,3.287 -7.255,4.691 -12.646,4.216c-0.946,2.317 -1.784,7.471 -2.504,15.467c-0.267,0.875 -0.78,1.146 -1.538,0.825c-2.242,-1.079 -3.362,-3.142 -3.362,-6.179c-0,-4.025 0.845,-8.108 2.533,-12.25c-4.442,-2.467 -6.663,-6.588 -6.663,-12.358c0,-7.271 2.155,-12.43 6.467,-15.467c0.246,-0.288 0.633,-0.429 1.167,-0.429" style="fill:#fdd411;fill-rule:nonzero;"/><path d="M814.415,564.791c0,-2.583 -0.321,-3.875 -0.967,-3.875c-2.166,0 -5.554,5.521 -10.17,16.55c6.516,0.988 10.225,-3.237 11.137,-12.675Zm-16.633,-12.362c0.646,0.037 0.875,0.429 0.683,1.166c-0.171,0.63 -0.717,2.217 -1.642,4.759c-0.916,2.541 -1.379,5.866 -1.379,9.971c0.134,4.27 1.275,6.633 3.421,7.091c1.933,-5.525 4.463,-10.421 7.575,-14.687c3.113,-4.259 5.867,-6.392 8.258,-6.392c2.85,0 4.359,3.696 4.53,11.079c-0.225,5.509 -1.859,9.904 -4.9,13.188c-3.038,3.287 -7.255,4.691 -12.646,4.216c-0.946,2.317 -1.784,7.471 -2.504,15.467c-0.267,0.875 -0.78,1.146 -1.538,0.825c-2.242,-1.079 -3.362,-3.142 -3.362,-6.179c-0,-4.025 0.845,-8.108 2.533,-12.25c-4.442,-2.467 -6.663,-6.588 -6.663,-12.358c0,-7.271 2.155,-12.43 6.467,-15.467c0.246,-0.288 0.633,-0.429 1.167,-0.429Z" style="fill:none;fill-rule:nonzero;stroke:#fecd03;stroke-width:1.04px;"/><path d="M852.106,564.193c-0.754,1.404 -1.375,2.108 -1.866,2.108c-0.459,0 -0.78,-0.8 -0.971,-2.391c-2.713,1.27 -4.071,4.537 -4.071,9.795c0.283,8.546 3.837,12.817 10.65,12.817c6.304,0 9.637,-4.187 10,-12.558c-0,-6.646 -2.288,-10.817 -6.867,-12.504c-1.25,-0.492 -2.525,-0.513 -3.816,-0.059c-1.288,0.454 -2.309,1.388 -3.059,2.792m5.596,-10.054c6.117,-0 10.5,4.3 13.158,12.904c0.421,1.729 0.625,3.692 0.625,5.896c0,8.883 -3.795,14.675 -11.391,17.375c-2.317,0.604 -4.729,0.729 -7.234,0.366c-9.72,-1.045 -14.583,-6.37 -14.583,-15.979c0,-7.366 3.55,-12.466 10.65,-15.291c1.788,-3.513 4.708,-5.271 8.775,-5.271" style="fill:#fdd411;fill-rule:nonzero;"/><path d="M852.106,564.193c-0.754,1.404 -1.375,2.108 -1.866,2.108c-0.459,0 -0.78,-0.8 -0.971,-2.391c-2.713,1.27 -4.071,4.537 -4.071,9.795c0.283,8.546 3.837,12.817 10.65,12.817c6.304,0 9.637,-4.187 10,-12.558c-0,-6.646 -2.288,-10.817 -6.867,-12.504c-1.25,-0.492 -2.525,-0.513 -3.816,-0.059c-1.288,0.454 -2.309,1.388 -3.059,2.792Zm5.596,-10.054c6.117,-0 10.5,4.3 13.158,12.904c0.421,1.729 0.625,3.692 0.625,5.896c0,8.883 -3.795,14.675 -11.391,17.375c-2.317,0.604 -4.729,0.729 -7.234,0.366c-9.72,-1.045 -14.583,-6.37 -14.583,-15.979c0,-7.366 3.55,-12.466 10.65,-15.291c1.788,-3.513 4.708,-5.271 8.775,-5.271Z" style="fill:none;fill-rule:nonzero;stroke:#fecd03;stroke-width:1.04px;"/><path d="M892.263,555.562c3.988,0 6.609,0.405 7.863,1.213c1.254,0.804 1.9,1.854 1.937,3.146c-0.171,1.516 -2.954,2.279 -8.346,2.279l-7.066,0c-0.817,1.196 -1.567,4.038 -2.25,8.517l0.2,-0c7.883,-0.421 12.029,-0.63 12.446,-0.63c2.3,0.096 3.45,0.863 3.45,2.309c-0,2.45 -5.725,3.825 -17.175,4.129c-0.138,6.075 -0.2,10.317 -0.2,12.721c-0,2.4 -1.021,3.487 -3.067,3.258c-2.038,-0.225 -3.058,-2.429 -3.058,-6.608c-0,-1.938 0.2,-5.175 0.595,-9.713c-2.295,0 -3.445,-0.675 -3.445,-2.021c-0,-1.366 1.425,-2.287 4.275,-2.762c0.512,-3.283 1.195,-6.417 2.05,-9.4c-3.267,-0.304 -4.9,-1.092 -4.9,-2.363c0.191,-2.716 5.754,-4.075 16.691,-4.075" style="fill:#fdd411;fill-rule:nonzero;"/><path d="M892.263,555.562c3.988,0 6.609,0.405 7.863,1.213c1.254,0.804 1.9,1.854 1.937,3.146c-0.171,1.516 -2.954,2.279 -8.346,2.279l-7.066,0c-0.817,1.196 -1.567,4.038 -2.25,8.517l0.2,-0c7.883,-0.421 12.029,-0.63 12.446,-0.63c2.3,0.096 3.45,0.863 3.45,2.309c-0,2.45 -5.725,3.825 -17.175,4.129c-0.138,6.075 -0.2,10.317 -0.2,12.721c-0,2.4 -1.021,3.487 -3.067,3.258c-2.038,-0.225 -3.058,-2.429 -3.058,-6.608c-0,-1.938 0.2,-5.175 0.595,-9.713c-2.295,0 -3.445,-0.675 -3.445,-2.021c-0,-1.366 1.425,-2.287 4.275,-2.762c0.512,-3.283 1.195,-6.417 2.05,-9.4c-3.267,-0.304 -4.9,-1.092 -4.9,-2.363c0.191,-2.716 5.754,-4.075 16.691,-4.075Z" style="fill:none;fill-rule:nonzero;stroke:#fecd03;stroke-width:1.04px;"/><path d="M937.572,555.562c3.988,0 6.608,0.405 7.863,1.213c1.254,0.804 1.9,1.854 1.937,3.146c-0.171,1.516 -2.954,2.279 -8.346,2.279l-7.066,0c-0.817,1.196 -1.567,4.038 -2.25,8.517l0.2,-0c7.883,-0.421 12.029,-0.63 12.445,-0.63c2.3,0.096 3.45,0.863 3.45,2.309c0,2.45 -5.725,3.825 -17.175,4.129c-0.137,6.075 -0.2,10.317 -0.2,12.721c0,2.4 -1.02,3.487 -3.066,3.258c-2.038,-0.225 -3.059,-2.429 -3.059,-6.608c0,-1.938 0.2,-5.175 0.596,-9.713c-2.296,0 -3.446,-0.675 -3.446,-2.021c0,-1.366 1.425,-2.287 4.275,-2.762c0.513,-3.283 1.196,-6.417 2.05,-9.4c-3.266,-0.304 -4.9,-1.092 -4.9,-2.363c0.192,-2.716 5.755,-4.075 16.692,-4.075" style="fill:#fdd411;fill-rule:nonzero;"/><path d="M937.572,555.562c3.988,0 6.608,0.405 7.863,1.213c1.254,0.804 1.9,1.854 1.937,3.146c-0.171,1.516 -2.954,2.279 -8.346,2.279l-7.066,0c-0.817,1.196 -1.567,4.038 -2.25,8.517l0.2,-0c7.883,-0.421 12.029,-0.63 12.445,-0.63c2.3,0.096 3.45,0.863 3.45,2.309c0,2.45 -5.725,3.825 -17.175,4.129c-0.137,6.075 -0.2,10.317 -0.2,12.721c0,2.4 -1.02,3.487 -3.066,3.258c-2.038,-0.225 -3.059,-2.429 -3.059,-6.608c0,-1.938 0.2,-5.175 0.596,-9.713c-2.296,0 -3.446,-0.675 -3.446,-2.021c0,-1.366 1.425,-2.287 4.275,-2.762c0.513,-3.283 1.196,-6.417 2.05,-9.4c-3.266,-0.304 -4.9,-1.092 -4.9,-2.363c0.192,-2.716 5.755,-4.075 16.692,-4.075Z" style="fill:none;fill-rule:nonzero;stroke:#fecd03;stroke-width:1.04px;"/><path d="M949.917,576.555c1.308,-10.388 4.538,-18.038 9.683,-22.959c0.421,-0.321 0.875,-0.483 1.367,-0.483c0.742,-0 1.217,0.675 1.425,2.021c-3.075,8.012 -5.012,14.379 -5.808,19.083c-0.288,1.504 -0.429,3 -0.429,4.504c0.32,3.834 1.566,5.75 3.733,5.75c3.625,0 7.137,-6.312 10.537,-18.941c0.892,-3.93 1.93,-5.896 3.105,-5.896c0.591,-0 1.158,0.808 1.708,2.425c1.312,5.046 2.442,9.983 3.392,14.791c0.945,4.821 1.6,8.713 1.962,11.696c0,1.821 -1.054,2.734 -3.158,2.734c-1.104,-0 -1.996,-0.996 -2.679,-2.992c-0.684,-1.992 -1.317,-6.721 -1.909,-14.183c-1.175,5.562 -3.296,9.933 -6.35,13.104c-2.546,2.45 -4.996,3.671 -7.35,3.671l-0.087,-0c-3.667,-0.092 -6.267,-1.592 -7.804,-4.5c-1.217,-2.584 -1.659,-5.859 -1.338,-9.825" style="fill:#fdd411;fill-rule:nonzero;"/><path d="M949.917,576.555c1.308,-10.388 4.538,-18.038 9.683,-22.959c0.421,-0.321 0.875,-0.483 1.367,-0.483c0.742,-0 1.217,0.675 1.425,2.021c-3.075,8.012 -5.012,14.379 -5.808,19.083c-0.288,1.504 -0.429,3 -0.429,4.504c0.32,3.834 1.566,5.75 3.733,5.75c3.625,0 7.137,-6.312 10.537,-18.941c0.892,-3.93 1.93,-5.896 3.105,-5.896c0.591,-0 1.158,0.808 1.708,2.425c1.312,5.046 2.442,9.983 3.392,14.791c0.945,4.821 1.6,8.713 1.962,11.696c0,1.821 -1.054,2.734 -3.158,2.734c-1.104,-0 -1.996,-0.996 -2.679,-2.992c-0.684,-1.992 -1.317,-6.721 -1.909,-14.183c-1.175,5.562 -3.296,9.933 -6.35,13.104c-2.546,2.45 -4.996,3.671 -7.35,3.671l-0.087,-0c-3.667,-0.092 -6.267,-1.592 -7.804,-4.5c-1.217,-2.584 -1.659,-5.859 -1.338,-9.825Z" style="fill:none;fill-rule:nonzero;stroke:#fecd03;stroke-width:1.04px;"/><path d="M990.689,572.595c4.9,-0.662 9.521,-1.858 13.871,-3.587c4.35,-1.729 6.525,-3.271 6.525,-4.617c-0,-2.183 -2.48,-3.275 -7.438,-3.275c-5.05,0 -9.162,0.134 -12.333,0.4c-0.417,2.129 -0.625,5.296 -0.625,9.513l-0,1.566Zm0.087,19.996c-3.4,0 -5.508,-5.554 -6.325,-16.662c-1.141,-0.95 -1.708,-1.817 -1.708,-2.592c-0,-1.254 0.292,-1.833 0.883,-1.737c0.171,0.075 0.379,0.112 0.625,0.112c0,-4.975 0.563,-8.667 1.679,-11.079c1.405,-3.154 3.963,-4.892 7.663,-5.213c0.683,-0.058 3.4,-0.087 8.146,-0.087c3.762,-0 7.075,0.6 9.941,1.796c3.896,1.633 5.838,4.075 5.838,7.321c-0,4.25 -3.729,7.67 -11.192,10.254c-0.741,0.283 -2.562,0.654 -5.471,1.108c3.23,1.675 7.58,5.421 13.046,11.254c1.063,1.217 1.596,2.554 1.596,4.017c0,1.858 -0.596,2.787 -1.796,2.787c-0.625,0 -1.166,-0.162 -1.621,-0.483c-10.366,-10.137 -17.225,-14.646 -20.566,-13.529c0.079,2.508 0.733,5.517 1.966,9.029c0.455,2.471 -0.45,3.704 -2.704,3.704" style="fill:#fdd411;fill-rule:nonzero;"/><path d="M990.689,572.595c4.9,-0.662 9.521,-1.858 13.871,-3.587c4.35,-1.729 6.525,-3.271 6.525,-4.617c-0,-2.183 -2.48,-3.275 -7.438,-3.275c-5.05,0 -9.162,0.134 -12.333,0.4c-0.417,2.129 -0.625,5.296 -0.625,9.513l-0,1.566Zm0.087,19.996c-3.4,0 -5.508,-5.554 -6.325,-16.662c-1.141,-0.95 -1.708,-1.817 -1.708,-2.592c-0,-1.254 0.292,-1.833 0.883,-1.737c0.171,0.075 0.379,0.112 0.625,0.112c0,-4.975 0.563,-8.667 1.679,-11.079c1.405,-3.154 3.963,-4.892 7.663,-5.213c0.683,-0.058 3.4,-0.087 8.146,-0.087c3.762,-0 7.075,0.6 9.941,1.796c3.896,1.633 5.838,4.075 5.838,7.321c-0,4.25 -3.729,7.67 -11.192,10.254c-0.741,0.283 -2.562,0.654 -5.471,1.108c3.23,1.675 7.58,5.421 13.046,11.254c1.063,1.217 1.596,2.554 1.596,4.017c0,1.858 -0.596,2.787 -1.796,2.787c-0.625,0 -1.166,-0.162 -1.621,-0.483c-10.366,-10.137 -17.225,-14.646 -20.566,-13.529c0.079,2.508 0.733,5.517 1.966,9.029c0.455,2.471 -0.45,3.704 -2.704,3.704Z" style="fill:none;fill-rule:nonzero;stroke:#fecd03;stroke-width:1.04px;"/><path d="M1043.79,559.55c5.525,-0.229 8.725,-1.358 9.6,-3.388c-0.096,-0.458 -0.65,-0.687 -1.654,-0.687c-2.771,-0 -5.421,1.362 -7.946,4.075Zm-18.4,-8.088c0.55,0 0.8,0.188 0.754,0.55c-0.045,0.375 -0.162,0.759 -0.354,1.159c-0.229,0.491 -0.279,0.996 -0.141,1.508c0.645,2.392 4.612,3.904 11.904,4.529c3.566,-4.387 8.608,-6.579 15.125,-6.579c4.079,0.417 6.125,2.163 6.125,5.242c-0.096,4.612 -6.163,7.183 -18.204,7.716c-3.455,8.525 -5.184,16.634 -5.184,24.325c0,2.3 -0.462,3.446 -1.396,3.446c-2.712,0.117 -4.187,-2.791 -4.412,-8.716c-0,-7.746 1.396,-14.184 4.187,-19.309c-4.595,-0.721 -8.325,-1.987 -11.195,-3.787c-1.9,-1.179 -2.85,-2.567 -2.85,-4.163c-0,-3.166 1.883,-5.146 5.641,-5.921Z" style="fill:#fdd411;fill-rule:nonzero;stroke:#fecd03;stroke-width:1.04px;"/><path d="M1077.55,558.126c0,-1.479 0.921,-2.413 2.763,-2.792c1.104,0 1.833,0.113 2.191,0.342c0.363,0.229 0.625,0.629 0.788,1.196c0.158,0.571 0.275,1.262 0.354,2.079l0.767,14.871c-0,1.271 0.204,4.162 0.612,8.671c0.413,4.512 0.246,7.17 -0.496,7.991c-0.991,0.342 -1.758,0.513 -2.308,0.513c-1.446,-0 -2.329,-0.904 -2.65,-2.709l-0.396,-8.829c-3.362,0.454 -7.521,0.421 -12.475,-0.112c0.133,2.258 0.196,5.241 0.196,8.941c0,0.992 -0.179,1.596 -0.542,1.825c-0.283,0.225 -0.804,0.417 -1.566,0.567c-0.871,-0 -1.58,-0.2 -2.117,-0.613c-0.546,-0.408 -1.092,-1.57 -1.642,-3.487c-0.4,-8.317 -0.233,-16.263 0.484,-23.842c0.191,-3.662 1.462,-5.496 3.816,-5.496c1.446,0 2.005,0.934 1.684,2.792c-0.321,2.85 -0.488,5.633 -0.488,8.346l0,5.583c2.088,0.363 4.475,0.542 7.15,0.542c2.679,-0 4.35,-0.067 5.013,-0.2l-1.138,-16.179Z" style="fill:#fdd411;fill-rule:nonzero;stroke:#fecd03;stroke-width:1.04px;"/><path d="M1105.45,556.36c4.613,-0.092 7.7,0.721 9.259,2.45c0.533,0.854 0.55,1.813 0.054,2.875c-1.138,0.854 -3.759,1.283 -7.859,1.283l-7.066,0c-0.817,1.217 -1.729,4.559 -2.734,10.025l0.2,0c5.263,-0.433 8.109,-0.654 8.546,-0.654c2.279,0.092 3.417,0.863 3.417,2.308c-0.988,2.125 -3.029,3.351 -6.125,3.676c-2.483,0.225 -4.863,0.375 -7.121,0.454l-0.2,4.7c0.208,2.258 1.208,3.387 2.992,3.387c7.329,-0.362 11.812,-0.704 13.446,-1.025c0.72,-0.037 1.083,0.171 1.083,0.629c-0,2.584 -4.35,4.917 -13.046,7.005c-1.312,0.304 -2.583,0.458 -3.817,0.458c-4.841,-0 -7.262,-2.421 -7.262,-7.267c-0,-1.933 0.358,-4.841 1.079,-8.712c-2.296,-0.667 -3.446,-1.504 -3.446,-2.509c0,-0.72 1.425,-1.308 4.275,-1.766c0.854,-4.292 1.784,-7.925 2.788,-10.909l-0.254,0c-3.267,-0.283 -4.9,-1.062 -4.9,-2.333c0.208,-2.075 5.775,-3.429 16.691,-4.075" style="fill:#fdd411;fill-rule:nonzero;"/><path d="M1105.45,556.36c4.613,-0.092 7.7,0.721 9.259,2.45c0.533,0.854 0.55,1.813 0.054,2.875c-1.138,0.854 -3.759,1.283 -7.859,1.283l-7.066,0c-0.817,1.217 -1.729,4.559 -2.734,10.025l0.2,0c5.263,-0.433 8.109,-0.654 8.546,-0.654c2.279,0.092 3.417,0.863 3.417,2.308c-0.988,2.125 -3.029,3.351 -6.125,3.676c-2.483,0.225 -4.863,0.375 -7.121,0.454l-0.2,4.7c0.208,2.258 1.208,3.387 2.992,3.387c7.329,-0.362 11.812,-0.704 13.446,-1.025c0.72,-0.037 1.083,0.171 1.083,0.629c-0,2.584 -4.35,4.917 -13.046,7.005c-1.312,0.304 -2.583,0.458 -3.817,0.458c-4.841,-0 -7.262,-2.421 -7.262,-7.267c-0,-1.933 0.358,-4.841 1.079,-8.712c-2.296,-0.667 -3.446,-1.504 -3.446,-2.509c0,-0.72 1.425,-1.308 4.275,-1.766c0.854,-4.292 1.784,-7.925 2.788,-10.909l-0.254,0c-3.267,-0.283 -4.9,-1.062 -4.9,-2.333c0.208,-2.075 5.775,-3.429 16.691,-4.075Z" style="fill:none;fill-rule:nonzero;stroke:#fecd03;stroke-width:1.04px;"/><path d="M1125.86,572.595c4.9,-0.662 9.521,-1.858 13.871,-3.587c4.35,-1.729 6.525,-3.271 6.525,-4.617c-0,-2.183 -2.479,-3.275 -7.438,-3.275c-5.05,0 -9.162,0.134 -12.333,0.4c-0.417,2.129 -0.625,5.296 -0.625,9.513l0,1.566Zm0.088,19.996c-3.4,0 -5.509,-5.554 -6.325,-16.662c-1.142,-0.95 -1.709,-1.817 -1.709,-2.592c0,-1.254 0.292,-1.833 0.884,-1.737c0.17,0.075 0.379,0.112 0.625,0.112c-0,-4.975 0.562,-8.667 1.679,-11.079c1.404,-3.154 3.962,-4.892 7.662,-5.213c0.684,-0.058 3.4,-0.087 8.146,-0.087c3.763,-0 7.075,0.6 9.942,1.796c3.896,1.633 5.837,4.075 5.837,7.321c0,4.25 -3.729,7.67 -11.191,10.254c-0.742,0.283 -2.563,0.654 -5.471,1.108c3.229,1.675 7.579,5.421 13.046,11.254c1.062,1.217 1.595,2.554 1.595,4.017c0,1.858 -0.595,2.787 -1.795,2.787c-0.625,0 -1.167,-0.162 -1.621,-0.483c-10.367,-10.137 -17.225,-14.646 -20.567,-13.529c0.079,2.508 0.733,5.517 1.967,9.029c0.454,2.471 -0.45,3.704 -2.704,3.704" style="fill:#fdd411;fill-rule:nonzero;"/><path d="M1125.86,572.595c4.9,-0.662 9.521,-1.858 13.871,-3.587c4.35,-1.729 6.525,-3.271 6.525,-4.617c-0,-2.183 -2.479,-3.275 -7.438,-3.275c-5.05,0 -9.162,0.134 -12.333,0.4c-0.417,2.129 -0.625,5.296 -0.625,9.513l0,1.566Zm0.088,19.996c-3.4,0 -5.509,-5.554 -6.325,-16.662c-1.142,-0.95 -1.709,-1.817 -1.709,-2.592c0,-1.254 0.292,-1.833 0.884,-1.737c0.17,0.075 0.379,0.112 0.625,0.112c-0,-4.975 0.562,-8.667 1.679,-11.079c1.404,-3.154 3.962,-4.892 7.662,-5.213c0.684,-0.058 3.4,-0.087 8.146,-0.087c3.763,-0 7.075,0.6 9.942,1.796c3.896,1.633 5.837,4.075 5.837,7.321c0,4.25 -3.729,7.67 -11.191,10.254c-0.742,0.283 -2.563,0.654 -5.471,1.108c3.229,1.675 7.579,5.421 13.046,11.254c1.062,1.217 1.595,2.554 1.595,4.017c0,1.858 -0.595,2.787 -1.795,2.787c-0.625,0 -1.167,-0.162 -1.621,-0.483c-10.367,-10.137 -17.225,-14.646 -20.567,-13.529c0.079,2.508 0.733,5.517 1.967,9.029c0.454,2.471 -0.45,3.704 -2.704,3.704Z" style="fill:none;fill-rule:nonzero;stroke:#fecd03;stroke-width:1.04px;"/><path d="M1187.26,556.36c4.612,-0.092 7.7,0.721 9.258,2.45c0.533,0.854 0.55,1.813 0.054,2.875c-1.137,0.854 -3.758,1.283 -7.858,1.283l-7.067,0c-0.816,1.217 -1.729,4.559 -2.733,10.025l0.2,0c5.262,-0.433 8.108,-0.654 8.546,-0.654c2.279,0.092 3.416,0.863 3.416,2.308c-0.987,2.125 -3.029,3.351 -6.125,3.676c-2.483,0.225 -4.862,0.375 -7.12,0.454l-0.2,4.7c0.208,2.258 1.208,3.387 2.991,3.387c7.329,-0.362 11.813,-0.704 13.446,-1.025c0.721,-0.037 1.083,0.171 1.083,0.629c0,2.584 -4.35,4.917 -13.045,7.005c-1.313,0.304 -2.584,0.458 -3.817,0.458c-4.842,-0 -7.263,-2.421 -7.263,-7.267c0,-1.933 0.359,-4.841 1.08,-8.712c-2.296,-0.667 -3.446,-1.504 -3.446,-2.509c-0,-0.72 1.425,-1.308 4.275,-1.766c0.854,-4.292 1.783,-7.925 2.787,-10.909l-0.254,0c-3.267,-0.283 -4.9,-1.062 -4.9,-2.333c0.208,-2.075 5.775,-3.429 16.692,-4.075" style="fill:#fdd411;fill-rule:nonzero;"/><path d="M1187.26,556.36c4.612,-0.092 7.7,0.721 9.258,2.45c0.533,0.854 0.55,1.813 0.054,2.875c-1.137,0.854 -3.758,1.283 -7.858,1.283l-7.067,0c-0.816,1.217 -1.729,4.559 -2.733,10.025l0.2,0c5.262,-0.433 8.108,-0.654 8.546,-0.654c2.279,0.092 3.416,0.863 3.416,2.308c-0.987,2.125 -3.029,3.351 -6.125,3.676c-2.483,0.225 -4.862,0.375 -7.12,0.454l-0.2,4.7c0.208,2.258 1.208,3.387 2.991,3.387c7.329,-0.362 11.813,-0.704 13.446,-1.025c0.721,-0.037 1.083,0.171 1.083,0.629c0,2.584 -4.35,4.917 -13.045,7.005c-1.313,0.304 -2.584,0.458 -3.817,0.458c-4.842,-0 -7.263,-2.421 -7.263,-7.267c0,-1.933 0.359,-4.841 1.08,-8.712c-2.296,-0.667 -3.446,-1.504 -3.446,-2.509c-0,-0.72 1.425,-1.308 4.275,-1.766c0.854,-4.292 1.783,-7.925 2.787,-10.909l-0.254,0c-3.267,-0.283 -4.9,-1.062 -4.9,-2.333c0.208,-2.075 5.775,-3.429 16.692,-4.075Z" style="fill:none;fill-rule:nonzero;stroke:#fecd03;stroke-width:1.04px;"/><path d="M1211.85,561.373c-0,10.879 0.162,18.921 0.483,24.125c0.913,0.421 2.642,0.625 5.183,0.625c6.155,-0.321 9.563,-3.338 10.225,-9.054c0,-4.104 -1.5,-7.625 -4.5,-10.554c-2.995,-2.938 -6.795,-4.65 -11.391,-5.142Zm-2.65,-5.896c0.55,-0.854 1.187,-1.283 1.908,-1.283l0.683,-0l0,1.483c7.825,0.946 14.25,4.692 19.284,11.221c2.087,3.246 3.133,6.387 3.133,9.429c0,4.708 -1.775,8.367 -5.325,10.967c-3.554,2.6 -8.867,3.9 -15.95,3.9l-0.6,-0c-0.362,1.504 -1.196,2.329 -2.504,2.479c-1.767,-0 -2.65,-1.338 -2.65,-4.017l-0,-0.4c-4.158,-1.9 -6.238,-4.079 -6.238,-6.55c0,-2.029 0.23,-3.379 0.684,-4.046c0.987,2.034 2.591,3.571 4.812,4.617c-0.054,-0.742 -0.083,-2.058 -0.083,-3.958c-0,-9.059 0.454,-15.221 1.367,-18.488c-1.175,-0.058 -3.325,-0.008 -6.438,0.142c-1.367,-0.021 -2.05,-0.721 -2.05,-2.108c0,-0.855 0.808,-1.642 2.438,-2.363c1.616,-0.721 3.62,-1.083 5.991,-1.083c0.534,-0 1.046,0.021 1.538,0.058Z" style="fill:#fdd411;fill-rule:nonzero;stroke:#fecd03;stroke-width:1.04px;"/><path d="M1237.27,576.555c1.308,-10.388 4.537,-18.038 9.683,-22.959c0.421,-0.321 0.875,-0.483 1.367,-0.483c0.741,-0 1.216,0.675 1.425,2.021c-3.075,8.012 -5.013,14.379 -5.809,19.083c-0.287,1.504 -0.429,3 -0.429,4.504c0.321,3.834 1.567,5.75 3.734,5.75c3.625,0 7.137,-6.312 10.537,-18.941c0.892,-3.93 1.929,-5.896 3.104,-5.896c0.592,-0 1.159,0.808 1.709,2.425c1.312,5.046 2.441,9.983 3.391,14.791c0.946,4.821 1.6,8.713 1.963,11.696c-0,1.821 -1.054,2.734 -3.159,2.734c-1.104,-0 -1.995,-0.996 -2.679,-2.992c-0.683,-1.992 -1.316,-6.721 -1.908,-14.183c-1.175,5.562 -3.296,9.933 -6.35,13.104c-2.546,2.45 -4.996,3.671 -7.35,3.671l-0.088,-0c-3.666,-0.092 -6.266,-1.592 -7.804,-4.5c-1.216,-2.584 -1.658,-5.859 -1.337,-9.825" style="fill:#fdd411;fill-rule:nonzero;"/><path d="M1237.27,576.555c1.308,-10.388 4.537,-18.038 9.683,-22.959c0.421,-0.321 0.875,-0.483 1.367,-0.483c0.741,-0 1.216,0.675 1.425,2.021c-3.075,8.012 -5.013,14.379 -5.809,19.083c-0.287,1.504 -0.429,3 -0.429,4.504c0.321,3.834 1.567,5.75 3.734,5.75c3.625,0 7.137,-6.312 10.537,-18.941c0.892,-3.93 1.929,-5.896 3.104,-5.896c0.592,-0 1.159,0.808 1.709,2.425c1.312,5.046 2.441,9.983 3.391,14.791c0.946,4.821 1.6,8.713 1.963,11.696c-0,1.821 -1.054,2.734 -3.159,2.734c-1.104,-0 -1.995,-0.996 -2.679,-2.992c-0.683,-1.992 -1.316,-6.721 -1.908,-14.183c-1.175,5.562 -3.296,9.933 -6.35,13.104c-2.546,2.45 -4.996,3.671 -7.35,3.671l-0.088,-0c-3.666,-0.092 -6.266,-1.592 -7.804,-4.5c-1.216,-2.584 -1.658,-5.859 -1.337,-9.825Z" style="fill:none;fill-rule:nonzero;stroke:#fecd03;stroke-width:1.04px;"/><path d="M1298.27,583.533c1.817,-0.988 2.721,-0.379 2.721,1.821c0,3.683 -5.267,5.529 -15.808,5.529c-9.834,-0 -14.754,-4.483 -14.754,-13.446c-0,-5.675 1.945,-10.658 5.841,-14.954c4.213,-4.65 9.563,-6.979 16.034,-6.979c1.766,-0 3.583,0.416 5.441,1.237c1.859,0.834 2.654,1.95 2.379,3.363c-0.275,1.416 -1.504,1.829 -3.687,1.241c-6.838,-0.912 -11.971,0.692 -15.413,4.813c-3.133,3.796 -4.7,7.662 -4.7,11.592c0,4.67 3.171,7.329 9.517,7.975c3.038,-0 5.413,-0.117 7.133,-0.355c1.721,-0.237 3.484,-0.85 5.296,-1.837" style="fill:#fdd411;fill-rule:nonzero;"/><path d="M1298.27,583.533c1.817,-0.988 2.721,-0.379 2.721,1.821c0,3.683 -5.267,5.529 -15.808,5.529c-9.834,-0 -14.754,-4.483 -14.754,-13.446c-0,-5.675 1.945,-10.658 5.841,-14.954c4.213,-4.65 9.563,-6.979 16.034,-6.979c1.766,-0 3.583,0.416 5.441,1.237c1.859,0.834 2.654,1.95 2.379,3.363c-0.275,1.416 -1.504,1.829 -3.687,1.241c-6.838,-0.912 -11.971,0.692 -15.413,4.813c-3.133,3.796 -4.7,7.662 -4.7,11.592c0,4.67 3.171,7.329 9.517,7.975c3.038,-0 5.413,-0.117 7.133,-0.355c1.721,-0.237 3.484,-0.85 5.296,-1.837Z" style="fill:none;fill-rule:nonzero;stroke:#fecd03;stroke-width:1.04px;"/><path d="M1314.03,575.643l9.087,-0.258c-1.537,-9.646 -2.487,-14.467 -2.85,-14.467c-0.946,0.625 -3.025,5.534 -6.237,14.725m8.233,-23.212c1.708,-0 3.467,6.521 5.267,19.567c1.879,10.083 2.82,16.529 2.82,19.341c0,0.375 -0.275,0.567 -0.825,0.567c-2.033,-0.15 -3.37,-1.688 -4.016,-4.613l-1.625,-6.666c-3.304,0.437 -7.263,0.591 -11.875,0.458c-2.375,7.654 -3.925,11.613 -4.646,11.875c-0.342,0.15 -0.675,0.15 -0.996,0c-2.087,-1.425 -2.971,-3.504 -2.65,-6.237c0,-0.55 0.608,-3.18 1.825,-7.888c-1.483,-0.837 -2.221,-2.592 -2.221,-5.271c0,-0.262 0.075,-0.425 0.225,-0.471c0.154,-0.045 0.279,-0.02 0.371,0.071c0.992,0.95 2.138,1.425 3.446,1.425c4.35,-10.025 8.254,-16.937 11.708,-20.733c0.946,-0.95 2.013,-1.425 3.192,-1.425" style="fill:#fdd411;fill-rule:nonzero;"/><path d="M1314.03,575.643l9.087,-0.258c-1.537,-9.646 -2.487,-14.467 -2.85,-14.467c-0.946,0.625 -3.025,5.534 -6.237,14.725Zm8.233,-23.212c1.708,-0 3.467,6.521 5.267,19.567c1.879,10.083 2.82,16.529 2.82,19.341c0,0.375 -0.275,0.567 -0.825,0.567c-2.033,-0.15 -3.37,-1.688 -4.016,-4.613l-1.625,-6.666c-3.304,0.437 -7.263,0.591 -11.875,0.458c-2.375,7.654 -3.925,11.613 -4.646,11.875c-0.342,0.15 -0.675,0.15 -0.996,0c-2.087,-1.425 -2.971,-3.504 -2.65,-6.237c0,-0.55 0.608,-3.18 1.825,-7.888c-1.483,-0.837 -2.221,-2.592 -2.221,-5.271c0,-0.262 0.075,-0.425 0.225,-0.471c0.154,-0.045 0.279,-0.02 0.371,0.071c0.992,0.95 2.138,1.425 3.446,1.425c4.35,-10.025 8.254,-16.937 11.708,-20.733c0.946,-0.95 2.013,-1.425 3.192,-1.425Z" style="fill:none;fill-rule:nonzero;stroke:#fecd03;stroke-width:1.04px;"/><path d="M1356.81,559.55c5.525,-0.229 8.725,-1.358 9.6,-3.388c-0.096,-0.458 -0.65,-0.687 -1.654,-0.687c-2.771,-0 -5.421,1.362 -7.946,4.075Zm-18.4,-8.088c0.55,0 0.8,0.188 0.754,0.55c-0.045,0.375 -0.162,0.759 -0.354,1.159c-0.229,0.491 -0.279,0.996 -0.141,1.508c0.645,2.392 4.612,3.904 11.904,4.529c3.566,-4.387 8.608,-6.579 15.125,-6.579c4.079,0.417 6.125,2.163 6.125,5.242c-0.096,4.612 -6.163,7.183 -18.204,7.716c-3.455,8.525 -5.184,16.634 -5.184,24.325c0,2.3 -0.462,3.446 -1.396,3.446c-2.712,0.117 -4.187,-2.791 -4.412,-8.716c-0,-7.746 1.396,-14.184 4.187,-19.309c-4.595,-0.721 -8.325,-1.987 -11.195,-3.787c-1.9,-1.179 -2.85,-2.567 -2.85,-4.163c-0,-3.166 1.883,-5.146 5.641,-5.921Z" style="fill:#fdd411;fill-rule:nonzero;stroke:#fecd03;stroke-width:1.04px;"/><path d="M1379.1,555.819c1.959,-0 3.03,3.362 3.217,10.083c0,16.825 -1.421,25.238 -4.271,25.238c-2.108,-0 -3.312,-4.055 -3.616,-12.163c-0,-8.054 1.204,-15.496 3.616,-22.333c0.25,-0.396 0.6,-0.675 1.054,-0.825Z" style="fill:#fdd411;fill-rule:nonzero;stroke:#fecd03;stroke-width:1.04px;"/><path d="M1399.41,564.193c-0.754,1.404 -1.375,2.108 -1.867,2.108c-0.458,0 -0.779,-0.8 -0.971,-2.391c-2.712,1.27 -4.071,4.537 -4.071,9.795c0.284,8.546 3.838,12.817 10.65,12.817c6.305,0 9.638,-4.187 10,-12.558c0,-6.646 -2.287,-10.817 -6.866,-12.504c-1.25,-0.492 -2.525,-0.513 -3.817,-0.059c-1.287,0.454 -2.308,1.388 -3.058,2.792m5.596,-10.054c6.116,-0 10.5,4.3 13.158,12.904c0.421,1.729 0.625,3.692 0.625,5.896c-0,8.883 -3.796,14.675 -11.392,17.375c-2.316,0.604 -4.729,0.729 -7.233,0.366c-9.721,-1.045 -14.583,-6.37 -14.583,-15.979c-0,-7.366 3.55,-12.466 10.65,-15.291c1.787,-3.513 4.708,-5.271 8.775,-5.271" style="fill:#fdd411;fill-rule:nonzero;"/><path d="M1399.41,564.193c-0.754,1.404 -1.375,2.108 -1.867,2.108c-0.458,0 -0.779,-0.8 -0.971,-2.391c-2.712,1.27 -4.071,4.537 -4.071,9.795c0.284,8.546 3.838,12.817 10.65,12.817c6.305,0 9.638,-4.187 10,-12.558c0,-6.646 -2.287,-10.817 -6.866,-12.504c-1.25,-0.492 -2.525,-0.513 -3.817,-0.059c-1.287,0.454 -2.308,1.388 -3.058,2.792Zm5.596,-10.054c6.116,-0 10.5,4.3 13.158,12.904c0.421,1.729 0.625,3.692 0.625,5.896c-0,8.883 -3.796,14.675 -11.392,17.375c-2.316,0.604 -4.729,0.729 -7.233,0.366c-9.721,-1.045 -14.583,-6.37 -14.583,-15.979c-0,-7.366 3.55,-12.466 10.65,-15.291c1.787,-3.513 4.708,-5.271 8.775,-5.271Z" style="fill:none;fill-rule:nonzero;stroke:#fecd03;stroke-width:1.04px;"/><path d="M1444.06,552.43c2.258,-0 4.358,3.466 6.296,10.395c0.379,1.996 0.567,4.388 0.567,7.18c-0,13.65 -1.859,20.479 -5.58,20.479c-2.166,-0 -6.258,-4.709 -12.279,-14.129c-2.6,-3.855 -4.233,-5.946 -4.896,-6.267c-0.82,11.375 -1.387,17.687 -1.712,18.942c-0.133,0.362 -0.404,0.52 -0.825,0.483c-2.754,-1.233 -4.129,-3.358 -4.129,-6.379c-0,-11.279 1.566,-19.092 4.7,-23.442c0.4,-0.454 0.862,-0.521 1.396,-0.2c2.504,2.088 5.25,5.692 8.229,10.796c2.85,4.479 5.462,8.012 7.833,10.596c1.292,-0 1.946,-3.796 1.967,-11.392c-0,-7.2 -0.663,-12.725 -1.996,-16.579c-0.133,-0.321 0.008,-0.483 0.429,-0.483" style="fill:#fdd411;fill-rule:nonzero;"/><path d="M1444.06,552.43c2.258,-0 4.358,3.466 6.296,10.395c0.379,1.996 0.567,4.388 0.567,7.18c-0,13.65 -1.859,20.479 -5.58,20.479c-2.166,-0 -6.258,-4.709 -12.279,-14.129c-2.6,-3.855 -4.233,-5.946 -4.896,-6.267c-0.82,11.375 -1.387,17.687 -1.712,18.942c-0.133,0.362 -0.404,0.52 -0.825,0.483c-2.754,-1.233 -4.129,-3.358 -4.129,-6.379c-0,-11.279 1.566,-19.092 4.7,-23.442c0.4,-0.454 0.862,-0.521 1.396,-0.2c2.504,2.088 5.25,5.692 8.229,10.796c2.85,4.479 5.462,8.012 7.833,10.596c1.292,-0 1.946,-3.796 1.967,-11.392c-0,-7.2 -0.663,-12.725 -1.996,-16.579c-0.133,-0.321 0.008,-0.483 0.429,-0.483Z" style="fill:none;fill-rule:nonzero;stroke:#fecd03;stroke-width:1.04px;"/><rect x="892.867" y="293.858" width="81.371" height="50.371" style="fill:#98ca40;stroke:#99ca3c;stroke-width:12.5px;"/></g><defs><linearGradient id="_Linear1" x1="0" y1="0" x2="1" y2="0" gradientUnits="userSpaceOnUse" gradientTransform="matrix(0,-299.554,299.554,-0,506.494,500.83)"><stop offset="0" style="stop-color:#2fc5f4;stop-opacity:1"/><stop offset="0.97" style="stop-color:#0097dc;stop-opacity:1"/><stop offset="1" style="stop-color:#0097dc;stop-opacity:1"/></linearGradient><linearGradient id="_Linear2" x1="0" y1="0" x2="1" y2="0" gradientUnits="userSpaceOnUse" gradientTransform="matrix(0,-484.904,484.904,-0,238.095,597.166)"><stop offset="0" style="stop-color:#2fc5f4;stop-opacity:1"/><stop offset="0.97" style="stop-color:#0097dc;stop-opacity:1"/><stop offset="1" style="stop-color:#0097dc;stop-opacity:1"/></linearGradient><linearGradient id="_Linear3" x1="0" y1="0" x2="1" y2="0" gradientUnits="userSpaceOnUse" gradientTransform="matrix(0,-105.102,105.102,-0,352.261,205.405)"><stop offset="0" style="stop-color:#2fc5f4;stop-opacity:1"/><stop offset="0.97" style="stop-color:#0097dc;stop-opacity:1"/><stop offset="1" style="stop-color:#0097dc;stop-opacity:1"/></linearGradient><linearGradient id="_Linear4" x1="0" y1="0" x2="1" y2="0" gradientUnits="userSpaceOnUse" gradientTransform="matrix(0,-21.4153,21.4153,-0,440.913,195.988)"><stop offset="0" style="stop-color:#2fc5f4;stop-opacity:1"/><stop offset="0.97" style="stop-color:#0097dc;stop-opacity:1"/><stop offset="1" style="stop-color:#0097dc;stop-opacity:1"/></linearGradient></defs></svg>