<?xml version="1.0" encoding="UTF-8" standalone="no"?><!DOCTYPE svg PUBLIC "-//W3C//DTD SVG 1.1//EN" "http://www.w3.org/Graphics/SVG/1.1/DTD/svg11.dtd"><svg width="100%" height="100%" viewBox="0 0 1155 819" version="1.1" xmlns="http://www.w3.org/2000/svg" xmlns:xlink="http://www.w3.org/1999/xlink" xml:space="preserve" xmlns:serif="http://www.serif.com/" style="fill-rule:evenodd;clip-rule:evenodd;stroke-linejoin:round;stroke-miterlimit:2;"><g id="Layer-1" serif:id="Layer 1"><path d="M277.433,695.601l5.484,0l-0,24.573c-0,5.687 3.655,9.139 9.748,9.139c4.874,0.406 9.138,-3.046 9.748,-7.92l-0,-25.995l5.077,0l-0,24.573c-0,8.53 -6.093,14.216 -15.029,14.216c-7.717,0.609 -14.418,-5.28 -15.028,-12.997l0,-25.589Z" style="fill:#175fab;fill-rule:nonzero;"/><path d="M325.564,695.601l5.077,0l16.856,24.776c1.422,2.031 3.25,5.484 3.25,5.484c-0,-0 -0.204,-3.25 -0.204,-5.484l0,-24.776l5.078,0l-0,38.18l-5.078,-0l-16.856,-24.776c-1.421,-2.031 -3.249,-5.483 -3.249,-5.483c0,-0 0.203,3.249 0.203,5.483l0,24.776l-5.077,-0l0,-38.18Z" style="fill:#175fab;fill-rule:nonzero;"/><rect x="374.304" y="695.601" width="5.483" height="38.18" style="fill:#175fab;"/><path d="M393.394,695.601l5.686,0l9.342,27.01c0.61,2.031 1.422,5.077 1.422,5.077c0.406,-1.827 0.812,-3.452 1.421,-5.077l9.748,-27.01l5.687,0l-13.81,38.18l-5.686,-0l-13.81,-38.18Z" style="fill:#175fab;fill-rule:nonzero;"/><path d="M440.103,695.601l22.136,0l0,4.671l-16.652,0l-0,11.982l13.606,0l0,4.671l-13.606,0l-0,11.982l17.668,-0l-0,4.874l-23.152,-0l0,-38.18Z" style="fill:#175fab;fill-rule:nonzero;"/><path d="M492.296,713.879c3.452,0.203 6.499,-2.437 6.702,-5.89l-0,-1.015c0.203,-2.437 -1.016,-4.671 -3.047,-5.686c-1.624,-0.813 -3.452,-1.219 -5.077,-0.813l-6.092,0l-0,13.607l7.514,-0l-0,-0.203Zm-12.997,-18.278l11.575,0c2.437,-0.203 4.874,0.203 7.311,0.813c5.687,2.64 7.921,9.545 5.28,15.028c-1.218,2.437 -3.249,4.468 -5.889,5.483c0.406,0.609 0.812,1.219 1.219,1.828l8.123,14.825l-6.093,-0l-8.123,-15.028l-8.123,-0l-0,15.028l-5.484,-0l0,-38.18l0.204,0l-0,0.203Z" style="fill:#175fab;fill-rule:nonzero;"/><path d="M521.743,725.251c2.64,2.641 6.093,4.062 9.748,4.265c3.249,0.406 6.296,-2.031 6.702,-5.483c-0,-8.123 -18.481,-6.296 -18.481,-18.074c0,-6.093 5.077,-10.561 12.388,-10.561c4.062,0 7.921,1.422 10.967,3.859l-2.437,4.468c-2.437,-2.031 -5.28,-3.25 -8.53,-3.25c-3.452,-0.406 -6.498,2.031 -6.905,5.484c0,7.92 18.481,5.686 18.481,18.074c0,5.686 -4.468,10.56 -12.185,10.56c-4.671,0 -9.342,-1.827 -12.794,-5.077l3.046,-4.265Z" style="fill:#175fab;fill-rule:nonzero;"/><rect x="559.314" y="695.601" width="5.483" height="38.18" style="fill:#175fab;"/><path d="M590.995,700.272l-12.998,0l0,-4.671l31.478,0l0,4.671l-12.997,0l-0,33.509l-5.483,-0l-0,-33.509Z" style="fill:#175fab;fill-rule:nonzero;"/><path d="M631.002,717.737l-12.794,-21.73l6.092,0l6.905,12.389c1.219,2.03 2.437,4.874 2.437,4.874c0,-0 1.219,-2.641 2.437,-4.874l6.905,-12.389l6.093,0l-12.795,21.73l0,16.044l-5.483,-0l-0,-16.044l0.203,0Z" style="fill:#175fab;fill-rule:nonzero;"/><path d="M665.12,713.473c0,-3.859 3.046,-7.108 6.905,-7.311c3.859,-0.203 7.108,3.046 7.311,6.904c0.203,3.859 -3.046,7.108 -6.905,7.311l-0.203,0c-3.859,0 -6.905,-2.843 -6.905,-6.701c-0.203,-0 -0.203,-0 -0.203,-0.203" style="fill:#175fab;fill-rule:nonzero;"/><path d="M712.032,700.881c0,0 -0.812,3.25 -1.421,5.484l-4.265,12.185l11.576,-0l-4.265,-12.185c-0.609,-2.031 -1.015,-3.656 -1.625,-5.484Zm7.311,21.933l-14.215,0l-3.656,10.967l-5.483,-0l13.606,-38.18l5.687,0l13.606,38.18l-5.483,-0l-4.062,-10.967Z" style="fill:#175fab;fill-rule:nonzero;"/><path d="M741.683,695.601l5.483,0l-0,24.573c-0,5.687 3.655,9.139 9.748,9.139c4.874,0.406 9.139,-3.046 9.748,-7.92l-0,-25.995l5.483,0l0,24.573c0,8.53 -6.092,14.216 -15.028,14.216c-7.717,0.609 -14.419,-5.28 -15.028,-12.997l-0,-25.589l-0.406,0Z" style="fill:#175fab;fill-rule:nonzero;"/><path d="M789.814,725.251c2.64,2.641 6.092,4.062 9.748,4.265c3.249,0.406 6.295,-2.031 6.701,-5.483c0,-8.123 -18.48,-6.296 -18.48,-18.074c-0,-6.093 5.077,-10.561 12.388,-10.561c4.061,0 7.92,1.422 10.966,3.859l-2.437,4.468c-2.437,-2.031 -5.28,-3.25 -8.529,-3.25c-3.453,-0.406 -6.499,2.031 -6.905,5.484c-0,7.92 18.481,5.686 18.481,18.074c-0,5.686 -4.468,10.56 -12.185,10.56c-4.671,0 -9.342,-1.827 -12.795,-5.077l3.047,-4.265Z" style="fill:#175fab;fill-rule:nonzero;"/><path d="M835.101,700.272l-12.997,0l-0,-4.671l31.478,0l-0,4.671l-12.998,0l0,33.509l-5.483,-0l0,-33.509Z" style="fill:#175fab;fill-rule:nonzero;"/><path d="M880.186,713.879c3.452,0.203 6.498,-2.437 6.702,-5.89l-0,-1.015c0.203,-2.437 -1.016,-4.671 -3.047,-5.686c-1.624,-0.813 -3.452,-1.219 -5.077,-0.813l-6.092,0l-0,13.607l7.514,-0l-0,-0.203Zm-12.998,-18.278l11.576,0c2.437,-0.203 4.874,0.203 7.311,0.813c5.687,2.64 7.92,9.545 5.28,15.028c-1.218,2.437 -3.249,4.468 -5.889,5.483c0.406,0.609 0.812,1.219 1.218,1.828l8.124,14.825l-6.093,-0l-8.123,-15.028l-8.123,-0l-0,15.028l-5.484,-0l0,-38.18l0.203,0l0,0.203Z" style="fill:#175fab;fill-rule:nonzero;"/><path d="M921.209,700.881c-0,0 -0.813,3.25 -1.422,5.484l-4.265,12.185l11.576,-0l-4.265,-12.185c-0.406,-2.031 -1.015,-3.656 -1.624,-5.484Zm7.311,21.933l-14.216,0l-3.656,10.967l-5.483,-0l13.607,-38.18l5.686,0l13.607,38.18l-5.484,-0l-4.061,-10.967Z" style="fill:#175fab;fill-rule:nonzero;"/><path d="M951.468,695.601l5.483,0l0,33.306l16.856,-0l0,4.874l-22.339,-0l0,-38.18Z" style="fill:#175fab;fill-rule:nonzero;"/><rect x="988.023" y="695.601" width="5.483" height="38.18" style="fill:#175fab;"/><path d="M1023.36,700.881c-0,0 -0.813,3.25 -1.422,5.484l-4.265,12.185l11.576,-0l-4.265,-12.185c-0.203,-2.031 -0.812,-3.859 -1.624,-5.484Zm7.311,21.933l-14.216,0l-3.656,10.967l-5.483,-0l13.607,-38.18l5.686,0l13.607,38.18l-5.28,-0l-4.265,-10.967Z" style="fill:#175fab;fill-rule:nonzero;"/><path d="M868.001,645.846c17.262,-0 31.681,-13.404 31.681,-33.306c-0,-19.902 -14.419,-33.306 -31.681,-33.306c-17.262,0 -31.681,13.607 -31.681,33.306c-0,19.699 14.216,33.306 31.681,33.306m-0.203,-89.154c32.696,-0 58.894,23.355 58.894,55.848c-0,32.493 -26.401,55.848 -58.691,55.848c-32.291,0 -58.895,-22.948 -58.895,-55.848c0,-32.9 25.995,-55.848 58.692,-55.848" style="fill:#175fab;fill-rule:nonzero;"/><path d="M937.658,559.332l25.792,0l0,12.388c0,3.859 -0.203,7.311 -0.203,7.311l0.203,0c7.311,-14.013 22.136,-22.745 38.18,-22.136c23.558,0 37.164,12.388 37.164,40.617l0,68.642l-26.401,0l0,-63.159c0,-12.997 -3.249,-21.73 -16.856,-21.73c-13.403,0 -25.182,8.936 -28.634,21.73c-1.422,4.671 -2.031,9.342 -1.828,14.216l-0,48.943l-26.604,0l-0,-106.822l-0.813,0Z" style="fill:#175fab;fill-rule:nonzero;"/><path d="M658.215,619.851c0,12.997 -9.951,28.026 -24.167,28.026c-10.966,-0 -16.043,-6.702 -16.043,-13.81c-0,-14.825 22.136,-16.653 35.742,-16.653l4.468,0l0,2.437Zm-18.074,-63.159c-18.075,-0 -31.072,-0 -37.164,0.203c-0,10.56 7.514,19.699 17.871,21.73l16.856,0c11.779,0 20.511,4.874 20.511,18.684l0,1.421l-3.655,0c-17.465,0 -63.159,2.437 -63.159,36.352c-0,21.527 17.262,33.306 36.352,33.306c24.167,0 32.696,-18.684 32.29,-18.684l0.203,0c0,0 -0.203,3.25 -0.203,7.514l0,8.733l24.573,0l0,-66.815c-0.203,-27.213 -16.653,-42.444 -44.475,-42.444" style="fill:#175fab;fill-rule:nonzero;"/><path d="M185.843,582.687l-44.882,-0l0,-42.039l64.784,0l-0,-23.354l-91.794,-0l-0,148.86l27.01,0l0,-60.113l31.072,0c8.529,-4.671 14.013,-13.606 13.81,-23.354" style="fill:#175fab;fill-rule:nonzero;"/><path d="M771.536,585.53l0,80.218l26.604,-0l-0,-106.416c-14.622,-0.203 -26.401,11.576 -26.604,26.198" style="fill:#175fab;fill-rule:nonzero;"/><path d="M753.462,643.612c-7.311,-0 -21.121,-2.437 -21.121,-19.902l-0,-41.633l24.167,0l-0,-21.12l-24.167,-0l-0,-35.743c-12.591,0 -23.558,8.936 -25.995,21.527l0,14.216l-14.622,-0l0,21.12l13.81,0l-0,44.679c-0,35.743 29.65,40.21 44.475,40.21c2.64,0 5.483,-0.203 8.123,-0.609l0,-23.354c-1.421,0.406 -3.046,0.609 -4.67,0.609" style="fill:#175fab;fill-rule:nonzero;"/><path d="M354.402,646.049c-15.637,-0 -26.604,-13.404 -26.604,-33.509c0,-21.121 12.185,-32.9 27.01,-32.9c17.872,0 26.604,16.247 26.604,32.9c-0.406,23.558 -13.403,33.509 -27.01,33.509m25.995,-104.588l-0,22.339c-0,3.249 0.203,6.092 0.203,6.092l-0.609,0c-0,0 -7.311,-13.606 -30.869,-13.606c-28.432,-0 -48.334,22.136 -48.334,55.848c-0,32.899 18.481,55.848 47.522,55.848c24.573,-0 33.508,-18.075 33.508,-18.075l0.203,0c0,0 -0.203,3.047 -0.203,6.905l0,8.733l25.183,-0l-0,-150.485c-14.622,-0 -26.604,11.779 -26.604,26.401" style="fill:#175fab;fill-rule:nonzero;"/><path d="M799.155,538.211c0,7.108 -5.889,12.998 -12.997,12.998c-7.108,-0 -12.997,-5.89 -12.997,-12.998c-0,-7.108 5.889,-12.997 12.997,-12.997c7.108,-0.203 12.794,5.686 12.997,12.997c0,-0.203 0,-0.203 0,0" style="fill:#175fab;fill-rule:nonzero;"/><path d="M244.331,577.203c11.779,0 20.917,7.921 21.12,22.137l-46.506,-0c2.437,-13.81 11.779,-22.137 25.386,-22.137m35.539,57.676c-8.529,6.702 -19.09,10.561 -29.853,10.967c-16.044,-0 -30.463,-9.748 -32.087,-28.026l73.719,0c0,0 0.609,-7.311 0.609,-10.357c0,-28.026 -16.652,-50.771 -47.521,-50.771c-31.681,-0 -54.427,22.948 -54.427,55.848c0,30.259 22.137,55.848 57.473,55.848c22.745,0 38.992,-15.434 44.069,-21.121l-11.982,-12.388Z" style="fill:#175fab;fill-rule:nonzero;"/><path d="M471.581,577.203c11.779,0 20.918,7.921 21.121,22.137l-46.709,-0c2.437,-13.81 11.982,-22.137 25.588,-22.137m35.337,57.676c-8.53,6.702 -19.09,10.561 -29.853,10.967c-16.044,-0 -30.463,-9.748 -32.088,-28.026l73.72,0c-0,0 0.609,-7.311 0.609,-10.357c0,-28.026 -16.653,-50.771 -47.522,-50.771c-31.681,-0 -54.426,22.948 -54.426,55.848c-0,30.259 22.136,55.848 57.473,55.848c22.745,0 38.992,-15.434 44.069,-21.121l-11.982,-12.388Z" style="fill:#175fab;fill-rule:nonzero;"/><path d="M531.288,559.332l25.792,0l-0,17.262c-0,3.859 -0.203,7.514 -0.203,7.514l0.203,0c4.874,-15.434 17.465,-27.416 33.915,-27.416c1.624,-0 3.249,0.203 4.874,0.203l-0,26.401c-0,-0 -2.641,-0.203 -6.296,-0.203c-13.607,-0 -25.589,9.139 -29.041,22.339c-1.828,5.483 -2.64,11.373 -2.437,17.262l0,43.46l-26.807,0l-0,-106.822Z" style="fill:#175fab;fill-rule:nonzero;"/><path d="M937.658,559.332l25.792,0l0,12.388c0,3.859 -0.203,7.311 -0.203,7.311l0.203,0c7.311,-14.013 22.136,-22.745 38.18,-22.136c23.558,0 37.164,12.388 37.164,40.617l0,68.642l-26.401,0l0,-63.159c0,-12.997 -3.249,-21.73 -16.856,-21.73c-13.403,0 -25.182,8.936 -28.634,21.73c-1.422,4.671 -2.031,9.342 -1.828,14.216l-0,48.943l-26.604,0l-0,-106.822l-0.813,0Z" style="fill:#175fab;fill-rule:nonzero;"/><path d="M515.551,314.741c-57.002,-6.795 -114.76,-0.377 -168.742,19.63l0,118.157c53.982,-19.63 111.74,-26.425 168.742,-19.252l0,-118.535Z" style="fill:#175fab;fill-rule:nonzero;"/><path d="M418.911,269.819l0.755,21.517l16.233,-13.212l16.987,13.212l0,-21.517l20.008,-4.53l-16.233,-13.59l9.06,-18.498l-20.762,4.53l-9.06,-18.875l-9.06,18.875l-20.763,-4.53l9.06,18.498l-16.232,13.59l20.007,4.53Z" style="fill:#175fab;fill-rule:nonzero;"/><path d="M621.251,351.736l-0,110.607c-38.883,9.438 -106.832,13.968 -105.7,-13.59l0,9.438c-1.132,27.557 66.817,23.027 105.7,13.59c61.91,-15.1 124.197,-42.658 186.107,-30.955l-0,-114.76c-61.91,-12.835 -124.197,12.457 -186.107,25.67" style="fill:#175fab;fill-rule:nonzero;"/><path d="M678.253,286.051l-5.285,19.253l18.498,-7.928l12.079,16.233l4.908,-18.875l19.63,0.377l-11.703,-16.232l12.835,-14.723l-19.63,-1.132l-3.775,-19.63l-13.212,15.1l-17.365,-9.06l3.398,20.007l-18.12,7.55l17.742,9.06Z" style="fill:#175fab;fill-rule:nonzero;"/><path d="M551.791,414.401l-0,21.14l16.61,-13.213l16.232,13.213l0.755,-21.14l20.385,-4.53l-16.61,-13.59l9.06,-19.253l-20.762,4.53l-9.06,-18.497l-9.06,18.497l-20.763,-4.53l9.06,19.253l-16.232,13.59l20.385,4.53Z" style="fill:#175fab;fill-rule:nonzero;"/><path d="M621.251,120.707c-38.128,6.04 -103.812,12.457 -105.7,-6.795c1.51,-9.438 66.44,-11.325 31.332,-23.028c-40.392,-12.835 -138.164,-7.172 -200.074,15.855l0,115.892c53.605,-20.385 111.74,-27.18 168.742,-20.385l0,-79.652c-1.132,20.762 66.817,13.968 105.7,7.928l-0,113.627c61.91,-11.703 124.197,-35.485 186.107,-20.385l-0,-117.402c-61.91,-16.988 -124.197,4.53 -186.107,14.345" style="fill:#175fab;fill-rule:nonzero;"/><path d="M551.791,207.909l-0,20.762l16.61,-12.835l16.232,12.835l0.755,-20.762l20.385,-4.908l-16.61,-12.835l9.06,-19.252l-20.762,4.53l-9.06,-19.253l-9.06,19.253l-20.763,-4.53l9.06,19.252l-16.232,12.835l20.385,4.908Z" style="fill:#175fab;fill-rule:nonzero;"/><path d="M551.791,308.701l-0,21.14l16.61,-12.835l16.232,12.835l0.755,-21.14l20.385,-4.53l-16.61,-13.59l9.06,-18.875l-20.762,4.908l-9.06,-19.253l-9.06,19.253l-20.763,-4.908l9.06,18.875l-16.232,13.59l20.385,4.53Z" style="fill:#175fab;fill-rule:nonzero;"/></g></svg>