<?xml version="1.0" encoding="UTF-8" standalone="no"?><!DOCTYPE svg PUBLIC "-//W3C//DTD SVG 1.1//EN" "http://www.w3.org/Graphics/SVG/1.1/DTD/svg11.dtd"><svg width="100%" height="100%" viewBox="0 0 1155 819" version="1.1" xmlns="http://www.w3.org/2000/svg" xmlns:xlink="http://www.w3.org/1999/xlink" xml:space="preserve" xmlns:serif="http://www.serif.com/" style="fill-rule:evenodd;clip-rule:evenodd;stroke-linejoin:round;stroke-miterlimit:2;"><g id="Layer-1" serif:id="Layer 1"><clipPath id="_clip1"><rect id="ufv-logo.eps" x="117.246" y="261.552" width="919.675" height="295.647"/></clipPath><g clip-path="url(#_clip1)"><g><path d="M132.371,448.028c-4.097,-5 -5.26,-12.058 -5.262,-20.482l-0,-40.436c0.002,-4.191 -0.011,-6.741 -0.472,-8.303c-0.473,-1.539 -1.224,-2.184 -3.114,-2.922l-6.277,-1.961l-0,-3.356l30.985,0l-0,3.356l-6.253,1.951c-1.915,0.748 -2.664,1.393 -3.137,2.932c-0.46,1.562 -0.477,4.112 -0.472,8.303l0,36.245c0.101,15.615 3.941,25.292 21.926,25.373c6.128,-0.005 10.366,-1.032 13.151,-4.712c2.806,-3.689 4.217,-10.281 4.211,-21.524l0,-35.382c0.006,-4.745 -0.017,-7.366 -0.471,-8.803c-0.455,-1.391 -1.148,-1.779 -3.113,-2.422l-6.28,-1.961l-0,-3.356l29.63,0l-0,3.356l-6.266,1.96c-1.905,0.651 -2.636,1.126 -3.093,2.357c-0.46,1.265 -0.511,3.492 -0.506,7.373c0,0.471 0.002,0.969 0.002,1.496l0,32.299c-0.002,14.292 -2.494,23.405 -7.926,28.976c-5.447,5.565 -13.688,7.414 -24.888,7.414c-11.291,0.006 -18.267,-2.768 -22.375,-7.771Z" style="fill:#008e58;fill-rule:nonzero;"/><path d="M648.628,453.497l28.079,0l0,-2.223l-4.851,-1.517c-3.736,-1.21 -3.636,-2.219 -3.636,-8.279l0,-9.293c0,-6.264 0.707,-6.566 3.436,-12.021l9.896,-18.179c5.555,-10.203 5.658,-11.213 10.506,-13.233l1.716,-0.705l0,-2.222l-21.415,-0l-0,2.222l4.648,1.919c1.413,0.605 2.526,0.907 2.526,2.222c-0,1.614 -1.413,4.544 -4.545,11.109l-7.574,15.96c-0.506,1.108 -0.81,1.513 -1.413,1.513c-0.61,0 -1.216,-0.706 -1.922,-2.223l-10.806,-22.827c-0.607,-1.209 -1.313,-2.32 -1.313,-3.634c-0,-1.213 0.606,-1.515 3.029,-2.526l3.938,-1.513l0,-2.222l-26.563,-0l-0,2.222l2.426,1.111c4.341,2.018 5.654,5.755 11.512,17.069l7.677,14.949c2.019,4.544 3.029,6.362 3.029,11.312l-0,8.99c-0,5.959 -0.2,7.272 -3.432,8.279l-4.948,1.517l-0,2.223Zm-63.533,0l28.989,0l-0,-2.223l-4.948,-1.517c-4.039,-1.21 -3.942,-2.32 -3.942,-9.293l-0,-46.259c-0,-3.029 -0,-3.836 4.345,-3.836c7.777,0 9.29,0.807 11.819,5.351l3.632,6.668l3.335,-0l0,-15.757l-0.909,-0.806l-55.653,-0l-0.91,0.806l0,15.757l3.332,-0l3.739,-6.668c2.422,-4.24 3.939,-5.351 11.716,-5.351c4.341,0 4.341,0.807 4.341,3.836l0,46.259c0,6.973 0,8.083 -4.038,9.293l-4.848,1.517l-0,2.223Zm-44.644,0l26.967,0l-0,-2.223l-4.445,-1.517c-3.532,-1.108 -3.432,-2.523 -3.432,-8.279l-0,-44.645c-0,-4.95 -0,-6.061 3.432,-7.172l4.445,-1.614l-0,-2.222l-26.967,-0l0,2.222l4.445,1.614c3.332,1.01 3.436,2.323 3.436,7.172l-0,44.645c-0,5.654 -0,7.171 -3.436,8.279l-4.445,1.517l0,2.223Zm-9.989,-49.897l3.232,-7.777c0.307,-0.706 0.707,-1.718 0.707,-2.626c-0,-4.949 -7.271,-8.687 -18.987,-8.687c-11.715,0 -22.728,7.576 -22.728,20.302c0,23.232 33.331,12.727 33.331,32.826c0,6.567 -3.835,11.918 -10.399,11.918c-13.335,0 -16.264,-11.209 -17.477,-16.664l-1.816,-0l-4.042,8.886c-0.503,1.113 -0.81,2.223 -0.81,3.335c0,5.757 10.913,9.696 19.093,9.696c15.151,0 26.161,-8.183 26.161,-22.321c-0,-24.443 -34.544,-15.25 -34.544,-32.929c-0,-5.555 4.241,-9.797 9.999,-9.797c11.413,0 14.948,8.686 16.461,13.838l1.819,-0Zm-84.437,-9.395c-0,-2.929 -0,-3.836 6.362,-3.836c9.19,0 14.139,4.343 14.139,14.241c-0,9.898 -6.766,12.628 -15.15,12.628c-4.949,-0 -5.351,-0 -5.351,-3.232l-0,-19.801Zm-19.091,59.292l26.465,0l-0,-2.223l-3.841,-1.517c-3.635,-1.413 -3.533,-2.422 -3.533,-9.293l-0,-15.551c-0,-2.627 -0,-3.131 2.525,-3.131l1.615,-0c2.627,-0 3.536,0.604 5.96,4.443l14.24,23.331c1.515,2.528 3.838,3.941 6.467,3.941l11.716,0l-0,-2.223c-3.839,-2.524 -6.668,-5.756 -11.516,-12.927l-11.412,-16.665c-0.503,-0.709 -1.113,-1.418 -1.113,-2.224c-0,-2.626 13.938,-2.325 13.938,-18.484c-0,-13.131 -8.484,-15.149 -19.795,-15.149l-31.716,-0l0,2.222l4.444,1.614c3.333,1.01 3.433,2.323 3.433,6.97l0,43.833c0,6.367 -0.1,8.185 -3.433,9.293l-4.444,1.517l0,2.223Zm-58.785,0l52.623,0l0.809,-0.811l0,-18.074l-3.232,-0l-3.03,5.756c-3.636,6.764 -5.149,8.585 -15.655,8.585c-12.424,-0 -12.424,-1.821 -12.424,-6.666l-0,-18.08c-0,-3.738 0.102,-4.241 3.941,-4.241l7.268,-0c4.043,-0 4.043,0.604 6.162,4.947l1.619,3.635l2.222,-0l-0,-21.614l-2.222,0l-1.619,3.737c-1.918,4.038 -2.119,4.744 -6.059,4.744l-7.068,0c-3.941,0 -4.244,-0.1 -4.244,-3.532l-0,-16.465c-0,-4.545 0.303,-5.049 10.707,-5.049c10.301,0 11.108,0.708 14.747,7.069l2.727,4.95l3.231,-0l0,-15.857l-0.809,-0.706l-49.694,-0l0,2.222l4.344,1.513c3.536,1.313 3.536,2.323 3.536,7.475l0,44.443c0,5.756 0,7.069 -3.436,8.279l-4.444,1.517l0,2.223Zm-42.117,0l8.482,0l0.709,-0.811c1.008,-3.13 7.17,-20.098 10.807,-29.995l7.98,-20.908c1.918,-5.051 3.232,-10.507 6.361,-11.919l4.043,-1.817l0,-2.222l-22.223,-0l0,2.222l5.051,2.018c1.919,0.808 2.828,1.312 2.828,2.931c0,1.716 -5.556,19.392 -9.695,31.211l-5.457,15.655c-0.604,1.815 -0.604,1.815 -1.211,1.815c-0.607,-0 -1.011,-1.213 -1.515,-2.926l-11.919,-38.383c-1.212,-3.84 -2.119,-7.171 -2.119,-7.878c-0,-1.314 0.605,-1.718 3.031,-2.728l4.544,-1.715l-0,-2.222l-26.768,-0l0,2.222l3.132,1.513c3.939,1.92 4.443,4.344 7.273,12.93l9.493,28.786c1.718,5.253 3.938,13.231 6.364,21.41l0.809,0.811Zm-57.674,0l26.968,0l0,-2.223l-4.443,-1.517c-3.537,-1.108 -3.436,-2.523 -3.436,-8.279l0,-44.645c0,-4.95 0,-6.061 3.436,-7.172l4.443,-1.614l0,-2.222l-26.968,-0l-0,2.222l4.446,1.614c3.33,1.01 3.433,2.323 3.433,7.172l-0,44.645c-0,5.654 -0,7.171 -3.433,8.279l-4.446,1.517l-0,2.223Zm-73.226,0l23.534,0l0,-2.223l-5.959,-2.123c-4.242,-1.41 -4.242,-2.926 -4.242,-7.773l-0,-36.161c-0,-1.414 -0,-2.426 0.907,-2.426c0.506,0 1.111,0.91 2.426,2.626l23.636,31.615c5.353,7.173 10.604,14.544 11.514,15.654l1.108,0.811l5.659,0l0.705,-0.811c-0,-2.118 -0.099,-8.28 -0.099,-14.339l-0,-39.796c-0,-6.668 0.809,-7.678 5.149,-9.393l2.929,-1.111l0,-2.222l-23.129,-0l0,2.222l5.757,2.221c3.939,1.615 4.042,2.525 4.042,7.17l-0,35.05c-0,1.818 -0,2.828 -0.809,2.828c-0.405,0 -0.809,-0.506 -1.616,-1.615l-21.211,-28.789c-5.656,-7.676 -11.111,-15.654 -13.13,-18.381l-1.111,-0.706l-15.455,-0l-0,2.222l4.042,2.725c2.524,1.718 3.433,3.333 3.433,6.565l-0,42.22c-0,5.859 -0,8.486 -3.637,9.899l-4.443,1.818l-0,2.223Z" style="fill:#008e58;fill-rule:nonzero;"/><path d="M249.557,501.083l16.002,0l0,-4.297l-10.741,0l-0,-8.285l9.248,0l0,-4.293l-9.248,-0l-0,-7.718l9.292,-0l1.403,-4.297l-15.956,0l0,28.89Zm-32.92,0l5.259,0l0,-12.494l14.028,0l-0,12.494l5.306,0l-0,-28.89l-5.306,0l-0,11.926l-14.028,0l0,-11.926l-5.259,0l0,28.89Zm-17.973,0l5.26,0l0,-24.593l7.759,-0l1.36,-4.297l-22.796,0l0,4.297l8.417,-0l-0,24.593Zm-36.908,0l5.26,0l0,-12.582l9.206,0l0,-4.293l-9.206,-0l0,-7.718l9.382,-0l1.359,-4.297l-16.001,0l0,28.89Zm-20.339,-3.99c-5.349,0 -8.942,-3.812 -8.942,-10.345c-0,-6.575 3.593,-10.39 8.942,-10.39c5.48,0 8.941,3.989 8.941,10.39c0,6.533 -3.637,10.345 -8.941,10.345Zm0,4.428c8.415,0 14.554,-5.918 14.554,-14.773c0,-8.721 -6.006,-14.818 -14.554,-14.818c-8.548,0 -14.554,6.05 -14.554,14.818c0,8.855 6.049,14.773 14.554,14.773Z" style="fill:#008e58;fill-rule:nonzero;"/><path d="M591.449,261.6c-55.232,0.479 -104.035,25.39 -145.047,74.041c-0.337,0.398 -0.323,0.986 0.038,1.366c0.356,0.381 0.943,0.431 1.359,0.12c52.764,-39.28 102.132,-56.188 155.355,-53.213c64.188,3.589 132.331,36.698 208.324,101.221c0.41,0.347 1.017,0.321 1.396,-0.062c0.379,-0.383 0.393,-0.992 0.041,-1.397c-69.277,-79.359 -147.93,-122.712 -221.466,-122.076Z" style="fill:#a3c75c;fill-rule:nonzero;"/><path d="M556.202,313.169c-0.293,0.055 -0.551,0.237 -0.703,0.5l-0.258,0.457c-0.18,0.31 -0.183,0.692 -0.011,1.007c0.173,0.313 0.496,0.514 0.855,0.531c63.078,2.735 101.522,22.216 130.808,40.912c14.824,9.481 48.72,30.479 77.668,47.476c30.777,18.135 62.943,29.505 82.781,34.096c23.379,5.297 46.49,5.067 70.631,-0.681c18.276,11.055 39.854,10.368 60.814,-1.998c34.286,-20.228 59.715,-66.526 57.893,-105.405c-0.024,-0.517 -0.431,-0.94 -0.951,-0.977c-0.521,-0.037 -0.982,0.317 -1.086,0.827c-7.074,36.095 -41.008,45.166 -76.933,54.772c-25.775,6.889 -52.424,14.013 -67.961,32.138c-0.231,0.264 -0.31,0.628 -0.204,0.96c0.097,0.336 0.362,0.6 0.696,0.697c23.004,6.633 71.245,-5.351 105.916,-25.85c-4.906,5.798 -14.031,14.289 -29.023,20.197c-10.42,4.599 -45.553,15.846 -83.005,12.888c-48.496,-3.826 -116.736,-46.127 -161.893,-74.117c-16.46,-10.202 -30.681,-19.015 -40.405,-23.846c-51.438,-25.441 -91.816,-20.869 -125.629,-14.584Z" style="fill:#a3c75c;fill-rule:nonzero;"/><path d="M959.184,540.072l28.08,-0l-0,-2.222l-4.848,-1.513c-3.735,-1.213 -3.636,-2.224 -3.636,-8.284l0,-9.293c0,-6.264 0.707,-6.565 3.436,-12.021l9.896,-18.18c5.558,-10.205 5.658,-11.212 10.506,-13.231l1.716,-0.707l0,-2.22l-21.412,0l0,2.22l4.649,1.919c1.412,0.605 2.522,0.907 2.522,2.224c-0,1.614 -1.413,4.54 -4.549,11.111l-7.573,15.953c-0.503,1.112 -0.807,1.517 -1.41,1.517c-0.606,0 -1.216,-0.706 -1.922,-2.22l-10.803,-22.828c-0.61,-1.211 -1.316,-2.321 -1.316,-3.637c-0,-1.213 0.606,-1.515 3.029,-2.525l3.938,-1.514l0,-2.22l-26.563,0l-0,2.22l2.426,1.112c4.341,2.019 5.654,5.756 11.515,17.069l7.674,14.949c2.023,4.544 3.032,6.363 3.032,11.312l0,8.99c0,5.959 -0.206,7.272 -3.439,8.284l-4.948,1.513l0,2.222Zm-70.6,-0l52.624,-0l0.806,-0.811l0,-18.078l-3.232,-0l-3.029,5.76c-3.635,6.764 -5.151,8.585 -15.654,8.585c-12.425,-0 -12.425,-1.821 -12.425,-6.668l-0,-18.079c-0,-3.736 0.1,-4.24 3.938,-4.24l7.274,-0c4.039,-0 4.039,0.602 6.161,4.945l1.616,3.637l2.223,-0l-0,-21.615l-2.223,0l-1.616,3.738c-1.919,4.04 -2.122,4.748 -6.061,4.748l-7.071,0c-3.938,0 -4.241,-0.104 -4.241,-3.536l-0,-16.462c-0,-4.549 0.303,-5.051 10.706,-5.051c10.302,0 11.112,0.707 14.751,7.07l2.722,4.949l3.232,-0l0,-15.858l-0.806,-0.705l-49.695,0l0,2.22l4.345,1.514c3.532,1.312 3.532,2.323 3.532,7.474l0,44.444c0,5.757 0,7.071 -3.432,8.284l-4.445,1.513l0,2.222Zm-55.522,-0l51.108,-0l0.806,-0.811l0,-18.281l-3.232,-0l-1.512,2.932c-4.242,8.382 -4.342,11.616 -16.768,11.616c-11.312,-0 -11.312,-2.626 -11.312,-9.091l-0,-43.027c-0,-5.152 -0.2,-6.063 3.938,-7.173l5.252,-1.616l-0,-2.22l-28.28,0l0,2.22l4.445,1.616c3.436,1.11 3.436,2.322 3.436,7.173l-0,43.629c-0,6.367 -0,8.184 -3.436,9.298l-4.445,1.513l0,2.222Zm-55.046,-0l51.108,-0l0.81,-0.811l-0,-18.281l-3.233,-0l-1.516,2.932c-4.241,8.382 -4.345,11.616 -16.77,11.616c-11.309,-0 -11.309,-2.626 -11.309,-9.091l-0,-43.027c-0,-5.152 -0.2,-6.063 3.938,-7.173l5.255,-1.616l0,-2.22l-28.283,0l0,2.22l4.449,1.616c3.425,1.11 3.425,2.322 3.425,7.173l-0,43.629c-0,6.367 -0,8.184 -3.425,9.298l-4.449,1.513l0,2.222Zm-41.263,-53.938c0.407,-1.008 0.71,-1.614 1.217,-1.614c0.603,0 0.806,0.707 1.312,2.325l6.158,18.785c0.103,0.505 0.407,1.009 0.407,1.513c-0,0.911 -0.407,1.415 -1.92,1.415l-11.919,-0c-2.219,-0 -2.625,-0.102 -2.625,-1.415c-0,-0.708 0.303,-1.315 0.606,-1.918l6.764,-19.091Zm-31.005,53.938l23.028,-0l0,-2.222l-5.048,-1.919c-1.919,-0.606 -3.032,-1.212 -3.032,-2.83c-0,-1.819 0.81,-3.536 1.413,-5.453l3.232,-9.797c1.619,-4.749 2.226,-4.749 6.468,-4.749l12.825,-0c2.929,-0 3.638,0.405 4.648,3.232l4.545,14.041c0.3,1.013 0.91,2.222 0.91,3.332c-0,1.212 -0.91,1.718 -2.326,2.224l-5.351,1.919l-0,2.222l27.066,-0l0,-2.222l-2.522,-1.008c-5.052,-2.022 -5.451,-4.949 -8.584,-13.841l-14.344,-40.604c-1.417,-3.939 -2.829,-7.876 -3.336,-9.494l-0.706,-0.502l-6.968,0l-0.606,0.502c-0.706,1.819 -2.422,6.363 -4.042,10.305l-16.061,39.693c-2.929,7.274 -3.735,11.718 -8.38,13.837l-2.829,1.112l0,2.222Zm-22.928,-0l8.484,-0l0.706,-0.811c1.013,-3.129 7.171,-20.097 10.806,-29.995l7.987,-20.908c1.913,-5.054 3.225,-10.506 6.358,-11.918l4.042,-1.819l-0,-2.22l-22.222,0l-0,2.22l5.048,2.019c1.923,0.807 2.832,1.315 2.832,2.931c0,1.716 -5.558,19.393 -9.696,31.21l-5.455,15.656c-0.61,1.815 -0.61,1.815 -1.213,1.815c-0.606,-0 -1.013,-1.213 -1.516,-2.926l-11.915,-38.383c-1.213,-3.839 -2.126,-7.171 -2.126,-7.88c-0,-1.311 0.61,-1.716 3.032,-2.724l4.545,-1.718l-0,-2.22l-26.767,0l0,2.22l3.132,1.514c3.939,1.92 4.445,4.343 7.274,12.929l9.493,28.787c1.716,5.253 3.939,13.231 6.365,21.41l0.806,0.811Zm-86.154,-59.291c-0,-2.929 -0,-3.836 6.361,-3.836c9.193,0 14.141,4.342 14.141,14.243c-0,9.895 -6.768,12.625 -15.148,12.625c-4.951,-0 -5.354,-0 -5.354,-3.235l-0,-19.797Zm-19.09,59.291l26.464,-0l-0,-2.222l-3.839,-1.513c-3.639,-1.418 -3.535,-2.427 -3.535,-9.298l-0,-15.553c-0,-2.624 -0,-3.129 2.525,-3.129l1.613,0c2.629,0 3.539,0.604 5.961,4.444l14.242,23.331c1.512,2.527 3.838,3.94 6.467,3.94l11.712,-0l0,-2.222c-3.838,-2.525 -6.664,-5.758 -11.515,-12.93l-11.413,-16.663c-0.506,-0.709 -1.109,-1.417 -1.109,-2.224c-0,-2.625 13.938,-2.324 13.938,-18.484c-0,-13.132 -8.484,-15.148 -19.796,-15.148l-31.715,0l0,2.22l4.445,1.616c3.329,1.01 3.432,2.322 3.432,6.971l0,43.831c0,6.367 -0.103,8.184 -3.432,9.298l-4.445,1.513l0,2.222Zm-58.788,-0l52.624,-0l0.809,-0.811l0,-18.078l-3.232,-0l-3.029,5.76c-3.638,6.764 -5.154,8.585 -15.657,8.585c-12.422,-0 -12.422,-1.821 -12.422,-6.668l-0,-18.079c-0,-3.736 0.1,-4.24 3.938,-4.24l7.271,-0c4.042,-0 4.042,0.602 6.164,4.945l1.616,3.637l2.223,-0l0,-21.615l-2.223,0l-1.616,3.738c-1.922,4.04 -2.122,4.748 -6.061,4.748l-7.07,0c-3.939,0 -4.242,-0.104 -4.242,-3.536l-0,-16.462c-0,-4.549 0.303,-5.051 10.706,-5.051c10.303,0 11.112,0.707 14.748,7.07l2.725,4.949l3.232,-0l0,-15.858l-0.806,-0.705l-49.698,0l-0,2.22l4.348,1.514c3.532,1.312 3.532,2.323 3.532,7.474l0,44.444c0,5.757 0,7.071 -3.435,8.284l-4.445,1.513l-0,2.222Zm-9.19,-49.896l3.232,-7.779c0.307,-0.707 0.71,-1.715 0.71,-2.625c-0,-4.95 -7.274,-8.687 -18.99,-8.687c-11.715,-0 -22.724,7.575 -22.724,20.304c-0,23.229 33.33,12.725 33.33,32.824c0,6.564 -3.838,11.919 -10.402,11.919c-13.335,-0 -16.264,-11.212 -17.477,-16.668l-1.817,0l-4.041,8.888c-0.503,1.114 -0.806,2.224 -0.806,3.334c-0,5.759 10.905,9.698 19.089,9.698c15.151,0 26.16,-8.182 26.16,-22.321c0,-24.443 -34.543,-15.25 -34.543,-32.929c-0,-5.556 4.241,-9.795 9.999,-9.795c11.413,0 14.948,8.683 16.464,13.837l1.816,0Zm-78.074,-4.042c0.404,-1.008 0.708,-1.614 1.214,-1.614c0.605,0 0.808,0.707 1.313,2.325l6.161,18.785c0.101,0.505 0.403,1.009 0.403,1.513c0,0.911 -0.403,1.415 -1.92,1.415l-11.917,-0c-2.224,-0 -2.627,-0.102 -2.627,-1.415c-0,-0.708 0.305,-1.315 0.607,-1.918l6.766,-19.091Zm-31.008,53.938l23.03,-0l0,-2.222l-5.052,-1.919c-1.917,-0.606 -3.031,-1.212 -3.031,-2.83c0,-1.819 0.809,-3.536 1.418,-5.453l3.229,-9.797c1.617,-4.749 2.222,-4.749 6.464,-4.749l12.827,-0c2.933,-0 3.638,0.405 4.647,3.232l4.545,14.041c0.305,1.013 0.91,2.222 0.91,3.332c0,1.212 -0.91,1.718 -2.322,2.224l-5.355,1.919l0,2.222l27.071,-0l-0,-2.222l-2.526,-1.008c-5.051,-2.022 -5.454,-4.949 -8.586,-13.841l-14.341,-40.604c-1.415,-3.939 -2.829,-7.876 -3.335,-9.494l-0.708,-0.502l-6.968,0l-0.604,0.502c-0.708,1.819 -2.425,6.363 -4.043,10.305l-16.059,39.693c-2.93,7.274 -3.736,11.718 -8.383,13.837l-2.828,1.112l0,2.222Zm-34.24,-59.291c-0,-2.929 -0,-3.836 6.365,-3.836c9.19,0 14.14,4.342 14.14,14.243c-0,9.895 -6.771,12.625 -15.15,12.625c-4.949,-0 -5.355,-0 -5.355,-3.235l-0,-19.797Zm-19.09,59.291l26.463,-0l0,-2.222l-3.838,-1.513c-3.637,-1.418 -3.535,-2.427 -3.535,-9.298l-0,-15.553c-0,-2.624 -0,-3.129 2.524,-3.129l1.617,0c2.627,0 3.534,0.604 5.96,4.444l14.24,23.331c1.515,2.527 3.839,3.94 6.465,3.94l11.715,-0l0,-2.222c-6.815,-2.874 -8.034,-5.758 -12.881,-12.93l-10.044,-16.663c-0.507,-0.709 -1.111,-1.417 -1.111,-2.224c-0,-2.625 13.937,-2.324 13.937,-18.484c0,-13.132 -8.484,-15.148 -19.797,-15.148l-31.715,0l0,2.22l4.444,1.616c3.335,1.01 3.434,2.322 3.434,6.971l-0,43.831c-0,6.367 -0.099,8.184 -3.434,9.298l-4.444,1.513l0,2.222Z" style="fill:#a3c75c;fill-rule:nonzero;"/><path d="M313.194,557.198l-32.105,0l-0,-3.372l6.249,-2.127c2.009,-0.651 2.758,-1.039 3.246,-2.436c0.49,-1.447 0.542,-4.112 0.536,-8.992l0,-51.28c0.006,-4.511 -0.012,-7.141 -0.492,-8.675c-0.489,-1.504 -1.261,-2.054 -3.293,-2.755l-6.246,-1.994l-0,-3.378l59.632,-0l1.317,1.15l-0,19.54l-4.191,0l-3.272,-6.023c-2.147,-3.863 -3.119,-5.961 -5.373,-7.119c-2.269,-1.193 -6.111,-1.533 -14.003,-1.526c-6.569,-0.015 -9.87,0.157 -11.291,0.914c-1.335,0.668 -1.366,1.897 -1.372,4.851l-0,23.949c-0.004,1.837 0.173,2.505 0.627,2.748c0.479,0.339 1.822,0.4 4.265,0.383l9.529,0c5.226,-0.108 5.436,-0.441 7.936,-6.085l1.888,-4.448l3.344,0l0,26.963l-3.341,-0l-2.263,-5.064c-2.635,-5.5 -2.496,-5.226 -8.067,-5.348l-9.156,0c-1.626,-0.003 -2.912,0.02 -3.661,0.339c-0.715,0.33 -1.065,0.756 -1.101,2.168l-0,20.69c-0.004,4.758 0.012,7.368 0.392,8.77c0.399,1.364 0.895,1.623 2.527,2.162l7.739,2.623l0,3.372Z" style="fill:#a3c75c;fill-rule:nonzero;"/></g></g><g id="ufv-logo.eps1" serif:id="ufv-logo.eps"></g></g></svg>