<?xml version="1.0" encoding="UTF-8" standalone="no"?><!DOCTYPE svg PUBLIC "-//W3C//DTD SVG 1.1//EN" "http://www.w3.org/Graphics/SVG/1.1/DTD/svg11.dtd"><svg width="100%" height="100%" viewBox="0 0 1155 819" version="1.1" xmlns="http://www.w3.org/2000/svg" xmlns:xlink="http://www.w3.org/1999/xlink" xml:space="preserve" xmlns:serif="http://www.serif.com/" style="fill-rule:evenodd;clip-rule:evenodd;stroke-linejoin:round;stroke-miterlimit:2;"><g id="Layer-1" serif:id="Layer 1"><rect x="0" y="120.833" width="577.083" height="577.083" style="fill:#f15c2a;"/><rect x="577.083" y="120.833" width="577.083" height="577.083" style="fill:#020c1a;"/><path d="M638.04,391.976c6.188,0.579 11.675,-3.968 12.255,-10.15c0.04,-0.482 0.058,-0.969 0.04,-1.45c0,-7.018 -4.118,-11.194 -13.455,-11.194l-7.192,0l-0,22.794l8.352,-0Zm15.949,33.523l-15.369,-24.708l-8.816,0l-0,24.012l-12.122,-0c0.464,-4.408 0.638,-16.124 0.638,-22.098l0,-20.241c0,-5.8 0,-17.4 -0.638,-22.098c3.306,0 14.094,-0.348 18.328,-0.464c17.109,0 26.447,8.468 26.215,19.082c-0.081,8.439 -5.406,15.932 -13.34,18.791l9.86,14.384c2.32,3.306 6.728,9.338 8.7,12.006l-13.456,1.334Z" style="fill:#fff;fill-rule:nonzero;"/><path d="M722.949,392.729c0,-15.137 -8.816,-24.359 -20.531,-24.359c-11.716,0 -20.938,11.078 -20.938,24.185c0,15.08 8.7,24.36 20.474,24.36c11.773,-0 20.937,-11.078 20.937,-24.186l0.058,0Zm-53.068,1.566c-0,-20.009 13.513,-35.495 33.291,-35.495c17.167,-0.237 31.272,13.491 31.51,30.658c0.006,0.511 0,1.021 -0.017,1.532c-0,19.951 -13.456,35.437 -33.233,35.437c-17.168,0.266 -31.302,-13.433 -31.563,-30.6c-0.012,-0.511 -0.006,-1.021 0.012,-1.532" style="fill:#fff;fill-rule:nonzero;"/><path d="M746.612,359.612l16.762,27.782l5.046,-7.946c3.596,-5.8 8.236,-13.688 11.599,-19.256l13.224,0l-24.127,36.829l-0,14.558c-0,3.48 -0,10.614 0.29,13.224l-12.528,-0c0.464,-4.408 0.638,-16.124 0.638,-22.098l0,-5.336l-9.628,-15.079c-3.827,-6.264 -10.149,-16.124 -14.035,-21.924l12.759,-0.754Z" style="fill:#fff;fill-rule:nonzero;"/><path d="M804.669,399.863l18.849,0l-9.454,-22.329l-9.395,22.329Zm-1.392,-21.981c3.48,-7.714 5.8,-12.934 7.772,-18.154l5.799,-0.754l21.46,47.095c2.668,5.8 5.8,13.224 8.874,18.734l-12.702,0.696l-7.424,-17.4l-25.925,0c-1.856,4.466 -4.698,11.6 -6.496,16.124l-12.47,-0l21.112,-46.341Z" style="fill:#fff;fill-rule:nonzero;"/><path d="M896.596,425.151c-5.8,-0.348 -12.528,-0.464 -19.429,-0.464c-6.902,-0 -13.978,-0 -19.778,0.464c0.464,-4.408 0.638,-16.588 0.638,-22.446l0,-20.241c0,-5.8 0,-17.4 -0.638,-22.098c3.596,0 9.744,0 12.76,-0.464c-0.29,2.668 -0.406,9.976 -0.406,13.572l-0,36.191c-0.11,1.798 -0.11,3.596 -0,5.394l27.375,-0c-0.116,3.132 -0.406,6.438 -0.522,10.092" style="fill:#fff;fill-rule:nonzero;"/><path d="M659.789,513.772c0.522,-4.408 0.696,-15.776 0.696,-21.749l-0,-6.96l-30.565,-0l-0,15.485c-0,3.48 -0,10.614 0.348,13.224l-12.586,-0c0.464,-4.408 0.638,-16.124 0.638,-22.097l0,-20.242c0,-5.8 0,-17.399 -0.638,-22.097c3.596,-0 9.744,-0 12.76,-0.464c-0,2.668 -0.348,9.976 -0.348,13.571l-0,13.398l30.565,0l-0,-4.408c-0,-5.8 -0,-17.399 -0.696,-22.097c3.654,-0 9.802,-0 12.702,-0.464l-0,64.9l-12.876,-0Z" style="fill:#fff;fill-rule:nonzero;"/><path d="M736.811,481.873c-0,-15.138 -8.816,-24.359 -20.532,-24.359c-11.715,-0 -20.763,11.077 -20.763,24.185c-0,15.079 8.7,24.359 20.473,24.359c11.774,0 20.822,-11.077 20.822,-24.185m-53.069,1.566c0,-20.01 13.514,-35.495 33.291,-35.495c17.168,-0.238 31.273,13.49 31.511,30.658c0.006,0.51 -0,1.021 -0.018,1.531c0,19.951 -13.455,35.437 -33.233,35.437c-17.167,0.267 -31.301,-13.432 -31.562,-30.6c-0.012,-0.51 -0.006,-1.021 0.011,-1.531" style="fill:#fff;fill-rule:nonzero;"/><path d="M796.839,514.294c-5.8,-0.348 -12.586,-0.464 -19.429,-0.464c-6.844,-0 -14.036,-0 -19.778,0.464c0.464,-4.408 0.638,-16.588 0.638,-22.445l0,-20.242c0,-5.8 0,-17.399 -0.638,-22.097c3.538,-0 9.686,-0 12.702,-0.464c-0,2.668 -0.348,9.976 -0.348,13.571l-0,41.585l27.375,0c0.116,3.132 -0.464,6.438 -0.522,10.092" style="fill:#fff;fill-rule:nonzero;"/><path d="M846.544,514.294c-5.8,-0.348 -12.528,-0.464 -19.372,-0.464c-6.844,-0 -14.035,-0 -19.835,0.464c0.464,-4.408 0.638,-16.588 0.638,-22.445l-0,-20.242c-0,-5.8 -0,-17.399 -0.638,-22.097c3.596,-0 9.743,-0 12.759,-0.464c-0.29,2.668 -0.348,9.976 -0.348,13.571l0,41.585l27.376,0c-0.174,3.132 -0.464,6.438 -0.58,10.092" style="fill:#fff;fill-rule:nonzero;"/><path d="M900.424,481.873c-0,-15.138 -8.758,-24.359 -20.531,-24.359c-11.774,-0 -20.764,11.077 -20.764,24.185c0,15.079 8.7,24.359 20.532,24.359c11.831,0 20.763,-11.077 20.763,-24.185m-53.01,1.566c-0,-20.01 13.455,-35.495 33.233,-35.495c17.167,-0.238 31.272,13.49 31.51,30.658c0.006,0.51 0,1.021 -0.017,1.531c-0,19.951 -13.456,35.437 -33.233,35.437c-17.133,0.267 -31.244,-13.409 -31.511,-30.542c-0.006,-0.528 0,-1.061 0.018,-1.589" style="fill:#fff;fill-rule:nonzero;"/><path d="M988.871,496.372c-2.841,7.83 -4.697,12.934 -6.437,18.27l-5.8,0.638l-16.53,-45.065l-9.975,27.375c-1.74,4.93 -4.176,10.788 -6.612,17.4l-5.8,-0l-16.82,-46.921c-1.972,-5.8 -4.639,-13.165 -6.843,-18.675l12.527,-0.696l14.848,45.529l10.266,-29c1.101,-3.48 4.581,-12.991 5.799,-16.355l5.452,-0.754l16.24,46.399l8.989,-28.478l5.046,-16.297l13.05,-0l-17.4,46.63Z" style="fill:#fff;fill-rule:nonzero;"/><path d="M1019.26,489.007l18.849,-0l-9.454,-22.388l-9.395,22.388Zm-1.392,-21.982c3.48,-7.713 5.799,-12.933 7.771,-18.153l5.8,-0.754l21.46,47.095c2.668,5.799 5.799,13.223 8.873,18.733l-12.701,0.696l-7.424,-17.4l-25.925,0c-1.856,4.466 -4.698,11.6 -6.496,16.124l-12.47,-0l21.112,-46.341Z" style="fill:#fff;fill-rule:nonzero;"/><path d="M1067.46,448.756l16.762,27.781l5.046,-7.946c3.537,-5.8 8.235,-13.687 11.599,-19.255l13.166,-0l-24.069,36.829l-0,27.781l-12.644,-0c0.464,-4.408 0.638,-16.124 0.638,-22.097l-0,-5.336l-9.57,-15.08c-3.886,-6.264 -10.208,-16.123 -14.035,-21.923l13.107,-0.754Z" style="fill:#fff;fill-rule:nonzero;"/><path d="M668.721,551.355l-0,22.619c0.742,7.372 -1.804,14.691 -6.96,20.01c-5.255,4.964 -12.325,7.545 -19.546,7.133c-14.267,0 -24.243,-8.467 -24.243,-22.735l0,-18.559c0,-5.8 0,-16.646 -0.638,-20.764c3.48,0 9.164,0 11.948,-0.464l-0,36.945c-0,11.6 5.8,16.182 14.673,16.182c7.181,0.597 13.491,-4.745 14.082,-11.925c0.076,-0.875 0.058,-1.757 -0.046,-2.633l-0,-17.399c-0,-5.8 -0,-16.646 -0.696,-20.764c3.48,0 9.222,0 12.18,-0.464c-0.638,2.552 -0.754,9.454 -0.754,12.818" style="fill:#f15c2a;fill-rule:nonzero;"/><path d="M680.088,578.788l0,-20.299c0,-5.51 0,-15.892 -0.348,-20.068l5.162,-0.638l36.307,42.745l0,-20.705c0,-5.8 0,-16.646 -0.696,-20.764c3.364,0 8.932,0 11.6,-0.464c-0.348,2.494 -0.638,9.396 -0.696,12.76l-0.348,36.249c-0.238,4.211 -0.238,8.433 -0,12.643l-5.162,0.696l-36.133,-42.28l0,28.477c0,3.364 0,10.034 0.348,12.412l-11.6,-0c1.16,-4.118 1.508,-15.138 1.566,-20.764" style="fill:#f15c2a;fill-rule:nonzero;"/><path d="M745.278,599.552c0.464,-4.118 0.638,-15.138 0.638,-20.764l0,-18.965c0,-5.8 0,-16.646 -0.638,-20.764c3.48,0 9.164,0 12.006,-0.464c-0.29,2.494 -0.348,9.396 -0.348,12.76l0,35.785c0,3.306 0,10.034 0.348,12.412l-12.006,-0Z" style="fill:#f15c2a;fill-rule:nonzero;"/><path d="M778.918,538.537l17.399,43.789l10.73,-27.781c1.914,-5.104 4.002,-10.614 5.8,-15.428l12.005,0l-18.849,44.079c-3.19,7.308 -5.162,12.122 -6.786,17.109l-5.51,0.638l-18.965,-44.136c-2.262,-5.452 -5.336,-12.412 -7.772,-17.4l11.948,-0.87Z" style="fill:#f15c2a;fill-rule:nonzero;"/><path d="M870.207,599.899c-5.336,-0.347 -11.6,-0.405 -18.154,-0.405c-6.553,-0 -13.513,-0 -18.907,0.405c0.406,-4.117 0.58,-15.485 0.58,-21.111l-0,-18.965c-0,-5.8 -0,-17.4 -0.58,-21.286c5.394,0 11.6,0.406 18.153,0.406c6.554,0 12.412,0 17.806,-0.406c-0.389,3.08 -0.626,6.177 -0.696,9.28l-23.663,0l-0,16.008l20.357,-0l0,8.757l-20.125,0l-0,18.502l7.945,-0c6.67,-0 12.47,-0 18.154,-0.29c-0.58,2.668 -0.754,5.684 -0.87,9.105" style="fill:#f15c2a;fill-rule:nonzero;"/><path d="M899.38,568.638c5.8,0.575 10.973,-3.659 11.547,-9.459c0.035,-0.366 0.053,-0.731 0.053,-1.096c-0,-6.612 -3.828,-10.498 -12.644,-10.498l-6.728,0l0,20.821l7.772,0.232Zm15.022,31.609l-14.5,-23.199l-8.236,0l0,22.562l-11.599,-0c0.406,-4.118 0.58,-15.138 0.58,-20.764l-0,-18.965c-0,-5.8 -0,-16.646 -0.58,-20.764c3.073,0 13.223,-0.348 17.399,-0.464c16.124,0 24.881,7.946 24.649,17.922c0.012,7.905 -4.889,14.981 -12.295,17.747l9.279,13.514c2.146,3.074 6.264,8.758 8.178,11.252l-12.875,1.159Z" style="fill:#f15c2a;fill-rule:nonzero;"/><path d="M950.477,601.117c-6.311,-0.168 -12.47,-1.925 -17.922,-5.103l0.522,-10.73c5.098,3.99 11.333,6.264 17.806,6.496c5.799,-0 9.627,-2.9 9.627,-8.41c0,-10.556 -25.867,-11.6 -25.867,-27.897c0.058,-9.964 8.178,-17.991 18.136,-17.939c0.51,0.006 1.021,0.029 1.525,0.075c5.394,-0.04 10.678,1.514 15.196,4.466l-2.784,9.048c-3.613,-2.552 -7.876,-4.025 -12.296,-4.234c-5.451,0 -9.047,3.074 -9.047,7.656c-0,9.976 25.809,10.556 25.809,27.781c0.29,10.962 -8.062,18.791 -20.705,18.791" style="fill:#f15c2a;fill-rule:nonzero;"/><path d="M980.578,599.552c0.406,-4.118 0.58,-15.138 0.58,-20.764l-0,-18.965c-0,-5.8 -0,-16.646 -0.58,-20.764c3.422,0 9.105,0 11.947,-0.464c0,2.494 -0.348,9.396 -0.348,12.76l0,35.785c0,3.306 0,10.034 0.348,12.412l-11.947,-0Z" style="fill:#f15c2a;fill-rule:nonzero;"/><path d="M1052.96,548.571l-19.43,-0l0,39.323c0,3.306 0,10.034 0.348,12.411l-11.948,0c0.406,-4.117 0.58,-15.137 0.58,-20.763l0,-30.681l-19.777,-0c0,-2.842 0.348,-6.496 0.348,-9.744c7.888,0 15.66,0.406 25.113,0.406c9.454,0 17.4,0 25.752,-0.406c-0.488,3.132 -0.818,6.287 -0.986,9.454" style="fill:#f15c2a;fill-rule:nonzero;"/><path d="M1070.94,538.363l15.776,26.1l4.697,-7.482c3.364,-5.278 7.772,-12.876 10.846,-18.096l12.412,0l-22.62,34.799l0,26.1l-11.599,-0c0.406,-4.118 0.58,-15.138 0.58,-20.764l-0,-4.988l-9.048,-14.151c-3.596,-5.8 -9.57,-15.196 -13.166,-20.59l12.122,-0.928Z" style="fill:#f15c2a;fill-rule:nonzero;"/><path d="M645.811,641.252c0,-8.003 -4.64,-12.875 -10.845,-12.875c-6.398,0.284 -11.356,5.701 -11.072,12.104c0.011,0.238 0.029,0.476 0.052,0.713c-0,8.004 4.582,12.876 10.846,12.876c6.403,-0.226 11.408,-5.603 11.182,-12.006c-0.012,-0.232 -0.023,-0.464 -0.047,-0.696l-0.116,-0.116Zm-28.129,0.87c-0.644,-9.749 6.74,-18.171 16.489,-18.814c0.302,-0.018 0.609,-0.029 0.911,-0.035c9.129,-0.134 16.634,7.157 16.767,16.286c0.006,0.255 -0,0.51 -0.006,0.765c0.644,9.75 -6.739,18.171 -16.489,18.815c-0.301,0.017 -0.609,0.029 -0.91,0.035c-9.129,0.133 -16.634,-7.157 -16.768,-16.286c-0.005,-0.255 0,-0.511 0.006,-0.766" style="fill:#f15c2a;fill-rule:nonzero;"/><path d="M678.29,629.131l-13.281,-0l-0,9.453l11.077,0l0,4.93l-10.903,0l-0,14.906l-6.902,-0c-0,-2.32 0.348,-8.526 0.348,-11.6l-0,-10.73c-0,-3.131 -0,-9.685 -0.348,-12.005l20.241,-0c-0.058,1.508 -0.174,3.074 -0.232,5.046" style="fill:#f15c2a;fill-rule:nonzero;"/><path d="M714.713,658.768l-20.821,-0c-0,-2.32 0.348,-8.816 0.348,-11.6l-0,-10.73c-0,-3.131 -0,-9.395 -0.348,-11.599c2.268,0.023 4.53,-0.07 6.786,-0.29l-0,26.389c-0.058,0.969 -0.058,1.931 -0,2.9l14.325,-0c-0.116,0.928 -0.232,2.668 -0.29,4.93" style="fill:#f15c2a;fill-rule:nonzero;"/><path d="M745.278,641.368c0,-8.003 -4.639,-12.875 -10.845,-12.875c-6.397,0.284 -11.356,5.701 -11.072,12.104c0.012,0.238 0.029,0.476 0.052,0.713c0,8.004 4.582,12.876 10.846,12.876c6.397,-0.284 11.356,-5.701 11.072,-12.104c-0.012,-0.238 -0.029,-0.476 -0.053,-0.714m-28.361,0.754c-0.8,-9.575 6.311,-17.985 15.892,-18.791c0.499,-0.041 1.003,-0.058 1.508,-0.058c9.129,-0.134 16.634,7.157 16.767,16.286c0.006,0.255 0,0.51 -0.006,0.765c0.644,9.75 -6.739,18.171 -16.489,18.815c-0.301,0.017 -0.609,0.029 -0.91,0.035c-9.094,0.168 -16.605,-7.076 -16.768,-16.17c-0.005,-0.29 -0.005,-0.586 0.006,-0.882" style="fill:#f15c2a;fill-rule:nonzero;"/><path d="M757.69,646.588l0,-22.909l2.958,-0.406l20.473,24.127l0,-11.6c0,-3.131 0,-9.395 -0.406,-11.599c2.245,0.023 4.495,-0.076 6.728,-0.29c0,1.45 -0.348,5.336 -0.406,7.192l0,27.607l-2.9,0.406l-20.415,-23.838l-0,23.026l-6.612,-0c0.348,-2.378 0.522,-8.584 0.58,-11.716" style="fill:#f15c2a;fill-rule:nonzero;"/><path d="M805.597,629.247l-3.712,-0l-0,23.895c1.293,0.099 2.592,0.099 3.886,-0c6.693,0.012 12.133,-5.405 12.145,-12.098c0.011,-6.693 -5.406,-12.134 -12.099,-12.145l-0.046,-0l-0.174,0.348Zm0.754,28.999l-11.078,-0c0,-2.32 0.348,-8.526 0.348,-11.6l0,-10.73c0,-3.131 0,-9.395 -0.348,-11.599c1.798,-0 5.278,-0.29 10.092,-0.29c12.353,-0 18.907,7.134 18.907,16.413c0.429,9.408 -6.849,17.382 -16.257,17.812c-0.557,0.023 -1.108,0.023 -1.664,-0.006" style="fill:#f15c2a;fill-rule:nonzero;"/><path d="M858.781,641.136c0.806,-6.356 -3.694,-12.162 -10.045,-12.968c-0.325,-0.041 -0.65,-0.07 -0.974,-0.081c-6.403,0.214 -11.42,5.579 -11.206,11.976c0.012,0.319 0.035,0.638 0.07,0.957c-0.806,6.357 3.694,12.163 10.045,12.969c0.325,0.04 0.65,0.069 0.975,0.081c6.553,-0.4 11.541,-6.038 11.141,-12.592c-0,-0.034 -0.006,-0.075 -0.006,-0.11l0,-0.232Zm-28.419,0.812c-0.638,-9.813 6.797,-18.287 16.605,-18.925c0.4,-0.029 0.8,-0.04 1.201,-0.04c9.192,-0.139 16.755,7.203 16.894,16.396c0.006,0.331 0,0.667 -0.017,1.003c0.638,9.843 -6.821,18.345 -16.663,18.983c-0.383,0.029 -0.76,0.041 -1.142,0.041c-9.222,0.104 -16.791,-7.285 -16.895,-16.512c-0,-0.314 0.005,-0.633 0.017,-0.946" style="fill:#f15c2a;fill-rule:nonzero;"/><path d="M871.541,646.472l-0,-23.199l2.958,-0.348l20.705,24.359l0,-11.6c0,-3.131 0,-9.453 -0.406,-11.599l6.728,-0c-0,1.45 -0.29,5.336 -0.348,7.25l-0,27.839l-2.958,0.406l-20.589,-24.07l-0,23.258l-6.67,-0c0.348,-2.842 0.522,-9.106 0.58,-12.296" style="fill:#f15c2a;fill-rule:nonzero;"/><path d="M201.95,608.483c0.505,0.006 0.992,-0.209 1.334,-0.58l-1.914,-0.986l-0.58,0.638c-0.127,0.052 -0.278,0.052 -0.406,0c-0.133,0.035 -0.272,0.035 -0.406,0l-4.64,-4.64c1.044,0.064 2.082,-0.075 3.074,-0.406l1.856,-1.102l2.494,2.204l1.45,0l-2.842,-2.9l4.002,-2.377l1.682,1.681c0.464,0.406 0.464,0.638 0,1.914l2.204,0c0.481,-0.371 0.568,-1.067 0.191,-1.548c-0.052,-0.07 -0.121,-0.134 -0.191,-0.192l-2.784,-2.725l0.522,-0.348l-1.624,-0.754c-0.766,-0.72 -1.601,-1.363 -2.494,-1.914c-0.661,-0.302 -1.369,-0.499 -2.088,-0.58l0,1.218l0.522,-0c0.917,0.092 1.752,0.551 2.32,1.276l0.406,0.348l-4.06,2.436l-1.508,-0l0.522,0.638c-0.928,0.626 -1.896,1.188 -2.9,1.681c-0.284,0.064 -0.585,0.064 -0.87,0c-0.626,-0.058 -1.223,-0.278 -1.74,-0.638l-1.624,0l2.378,2.436c0.522,0.464 1.45,1.508 2.204,2.32l0.87,0.928l0.87,0.986c0.743,0.708 1.769,1.027 2.784,0.87l0.986,0.116Z" style="fill:#fff;fill-rule:nonzero;"/><path d="M211.694,609.237c-0.528,-0.812 -0.528,-1.856 -0,-2.668c0.499,-0.487 1.16,-0.771 1.856,-0.812c0.4,0.012 0.789,0.157 1.102,0.406c0.638,0.58 0.696,0.986 -0,2.03l-0,0.29l2.146,0c0.649,-0.922 0.47,-2.192 -0.406,-2.9c-0.922,-0.632 -2.019,-0.957 -3.132,-0.928c-1.369,-0.034 -2.685,0.54 -3.596,1.566c-0.731,0.992 -0.887,2.291 -0.406,3.422c0.394,1.027 0.244,2.187 -0.406,3.074c-0.574,0.65 -1.392,1.032 -2.262,1.044c-0.818,-0.006 -1.601,-0.319 -2.204,-0.87c-0.823,-0.649 -1.247,-1.688 -1.102,-2.726c0.163,-0.464 0.377,-0.916 0.638,-1.334l-0.754,0l-2.146,1.334c-0.035,1.317 0.569,2.575 1.624,3.364c1.12,0.986 2.569,1.508 4.06,1.45l0.29,0c1.508,0.075 2.975,-0.516 4.002,-1.624c1.102,-0.986 1.16,-1.682 0.696,-4.118" style="fill:#fff;fill-rule:nonzero;"/><path d="M218.944,619.097c0.754,-0.986 0.754,-1.682 -0,-4.06c-0.522,-0.795 -0.522,-1.815 -0,-2.61c0.493,-0.574 1.212,-0.91 1.972,-0.928c0.359,0 0.707,0.122 0.986,0.348c0.696,0.522 0.754,0.928 -0,1.972l-0,0.29l2.204,0c0.591,-0.963 0.307,-2.221 -0.638,-2.842c-0.87,-0.545 -1.874,-0.829 -2.9,-0.812c-1.416,-0.011 -2.755,0.656 -3.596,1.798c-0.609,1.062 -0.609,2.361 -0,3.422c0.528,0.98 0.528,2.152 -0,3.132c-0.592,0.742 -1.491,1.172 -2.436,1.16c-0.737,-0.006 -1.444,-0.255 -2.03,-0.696c-0.87,-0.597 -1.357,-1.612 -1.276,-2.668c0.087,-0.493 0.267,-0.963 0.522,-1.392l-0,-0.29l-0.754,0l-2.03,1.45c0.023,1.317 0.696,2.535 1.798,3.248c1.061,0.824 2.372,1.253 3.712,1.218l0.696,-0c1.444,-0.041 2.801,-0.667 3.77,-1.74" style="fill:#fff;fill-rule:nonzero;"/><path d="M234.893,618.807l-3.248,-2.088l0.406,-0.464l-1.74,-0.348c-0.893,-0.545 -1.85,-0.992 -2.842,-1.334c-0.806,-0.139 -1.629,-0.139 -2.435,0l0.521,1.276c0.754,-0.522 1.798,-0.348 3.132,0.464l0.464,0l-3.48,3.248l-1.449,-0l0.638,0.522c-0.76,0.829 -1.595,1.589 -2.494,2.262c-0.314,0.296 -0.731,0.464 -1.16,0.464c-0.517,-0.012 -1.027,-0.11 -1.508,-0.29l-1.508,0.348l2.9,1.856l2.61,1.798l0.928,0.696l1.159,0.812c0.447,0.301 0.969,0.464 1.508,0.464c0.749,-0.035 1.491,-0.169 2.204,-0.406c0.499,-0.064 0.934,-0.366 1.16,-0.812l-2.088,-0.58c-0.087,0.272 -0.226,0.528 -0.406,0.754c0,0.348 -0.348,0.348 -0.406,0.348l-0.406,-0l-5.509,-3.596c1.038,-0.105 2.035,-0.464 2.9,-1.044l1.623,-1.45l2.9,1.682l1.392,-0.29l-3.364,-2.262l3.364,-3.132l2.03,1.276c0.522,0.348 0.58,0.522 0.406,1.856l2.146,-0.29c0.412,-0.452 0.377,-1.148 -0.075,-1.554c-0.081,-0.076 -0.174,-0.14 -0.273,-0.186" style="fill:#fff;fill-rule:nonzero;"/><path d="M256.005,632.611c-1.45,3.943 -3.422,5.161 -4.93,5.509l-0,-0.406l-1.798,0.348c-0.934,-0.336 -1.607,-1.16 -1.74,-2.146c-0.07,-0.887 0.069,-1.78 0.406,-2.609c0.725,-2.715 3.016,-4.733 5.8,-5.104c0.423,-0.058 0.852,-0.058 1.276,-0c0.116,0.464 1.856,1.566 0.812,4.408l0.174,-0Zm-0,-4.988c-1.885,-0.609 -3.915,-0.609 -5.8,-0c-2.372,0.91 -4.217,2.818 -5.046,5.22c-0.516,1.264 -0.516,2.679 -0,3.943c0.464,0.923 1.276,1.613 2.262,1.914l1.102,0.348l0.58,0c0.609,2.39 2.273,4.379 4.524,5.394c0.539,0.203 1.107,0.325 1.682,0.348c0.516,0.023 1.02,-0.116 1.45,-0.406l-0.406,-3.074c-0,0 -0,1.044 -0.406,1.276c-0.406,0.232 -1.044,1.392 -1.74,1.102c-0.696,-0.29 -1.45,-0.812 -2.9,-4.582c0.765,-0.116 1.508,-0.353 2.204,-0.696c2.163,-1.119 3.804,-3.033 4.582,-5.335c0.928,-2.726 -0,-4.582 -2.088,-5.452" style="fill:#fff;fill-rule:nonzero;"/><path d="M267.952,630.523l-1.16,-0c-0.574,-0.256 -1.177,-0.453 -1.798,-0.58c-0.423,-0.07 -0.852,-0.07 -1.276,-0c-0.342,-0.076 -0.701,-0.076 -1.044,-0c-1.154,0.475 -2.169,1.235 -2.958,2.204l1.508,0.406c0.198,-0.888 1.01,-1.503 1.914,-1.45l0.58,-0c0.575,0.179 1.12,0.435 1.624,0.754c-2.314,2.064 -4.106,4.645 -5.22,7.539c-0.307,0.783 -0.307,1.653 0,2.436c0.354,0.516 0.894,0.87 1.508,0.986l1.044,0c1.288,-0.046 2.57,-0.203 3.828,-0.464l0,0.87c0.041,0.313 0.273,0.569 0.58,0.638l2.842,0.29c0.453,-0.093 0.888,-0.267 1.276,-0.522l0.406,-0.29l-3.654,-12.817Zm3.016,13.107l-1.914,0l0,-0.522c0.192,-0.731 0.482,-1.438 0.87,-2.088l4.408,-8.641l-0.29,-0c-2.552,-0 -2.842,-0 -3.48,0.29l1.334,0.348l-4.872,8.351c-1.142,0.441 -2.378,0.598 -3.596,0.464c-1.16,-0.29 -1.624,-1.102 -1.276,-2.436c1.166,-3.213 3.167,-6.055 5.8,-8.235l0,-0.348" style="fill:#fff;fill-rule:nonzero;"/><path d="M282.916,635.568l-0.986,4.64l-2.726,-0.29l3.712,-4.35Zm1.102,9.048l-0.638,0l-0,-0.348c-0,-0.348 1.624,-9.57 2.088,-11.193l-0.406,-0.348c-0.522,0.464 -0.812,0.58 -1.102,0.522c-0.406,0.04 -0.812,0.04 -1.218,-0l-1.682,-0.29c-0.493,-0.122 -1.015,-0.122 -1.508,-0c-0.887,0.446 -1.705,1.009 -2.436,1.681c-0.423,0.319 -0.76,0.737 -0.986,1.218l1.566,0c-0,-1.044 1.102,-1.681 2.552,-1.507c0.835,0.086 1.653,0.284 2.436,0.579l-4.814,5.8c-2.378,2.784 -2.842,3.016 -4.408,2.842l-0.986,0l-0.928,1.624l0.87,0c1.508,0 2.494,0 4.872,-2.726l1.102,-1.334l3.48,0l-0.812,3.944c0.075,0.267 0.267,0.482 0.522,0.58l3.77,-0.464l0.696,-0.928l-2.146,0l0.116,0.348Z" style="fill:#fff;fill-rule:nonzero;"/><path d="M305.593,629.769l-0.812,-0c-0.87,0.516 -1.688,1.119 -2.436,1.798c-0.4,0.498 -0.771,1.02 -1.102,1.566l-5.104,8.409l-1.45,-9.685l-0.985,0.754l-1.856,-0c-0.94,-0.029 -1.851,0.301 -2.552,0.928c-0.627,0.69 -1.172,1.449 -1.624,2.261l1.276,0.87l-0,-0.406c-0.087,-0.568 0.133,-1.142 0.58,-1.508c0.417,-0.313 0.928,-0.498 1.45,-0.521l1.798,-0l-1.334,6.205c-0.638,3.19 -0.986,3.306 -2.784,3.364l-1.566,0l-0.87,1.914l0.87,0c0.939,0.029 1.879,-0.168 2.726,-0.58c1.078,-0.864 1.867,-2.036 2.262,-3.364l1.276,-5.8l1.159,9.686l1.044,-0.87l5.278,-9.222l-1.798,9.106c0.029,0.406 0.348,0.725 0.754,0.754l3.654,-0.696l0.87,-0.986l-2.262,0c-0.696,0 -0.754,0 -0.754,-0.406l0,-1.508l1.798,-9.801c0,-0.621 0.29,-0.969 0.87,-1.044l1.044,-0l0.58,-2.03l-0.58,-0l0.58,0.812Z" style="fill:#fff;fill-rule:nonzero;"/><path d="M330.996,623.099c-0.359,-0.11 -0.742,-0.11 -1.102,-0c0,-0 -0.406,-0 -1.217,1.218c0.492,0.406 0.858,0.951 1.043,1.566c0.331,2.285 -0.052,4.616 -1.101,6.67l-2.204,5.045l-1.624,-9.221l0.87,-1.102c-0.227,-0.087 -0.47,-0.087 -0.696,-0l-2.494,0.812c-0.627,0.156 -1.195,0.504 -1.624,0.986c-0.441,0.51 -0.812,1.073 -1.102,1.682l1.16,-0c0.18,-0.812 0.777,-1.474 1.566,-1.74l0.638,-0l2.146,11.599l1.566,-0.928c1.49,-2.952 2.807,-5.997 3.943,-9.105c1.392,-3.944 1.45,-5.452 0.986,-6.902c-0.203,-0.25 -0.464,-0.447 -0.754,-0.58" style="fill:#fff;fill-rule:nonzero;"/><path d="M336.216,623.969c0.714,-0.273 1.265,-0.847 1.508,-1.566l0.29,-0.522l-4.524,2.088c-0.272,0.243 -0.458,0.568 -0.522,0.928l0,0.348l1.682,-0.464l1.566,10.555c-1.044,0.464 -1.102,0.58 -1.566,1.566l0,0.464l4.698,-1.972c0.418,-0.22 0.725,-0.597 0.87,-1.043l0,-0.406l-2.088,0.579l-1.914,-10.555Z" style="fill:#fff;fill-rule:nonzero;"/><path d="M345.38,625.013l-1.508,-5.8c0.853,-0.47 1.81,-0.731 2.784,-0.754c1.148,0.18 2.117,0.951 2.552,2.03c0.678,1.293 1.073,2.72 1.16,4.176c0.185,2.094 -0.98,4.071 -2.9,4.93l-1.856,0.928l-0.522,-0c0.829,-1.746 0.934,-3.747 0.29,-5.568l0,0.058Zm-1.74,-6.844l0,-0.754l-1.276,1.624c-0.487,0.284 -0.939,0.638 -1.334,1.044c-1.102,1.067 -1.908,2.407 -2.32,3.886l1.508,-0c0.041,-1.491 0.853,-2.854 2.146,-3.596l2.03,8.41c0.406,1.624 0,2.146 -1.45,3.364l-0.58,1.798l0.464,-0l0.87,-0.406l1.914,-0.928c1.375,-0.679 2.68,-1.491 3.886,-2.436c1.514,-1.503 2.54,-3.422 2.958,-5.51c0.098,-1.897 -0.319,-3.782 -1.218,-5.452c-1.566,-2.668 -4.06,-2.9 -7.598,-1.044" style="fill:#fff;fill-rule:nonzero;"/><path d="M364.867,615.907l-1.333,1.682c0.191,0.22 0.365,0.452 0.521,0.696c0.348,0.464 0,0.58 0,0.812l-5.393,3.77c0.214,-1.033 0.214,-2.1 -0,-3.132l-0.754,-2.03l2.668,-2.03l-0,-1.45l-3.306,2.262l-1.624,-4.35l1.972,-1.334c0.185,-0.064 0.394,-0.064 0.58,0c0.469,0.081 0.904,0.279 1.276,0.58l0.522,-2.088c-0.424,-0.481 -1.155,-0.528 -1.636,-0.104c-0.041,0.035 -0.07,0.069 -0.104,0.104l-3.19,2.262l-0,-0.58l-1.044,1.45c-0.853,0.603 -1.63,1.305 -2.32,2.088c-0.627,0.853 -1.027,1.85 -1.16,2.9l-0,0.29l1.682,-0c-0.464,-1.16 -0,-2.204 1.508,-3.19l0.464,-0.348l1.682,4.466l-0.348,1.45l0.696,-0.406c0.452,1.038 0.841,2.105 1.16,3.19c-0,0.812 -0,1.334 -0.87,2.494l-0.29,1.624l2.784,-1.972c0.58,-0.406 1.798,-1.218 2.726,-1.74l1.044,-0.638l1.101,-0.696c0.812,-0.58 1.218,-1.044 1.566,-3.422c0.058,-0.493 -0.063,-0.986 -0.348,-1.392l-0.232,-1.218Z" style="fill:#fff;fill-rule:nonzero;"/><path d="M368.985,605.293c-0.127,0.94 -0.556,1.816 -1.218,2.494l-2.088,-4.234c0.754,-0.58 1.218,-0.87 1.566,-0.87c0.383,0.047 0.72,0.256 0.928,0.58c0.488,0.569 0.778,1.282 0.812,2.03m9.918,3.77c0,1.334 0,1.914 -0.348,2.378c-0.348,0.464 -3.19,0 -6.844,-2.668l-2.32,-1.566c0.459,-0.725 0.83,-1.508 1.102,-2.32c0.238,-1.113 -0.011,-2.279 -0.696,-3.19c-0.493,-0.707 -1.386,-1.009 -2.204,-0.754c-0.91,0.354 -1.74,0.882 -2.436,1.566l-0.348,-0.696l-1.102,2.088c-0.295,0.325 -0.568,0.673 -0.811,1.044c-0.818,1.021 -1.271,2.285 -1.276,3.596l1.566,-0.406c-0.279,-1.2 0.098,-2.453 0.985,-3.306l3.19,6.264c1.45,2.842 1.044,3.828 0.522,4.35l-1.218,1.218l0,1.856l3.364,-2.9c0.789,-0.603 1.294,-1.508 1.392,-2.494l0,-0.638l-2.204,1.856c0.401,-1.989 0.053,-4.054 -0.986,-5.8l3.538,2.494c1.34,1.137 3.005,1.804 4.756,1.914c1.044,0.012 2.053,-0.359 2.842,-1.044c0,0 1.276,-1.102 1.334,-1.682l-2.03,-1.914l0.232,0.754Z" style="fill:#fff;fill-rule:nonzero;"/><path d="M379.425,605.235l-5.8,-9.105c0.586,-0.505 0.888,-1.265 0.812,-2.03l0,-0.522l-3.654,3.654c-0.098,0.342 -0.098,0.701 0,1.044l0,0.29l1.45,-1.044l5.394,9.221c-0.644,0.458 -0.963,1.253 -0.812,2.03l0,0.522l3.596,-3.596c0.284,-0.382 0.429,-0.858 0.406,-1.334l0,-0.464l-1.392,1.334Z" style="fill:#fff;fill-rule:nonzero;"/><path d="M387.719,346.911c9.57,-5.22 13.339,-19.488 13.339,-19.488c0,0 -17.051,12.76 -33.523,1.972c7.366,1.038 14.709,-2.03 19.14,-8.003c10.788,3.711 20.067,8.409 37.003,-0.696c-3.19,15.891 -20.59,22.213 -20.59,22.213c7.366,3.828 13.688,6.902 19.082,24.881c-9.048,-2.03 -27.781,-6.496 -34.683,-21.169l0.232,0.29Zm3.422,102.367l-0,-15.718c2.992,2.825 6.548,4.977 10.439,6.322c-4.21,2.169 -7.864,5.29 -10.671,9.106l0.232,0.29Zm18.095,6.438c-4.234,2.958 -16.007,12.295 -13.571,26.563c-8.7,-12.122 -11.252,-33.987 16.645,-43.267c-21.227,-4.64 -27.607,-15.427 -17.399,-28.999c8.119,20.415 20.473,12.18 21.865,9.86c3.712,7.597 7.308,25.867 -7.888,35.553l0.348,0.29Zm-3.364,44.31c8.352,3.828 5.104,21.402 -12.411,26.796c4.929,-7.076 2.146,-21.518 5.799,-25.694c2.228,0.627 4.617,0.105 6.38,-1.392l0.232,0.29Zm8.062,23.2c-3.95,2.186 -7.418,5.144 -10.208,8.699c-2.528,5.725 -3.891,11.896 -4.002,18.154l-3.885,-0c-0.169,-2.297 -1.996,-4.124 -4.292,-4.292c-7.523,-0.737 -13.711,-6.241 -15.312,-13.63c1.16,-2.667 2.204,-5.393 3.248,-8.061c3.7,-1.468 7.621,-2.291 11.6,-2.436c-0.743,3.242 -2.059,6.327 -3.886,9.105c7.795,0.615 15.427,-2.482 20.589,-8.351l6.148,0.812Zm-125.044,132.004c-57.999,-0 -98.25,-42.861 -104.397,-49.647c-0,-4.176 -1.914,-56.78 5.104,-56.316c4.407,0.812 -5.8,7.482 3.653,22.445c0,0.522 28.478,47.965 86.302,52.605c4.93,3.074 6.844,4.466 7.192,4.64l1.218,0.58l1.218,-0.58c2.946,-1.294 5.765,-2.865 8.409,-4.698c50.227,-4.408 80.096,-42.629 84.33,-49.125c11.6,-15.195 3.132,-23.199 5.8,-25.867c6.96,-1.508 5.278,50.401 5.278,56.316c-6.148,6.786 -46.167,49.589 -104.339,49.647l0.232,-0Zm-107.007,-105.151l-4.06,-0c-0.116,-6.252 -1.456,-12.418 -3.944,-18.154c-2.796,-3.566 -6.287,-6.53 -10.266,-8.699l5.8,-0.812c5.162,5.869 12.795,8.966 20.59,8.351c-1.827,-2.778 -3.144,-5.863 -3.886,-9.105c4.094,0.127 8.143,0.974 11.947,2.494c0.986,2.61 2.03,5.22 3.19,7.771c-1.131,3.73 -3.114,7.146 -5.8,9.976c-5.857,4.988 -12.759,2.146 -13.803,8.178l0.232,-0Zm-10.208,-50.343c1.241,0.975 2.772,1.503 4.35,1.508c0.789,-0.017 1.572,-0.15 2.32,-0.406c1.786,3.428 2.61,7.279 2.378,11.136c-0.11,5.057 1.05,10.063 3.364,14.558c-8.352,-1.16 -24.94,-18.56 -12.644,-26.796l0.232,0Zm14.964,-66.524l-0,14.616c-2.941,-3.463 -6.577,-6.27 -10.672,-8.236c3.926,-1.287 7.505,-3.468 10.44,-6.38l0.232,0Zm-18.328,22.214c-0.928,-0.58 -17.747,-9.918 -7.772,-36.133c0,-0 12.644,13.049 21.866,-9.86c17.805,23.199 -17.4,28.999 -17.4,28.999c26.853,8.526 26.041,30.507 16.646,43.267c0.945,-10.649 -4.344,-20.879 -13.572,-26.273l0.232,-0Zm5.8,-112.517c-10.156,-3.59 -17.829,-12.046 -20.415,-22.503c8.931,4.929 18.965,8.235 37.002,0.696c4.495,5.892 11.792,8.943 19.14,8.003c-10.562,6.119 -23.756,5.348 -33.523,-1.972c1.682,8.01 6.478,15.022 13.34,19.488c-2.228,4.651 -5.626,8.647 -9.86,11.599c-7.575,4.675 -15.956,7.9 -24.707,9.512c3.131,-10.555 7.771,-20.647 19.023,-24.823m-1.798,-64.784c2.082,6.536 5.458,12.591 9.918,17.805c5.666,5.348 12.754,8.955 20.415,10.382c-5.684,-11.344 -3.335,-25.067 5.8,-33.871c-2.668,13.514 0.348,25.171 7.656,28.999l-11.6,5.8c0,-0 4.524,2.9 8.758,5.394c-10.434,1.009 -20.891,-1.705 -29.521,-7.656c0.574,3.138 1.531,6.194 2.842,9.106c-23.49,0.232 -36.481,-29.347 -14.268,-35.959m52.778,25.519l35.147,0c4.739,0.162 8.712,-3.549 8.874,-8.288c0.006,-0.174 0.006,-0.354 0,-0.528l28.419,0c0.87,11.6 -1.044,15.196 -3.016,17.4l-71.221,-0c-2.889,-1.038 -5.609,-2.506 -8.062,-4.35c3.12,-1.769 6.426,-3.19 9.859,-4.234m30.508,-20.299l40.25,-0c0.348,1.856 0.754,4.176 1.102,6.611l-33.059,0c0,0 0.986,8.816 -7.133,8.816l-20.648,0c9.164,-7.482 17.864,-14.325 19.488,-15.427m-13.978,-7.366c0.07,-3.532 1.044,-6.989 2.842,-10.034l6.612,10.962c-2.546,1.74 -4.953,3.677 -7.192,5.8c-1.305,-2.019 -2.082,-4.333 -2.262,-6.728m18.153,-16.414l8.41,15.428l-7.946,-0l-7.945,-15.08c-0,0 2.436,-0.232 7.597,-0.348l-0.116,0Zm-24.881,-42.454l74.238,-0l10.788,19.139c-5.765,4.251 -12.864,6.31 -20.01,5.8c-7.012,-0.342 -13.884,-2.117 -20.183,-5.22c-18.676,-9.86 -22.561,-15.254 -44.833,-19.719m28.999,-48.661l3.074,5.394l-21.691,38.337l-2.03,-0l-2.03,-3.654l22.677,-40.077Zm41.469,37.931l-1.16,2.088l2.03,3.596l-24.533,-0c6.6,-5.417 15.323,-7.511 23.663,-5.684m-5.916,-14.094c2.425,0.192 4.24,2.314 4.049,4.745c-0.198,2.424 -2.32,4.233 -4.745,4.042c-2.308,-0.18 -4.083,-2.123 -4.06,-4.437c0.122,-2.395 2.071,-4.292 4.466,-4.35l0.29,0Zm33.407,-23.837l2.9,5.046l-22.851,39.845l-2.9,-5.046l22.851,-39.845Zm2.9,91.869c13.166,8.062 9.28,19.894 6.206,22.33l-13.049,-23.2c2.209,0.047 4.407,0.343 6.553,0.87l0.29,0Zm-68.032,124.233l-16.529,-5.8c1.624,-1.798 3.364,-3.77 7.656,-9.164c1.449,2.204 8.931,15.022 8.931,15.022l-0.058,-0.058Zm5.8,-65.48c0,-0 8.99,22.561 25.171,9.105c-7.754,10.689 -11.489,23.774 -10.555,36.945c-6.073,4.286 -11.884,8.932 -17.4,13.92c-6.844,-10.962 -35.843,-55.447 -43.847,-62l59.855,-0c-4.257,1.432 -8.729,2.134 -13.224,2.088l0,-0.058Zm26.795,-34.799c4.977,5.898 8.213,13.067 9.338,20.705c0,2.958 -1.856,22.619 -29.869,17.4c31.261,-4.234 23.315,-28.42 20.531,-38.105m-0.928,-24.708l8.41,15.428l-9.106,-0l-8.409,-15.428l9.105,0Zm26.39,-4.06l-1.508,-3.421c-4.895,-1.259 -9.582,-3.214 -13.92,-5.8c4.344,-0.905 8.45,-2.703 12.064,-5.278l8.525,15.195l-5.161,-0.696Zm-7.714,19.488l-8.41,-15.428l8.004,0l8.526,15.544l-8.12,-0.116Zm18.617,82.184c-3.074,-2.262 -12.527,-8.468 -28.999,-2.494c6.003,-10.434 8.694,-22.452 7.714,-34.451c5.104,13.107 9.628,25.403 21.575,33.233l-0.29,3.712Zm-21.401,31.087l-19.778,-0c4.983,-6.137 11.188,-11.171 18.212,-14.79c1.78,4.553 2.476,9.46 2.03,14.326l-0.464,0.464Zm-28.999,3.132l-15.138,-5.104c5.081,-5.475 10.695,-10.428 16.762,-14.79c-0,4.524 0.522,7.714 0.522,7.714c5.214,-5.162 9.97,-10.77 14.209,-16.762c21.692,-10.207 33.001,-1.16 34.799,4.002c-12.817,-10.323 -44.89,9.628 -50.98,24.476l-0.174,0.464Zm-2.552,-135.427c5.075,-2.308 9.796,-5.312 14.035,-8.931c1.462,0.174 2.947,0.174 4.408,-0c4.605,3.764 9.773,6.78 15.312,8.931l-33.755,0Zm-18.27,0l8.874,-15.659l3.132,1.566c4.124,2.03 8.491,3.526 12.992,4.466c-4.373,2.772 -9.147,4.866 -14.152,6.206l-1.276,3.421l-9.57,0Zm13.63,4.06l8.352,15.428l-7.83,-0l-8.41,-15.428l7.888,0Zm-93.377,146.446c-1.978,-3.109 -4.252,-6.026 -6.786,-8.7c-3.132,27.376 -16.124,20.764 -16.704,12.76c4.832,-8.311 10.846,-15.874 17.864,-22.445c-4.704,-0.041 -9.355,-0.928 -13.746,-2.61c0,-0 6.844,-8.932 12.934,-15.95c-6.27,1.804 -12.841,2.32 -19.314,1.508c10.672,-2.784 27.84,-6.96 34.161,-23.199c5.8,1.334 14.442,-1.914 21.808,-5.8c-17.307,11.089 -32.392,25.31 -44.485,41.933c28.999,4.408 36.829,-4.756 48.429,-24.998c-2.535,6.067 -2.964,12.801 -1.218,19.14c1.641,5.492 7.423,8.618 12.916,6.977c0.145,-0.04 0.284,-0.087 0.423,-0.133c-3.607,-13.444 2.146,-27.654 14.094,-34.799c2.494,3.77 8.874,13.455 9.86,15.021c-4.263,5.383 -8.851,10.498 -13.746,15.312l18.907,6.902l-75.397,-0l-0,19.081Zm-4.582,83.402c2.499,-2.581 4.785,-5.354 6.844,-8.294c1.107,12.458 3.677,24.742 7.655,36.597c-3.497,-0.87 -7.07,-1.375 -10.671,-1.508c-0.754,-2.204 1.16,-11.6 -3.538,-18.212c0.91,-1.223 1.398,-2.708 1.392,-4.233c0.093,-1.735 -0.441,-3.446 -1.508,-4.814l-0.174,0.464Zm80.037,110.196c-0.551,0.575 -1.154,1.097 -1.797,1.566l-2.61,-2.377c1.374,-0.604 2.679,-1.363 3.885,-2.262c1.555,-1.044 2.929,-2.338 4.06,-3.828l0,0.638c-0.62,2.25 -1.774,4.321 -3.364,6.031l-0.174,0.232Zm3.306,5.8l-1.392,-1.218c0.638,-0.58 1.102,-1.102 1.102,-1.102l0.29,2.32Zm0,-5.8c-0.365,1.416 -1.084,2.709 -2.088,3.77c-0.58,-0.464 -1.16,-1.044 -1.74,-1.566l1.276,-0.87c2.784,-2.203 2.784,-2.609 2.784,-2.609l-0.232,1.275Zm-60.144,-61.13c7.563,15.521 17.115,29.985 28.419,43.035c11.124,13.438 23.733,25.577 37.583,36.191c-29.301,-5.794 -55.139,-22.904 -71.918,-47.617c-4.118,-9.801 4.756,-20.415 5.974,-31.609l-0.058,0Zm140.066,43.035c10.921,-12.771 20.27,-26.813 27.839,-41.817c1.218,5.8 4.234,13.282 5.8,18.154c1.119,3.485 1.67,7.128 1.624,10.787c-16.582,25.392 -42.658,43.064 -72.382,49.067c13.682,-10.666 26.152,-22.799 37.177,-36.191l-0.058,0Zm-30.101,17.863c-1.728,-1.734 -2.97,-3.897 -3.596,-6.263l0,-0.638c2.384,2.929 5.51,5.173 9.048,6.496l-2.842,2.609c-0.94,-0.626 -1.792,-1.368 -2.552,-2.204l-0.058,0Zm-1.102,5.452c-0.812,0.696 -1.624,1.45 -2.436,2.088l0.464,-3.77c0.522,0.546 1.085,1.05 1.682,1.508l0.29,0.174Zm-0,-1.45c-0.98,-1.078 -1.694,-2.366 -2.088,-3.77l0,-1.217c0,-0 0,0.406 2.784,2.609c0.702,0.546 1.461,1.01 2.262,1.392l-2.03,1.798l-0.928,-0.812Zm62.29,-86.301c-0.406,1.218 -5.452,14.499 -6.844,16.761l-13.745,23.2l-22.62,-37.931l-21.981,36.887l19.719,33.001c-3.247,3.364 -6.437,6.496 -9.511,9.338c-2.123,-1.387 -4.066,-3.022 -5.8,-4.872c-2.158,-2.367 -3.724,-5.209 -4.582,-8.294c0.215,-1.322 0.545,-2.622 0.986,-3.886c0.452,-1.514 1.177,-2.929 2.146,-4.176c-0.986,-1.235 -1.711,-2.656 -2.146,-4.176c-0.621,-1.885 -1.05,-3.828 -1.276,-5.8c-0.226,1.972 -0.655,3.915 -1.276,5.8c-0.464,1.52 -1.212,2.935 -2.204,4.176c0.975,1.253 1.723,2.662 2.204,4.176l0.986,3.886c-0.864,3.097 -2.453,5.939 -4.64,8.294c-2.169,2.598 -4.854,4.709 -7.888,6.205c2.924,-0.376 5.69,-1.542 8.004,-3.363c1.531,-1.056 2.883,-2.349 4.002,-3.828l0,0.638c-0.655,2.354 -1.891,4.512 -3.596,6.263c-1.456,1.508 -3.161,2.744 -5.046,3.654c2.123,0.111 4.205,-0.62 5.8,-2.03c2.726,-2.203 2.784,-2.609 2.784,-2.609l0,1.217c-0.406,1.41 -1.137,2.703 -2.146,3.77c-0.934,0.981 -1.983,1.833 -3.132,2.552c1.218,-0.168 2.39,-0.603 3.422,-1.276c0.598,-0.458 1.16,-0.962 1.682,-1.508l0.58,5.046c-3.132,2.552 -5.8,4.814 -8.526,6.67l-12.933,-21.575l-12.412,20.705c-2.726,-1.972 -5.8,-4.292 -9.048,-7.018l0.464,-3.828c0.522,0.546 1.085,1.05 1.682,1.508c1.033,0.673 2.204,1.108 3.422,1.276c-1.148,-0.719 -2.198,-1.571 -3.132,-2.552c-1.009,-1.067 -1.74,-2.36 -2.146,-3.77l0,-1.217c0,-0 0,0.406 2.784,2.609c1.584,1.427 3.672,2.158 5.8,2.03c-1.885,-0.91 -3.59,-2.151 -5.046,-3.654c-1.705,-1.751 -2.94,-3.909 -3.596,-6.263l0,-0.638c1.131,1.49 2.506,2.784 4.06,3.828c2.291,1.827 5.04,2.987 7.946,3.363c-3.033,-1.496 -5.719,-3.607 -7.888,-6.205c-2.157,-2.367 -3.723,-5.209 -4.582,-8.294c0.238,-1.317 0.569,-2.616 0.986,-3.886c0.482,-1.514 1.23,-2.923 2.204,-4.176c-0.992,-1.241 -1.74,-2.656 -2.204,-4.176c-0.62,-1.885 -1.049,-3.828 -1.276,-5.8c-0.226,1.972 -0.655,3.915 -1.276,5.8c-0.435,1.52 -1.16,2.941 -2.146,4.176c0.969,1.247 1.694,2.662 2.146,4.176l0.986,3.886c-0.858,3.085 -2.424,5.927 -4.582,8.294c-1.432,1.566 -3.004,3.004 -4.697,4.292c-3.074,-2.958 -6.322,-6.148 -9.628,-9.686l19.081,-32.073l-22.387,-36.887l-22.155,37.293c-5.597,-8.468 -10.469,-17.394 -14.558,-26.679c-1.044,-2.552 -4.872,-11.6 -5.8,-14.442l19.836,-33.349l-21.576,-36.249l20.242,-0c-0.83,1.827 -1.949,3.509 -3.306,4.988c-2.181,2.581 -4.866,4.692 -7.888,6.206c2.9,-0.389 5.649,-1.549 7.946,-3.364c1.554,-1.044 2.929,-2.338 4.06,-3.828l-0,0.638c-0.656,2.355 -1.891,4.512 -3.596,6.264c-1.444,1.496 -3.126,2.731 -4.988,3.654c2.123,0.081 4.193,-0.644 5.8,-2.03c2.726,-2.204 2.784,-2.668 2.784,-2.668l-0,1.218c-0.406,1.426 -1.143,2.737 -2.146,3.828c-0.934,0.98 -1.984,1.832 -3.132,2.551c1.218,-0.203 2.384,-0.655 3.422,-1.334c0.603,-0.429 1.171,-0.916 1.682,-1.449l1.218,10.265l1.218,-10.265c0.51,0.533 1.078,1.02 1.682,1.449c1.038,0.679 2.203,1.131 3.421,1.334c-1.148,-0.719 -2.198,-1.571 -3.131,-2.551c-1.004,-1.091 -1.74,-2.402 -2.146,-3.828l-0,-1.218c-0,-0 -0,0.464 2.783,2.668c1.601,1.392 3.678,2.122 5.8,2.03c-1.861,-0.923 -3.543,-2.158 -4.988,-3.654c-1.705,-1.752 -2.94,-3.909 -3.595,-6.264l-0,-0.812c1.131,1.49 2.505,2.784 4.059,3.828c2.297,1.815 5.046,2.975 7.946,3.364c-3.021,-1.514 -5.707,-3.625 -7.888,-6.206c-1.357,-1.479 -2.476,-3.161 -3.305,-4.988l40.772,-0c-0.852,1.827 -1.989,3.509 -3.364,4.988c-2.169,2.598 -4.854,4.709 -7.887,6.206c2.905,-0.377 5.655,-1.537 7.945,-3.364c1.555,-1.044 2.929,-2.338 4.06,-3.828l0,0.638c-0.655,2.355 -1.89,4.512 -3.596,6.264c-1.455,1.502 -3.16,2.743 -5.045,3.654c2.122,0.092 4.199,-0.638 5.799,-2.03c2.784,-2.204 2.784,-2.668 2.784,-2.668l0,1.218c-0.371,1.426 -1.084,2.743 -2.088,3.828c-0.933,0.98 -1.983,1.832 -3.131,2.551c1.217,-0.203 2.383,-0.655 3.421,-1.334c0.604,-0.429 1.172,-0.916 1.682,-1.449l1.218,10.265l1.218,-10.265c0.511,0.533 1.079,1.02 1.682,1.449c1.038,0.679 2.204,1.131 3.422,1.334c-1.148,-0.719 -2.198,-1.571 -3.132,-2.551c-1.003,-1.085 -1.717,-2.402 -2.088,-3.828l0,-1.218c0,-0 0,0.464 2.784,2.668c1.601,1.392 3.677,2.122 5.8,2.03c-1.885,-0.911 -3.59,-2.152 -5.046,-3.654c-1.705,-1.752 -2.94,-3.909 -3.596,-6.264l0,-0.638c1.131,1.49 2.506,2.784 4.06,3.828c2.297,1.815 5.046,2.975 7.946,3.364c-3.033,-1.497 -5.719,-3.608 -7.888,-6.206c-1.374,-1.479 -2.511,-3.161 -3.364,-4.988l41.295,-0c-0.852,1.827 -1.989,3.509 -3.364,4.988c-2.169,2.598 -4.854,4.709 -7.888,6.206c2.906,-0.377 5.655,-1.537 7.946,-3.364c1.555,-1.044 2.929,-2.338 4.06,-3.828l0,0.638c-0.655,2.355 -1.891,4.512 -3.596,6.264c-1.456,1.502 -3.161,2.743 -5.046,3.654c2.117,0.075 4.188,-0.65 5.8,-2.03c2.726,-2.204 2.726,-2.668 2.726,-2.668l0,1.218c-0.406,1.426 -1.143,2.737 -2.146,3.828c-0.934,0.98 -1.983,1.832 -3.132,2.551c1.218,-0.203 2.384,-0.655 3.422,-1.334c0.603,-0.429 1.172,-0.916 1.682,-1.449l1.218,10.265l1.276,-10.265c0.481,0.545 1.027,1.032 1.624,1.449c1.038,0.667 2.204,1.12 3.422,1.334c-1.137,-0.73 -2.187,-1.589 -3.132,-2.551c-1.003,-1.085 -1.717,-2.402 -2.088,-3.828l0,-1.218c0,-0 0,0.464 2.784,2.668c1.601,1.392 3.677,2.122 5.8,2.03c-1.885,-0.911 -3.59,-2.152 -5.046,-3.654c-1.699,-1.746 -2.917,-3.904 -3.538,-6.264l0,-0.638c1.131,1.49 2.506,2.784 4.06,3.828c2.297,1.815 5.046,2.975 7.946,3.364c-3.034,-1.497 -5.719,-3.608 -7.888,-6.206c-1.375,-1.479 -2.511,-3.161 -3.364,-4.988l41.411,-0c-0.853,1.827 -1.99,3.509 -3.364,4.988c-2.169,2.598 -4.855,4.709 -7.888,6.206c2.906,-0.377 5.655,-1.537 7.946,-3.364c1.554,-1.044 2.929,-2.338 4.06,-3.828l-0,0.638c-0.656,2.355 -1.891,4.512 -3.596,6.264c-1.456,1.502 -3.161,2.743 -5.046,3.654c2.123,0.092 4.199,-0.638 5.8,-2.03c2.784,-2.204 2.784,-2.668 2.784,-2.668l-0,1.218c-0.371,1.426 -1.085,2.743 -2.088,3.828c-0.946,0.962 -1.995,1.821 -3.132,2.551c1.218,-0.214 2.384,-0.667 3.422,-1.334c0.597,-0.417 1.142,-0.904 1.624,-1.449l1.276,10.265l1.218,-10.265c0.51,0.533 1.078,1.02 1.682,1.449c1.038,0.679 2.204,1.131 3.422,1.334c-1.149,-0.719 -2.199,-1.571 -3.132,-2.551c-1.004,-1.091 -1.74,-2.402 -2.146,-3.828l-0,-1.276c-0,-0 -0,0.464 2.784,2.668c1.6,1.392 3.677,2.122 5.799,2.03c-1.884,-0.911 -3.59,-2.152 -5.045,-3.654c-1.706,-1.752 -2.941,-3.909 -3.596,-6.264l-0,-0.58c1.131,1.49 2.505,2.784 4.06,3.828c2.291,1.827 5.04,2.987 7.945,3.364c-3.033,-1.497 -5.718,-3.608 -7.887,-6.206c-1.375,-1.479 -2.512,-3.161 -3.364,-4.988l20.067,-0l-21.401,36.307l19.545,35.263Zm9.222,-123.769l-0,46.399l-191.395,0l0,-46.399l83.808,0l13.224,4.756c0.359,-1.629 0.864,-3.219 1.508,-4.756l92.855,0Zm10.788,104.397c-3.596,4.06 -3.364,16.82 -3.538,18.212c-3.538,0.139 -7.053,0.626 -10.498,1.45c3.747,-11.153 6.258,-22.689 7.482,-34.393l-0,-2.262c1.989,2.929 4.239,5.666 6.728,8.178c-1.079,1.281 -1.671,2.905 -1.682,4.582c0.011,1.56 0.545,3.068 1.508,4.291l-0,-0.058Zm-53.881,-138.732c5.15,6.688 7.256,15.231 5.8,23.548c5.8,-0 17.399,-5.278 10.092,-23.954c3.48,5.8 11.599,18.502 17.399,21.634c9.703,4.93 20.856,6.229 31.435,3.654c-8.647,-11.252 -18.356,-21.645 -28.999,-31.029c-4.988,-4.524 -14.035,-9.802 -15.485,-11.194c2.493,1.16 13.687,8.062 21.807,5.8c2.581,5.655 6.577,10.55 11.6,14.209c6.936,4.159 14.522,7.117 22.445,8.758c-6.473,0.882 -13.055,0.371 -19.314,-1.508c5.8,7.018 12.934,15.95 12.934,15.95c-4.408,1.618 -9.053,2.499 -13.745,2.61c6.791,6.716 12.556,14.395 17.109,22.793c0,-0 0.406,6.844 -5.8,7.192c-6.206,0.348 -10.556,-12.818 -10.729,-20.126c-2.373,2.541 -4.6,5.214 -6.67,8.004l-0,-17.979l-49.183,-0c1.966,-8.016 1.705,-16.42 -0.754,-24.302l0.058,-4.06Zm27.085,-86.997c4.646,4.286 7.732,9.999 8.758,16.239c0.267,6.253 -1.026,12.47 -3.77,18.096c7.911,-1.624 15.231,-5.371 21.17,-10.846c4.46,-5.214 7.835,-11.269 9.917,-17.805c7.685,1.427 12.76,8.81 11.333,16.495c-0.209,1.113 -0.545,2.192 -1.009,3.224c-1.972,4.53 -5.017,8.514 -8.874,11.6c-4.767,3.039 -10.242,4.779 -15.891,5.046c1.31,-2.912 2.267,-5.968 2.842,-9.106c-29,17.4 -47.095,2.146 -47.095,2.146c15.196,-2.146 27.665,-11.774 22.619,-35.089m-143.951,-76.152c-3.306,6.554 -8.178,7.54 -9.976,10.092c-1.16,-5.8 4.234,-8.758 6.264,-12.818c1.612,-3.909 2.018,-8.212 1.16,-12.353c3.456,4.338 4.419,10.149 2.552,15.369l-0,-0.29Zm221.669,144.996c-3.074,8.526 -3.77,20.067 -18.617,27.317c-1.624,-7.25 -4.35,-19.603 -14.964,-24.881c11.524,-6.241 17.846,-19.076 15.776,-32.015c-9.906,7.812 -22.962,10.382 -35.089,6.902c-0,-0 33.929,-2.552 35.727,-29c0.626,-14.412 -7.871,-27.671 -21.228,-33.117c-9.836,-4.616 -17.956,-12.231 -23.199,-21.749c-0,0 -11.6,22.619 12.354,30.739c-7.326,3.312 -10.579,11.936 -7.268,19.261c0.116,0.256 0.238,0.505 0.366,0.749c2.03,-3.248 5.092,-5.725 8.699,-7.018c-1.6,5.086 -4.135,9.825 -7.481,13.977c-2.773,2.286 -5.812,4.234 -9.048,5.8c7.134,-25.577 -20.183,-34.799 -20.183,-34.799l0.232,0.928c-0,3.654 2.899,27.955 -11.6,28.999c-4.576,0.714 -9.135,-1.363 -11.6,-5.277c5.255,-1.526 9.019,-6.143 9.454,-11.6c0.406,-11.6 -9.338,-19.952 -14.5,-19.952l27.028,-47.674l-28.71,-50.633l-24.649,43.499c-0.504,-0.029 -1.003,-0.029 -1.508,-0c1.143,-1.392 1.781,-3.132 1.798,-4.93c-0.568,-4.999 -5.075,-8.589 -10.074,-8.021c-4.217,0.476 -7.546,3.805 -8.021,8.021c0.011,1.821 0.643,3.579 1.798,4.988c-1.079,0.093 -2.146,0.29 -3.19,0.58l-24.824,-44.137l-28.361,50.053l2.088,3.654l-11.078,-0c4.176,-0 13.282,-28.535 -8.467,-36.191c6.38,16.877 -6.38,19.313 -6.38,28.593c-0.064,2.964 1.137,5.811 3.306,7.83l3.77,4.234c1.432,1.519 3.201,2.691 5.162,3.421c2.667,1.044 15.195,3.712 20.705,5.22l17.399,30.681c-3.526,-0.058 -7.046,0.099 -10.555,0.464c-7.946,1.45 -13.572,11.6 -13.572,20.01c0.308,3.758 1.699,7.342 4.002,10.324l0.638,0.812c-2.668,2.087 -5.8,4.639 -9.976,7.887l-5.046,0c-14.441,-0.928 -12.759,-27.259 -12.353,-31.377c-0,0 -28.245,8.294 -20.184,34.451c-3.236,-1.566 -6.275,-3.514 -9.047,-5.8c-3.37,-4.089 -5.945,-8.769 -7.598,-13.803c3.59,1.316 6.652,3.787 8.7,7.018c3.787,-6.949 1.223,-15.648 -5.725,-19.436c-0.383,-0.208 -0.777,-0.4 -1.177,-0.574c23.663,-8.352 12.353,-30.739 12.353,-30.739c-5.243,9.518 -13.362,17.133 -23.199,21.749c-13.409,5.388 -21.975,18.624 -21.401,33.059c1.624,16.646 16.877,26.564 35.785,29c-18.038,4.929 -22.736,-0 -35.147,-6.902c-2.019,12.928 4.292,25.739 15.775,32.015c-8.352,4.176 -12.295,12.992 -14.963,24.881c-15.254,-7.018 -18.85,-27.491 -18.85,-27.491c0,-0 -12.933,43.847 23.896,46.805c-8.938,5.55 -14.889,14.847 -16.182,25.287c-1.16,38.975 25.577,38.569 36.075,55.852c2.175,5.533 2.697,11.577 1.508,17.4c-3.99,0.029 -7.221,3.259 -7.25,7.25c-0.006,0.73 0.11,1.455 0.348,2.145c-1.612,0.917 -2.998,2.187 -4.06,3.712c-2.528,3.95 -2.963,8.892 -1.16,13.224c0.754,1.873 1.671,3.677 2.726,5.394c-7.54,1.508 -14.267,3.306 -14.267,3.306c11.599,6.322 20.357,7.714 20.473,33.465l8.468,-0c-0.406,3.248 -0.812,7.366 -1.16,10.845c-0.638,7.366 -0.58,41.353 -0.58,41.353c-0,0 43.789,52.779 109.327,52.895c60.434,-0 102.251,-44.833 109.211,-52.895c0.608,-17.417 0.029,-34.857 -1.74,-52.198l8.293,-0c0,-12.18 -1.276,-23.2 20.532,-33.813c-7.308,-1.508 -6.67,-1.682 -14.268,-3.074c0.986,-1.566 9.57,-14.384 -2.552,-22.214c0.238,-0.69 0.354,-1.415 0.348,-2.145c-0.029,-3.991 -3.259,-7.221 -7.25,-7.25c0,-0 -2.204,-11.948 1.334,-17.4c6.438,-12.353 38.221,-20.009 36.075,-55.852c-1.293,-10.44 -7.244,-19.737 -16.181,-25.287c22.387,-1.508 30.507,-22.794 23.953,-46.805" style="fill:#fff;fill-rule:nonzero;"/><path d="M355.24,519.572l-0,-0.638c1.131,1.49 2.505,2.784 4.06,3.828c2.291,1.827 5.04,2.987 7.945,3.364c-3.045,-1.601 -5.718,-3.84 -7.829,-6.554c-2.164,-2.361 -3.735,-5.203 -4.582,-8.294c0.232,-1.299 0.562,-2.581 0.986,-3.828c0.475,-1.531 1.223,-2.964 2.204,-4.234c-0.992,-1.241 -1.74,-2.656 -2.204,-4.176c-0.621,-1.885 -1.05,-3.827 -1.276,-5.799c-0.226,1.972 -0.656,3.914 -1.276,5.799c-0.435,1.52 -1.16,2.941 -2.146,4.176c0.974,1.265 1.699,2.703 2.146,4.234l0.986,3.828c-0.847,3.091 -2.419,5.933 -4.582,8.294c-2.169,2.598 -4.855,4.709 -7.888,6.206c2.906,-0.377 5.655,-1.537 7.946,-3.364c1.554,-1.044 2.929,-2.338 4.06,-3.828l-0,0.986c-0.644,2.36 -1.879,4.518 -3.596,6.264c-1.456,1.502 -3.161,2.743 -5.046,3.654c2.129,0.127 4.217,-0.604 5.8,-2.03c2.784,-2.146 2.784,-2.61 2.784,-2.61l-0,1.218c-0.366,1.415 -1.085,2.708 -2.088,3.77c-0.951,0.974 -2.001,1.85 -3.132,2.609c1.218,-0.214 2.384,-0.667 3.422,-1.334c0.58,-0.44 1.125,-0.922 1.624,-1.449l1.276,10.265l1.218,-10.265c0.528,0.516 1.09,1.003 1.682,1.449c1.038,0.679 2.204,1.131 3.422,1.334c-1.143,-0.742 -2.193,-1.618 -3.132,-2.609c-1.01,-1.068 -1.74,-2.361 -2.146,-3.77l-0,-1.218c-0,-0 -0,0.464 2.784,2.61c1.583,1.426 3.671,2.157 5.799,2.03c-1.884,-0.911 -3.59,-2.152 -5.045,-3.654c-1.926,-1.677 -3.37,-3.84 -4.176,-6.264" style="fill:#fff;fill-rule:nonzero;"/><path d="M310.813,519.572l0,-0.638c1.131,1.49 2.506,2.784 4.06,3.828c2.297,1.815 5.046,2.975 7.946,3.364c-3.057,-1.613 -5.742,-3.846 -7.888,-6.554c-2.163,-2.303 -3.753,-5.087 -4.64,-8.12c0.232,-1.299 0.563,-2.581 0.986,-3.828c0.476,-1.519 1.201,-2.952 2.146,-4.234c-0.957,-1.252 -1.682,-2.668 -2.146,-4.176c-0.621,-1.885 -1.05,-3.827 -1.276,-5.799c-0.226,1.972 -0.655,3.914 -1.276,5.799c-0.429,1.52 -1.16,2.941 -2.146,4.176c0.975,1.265 1.699,2.703 2.146,4.234l0.986,3.828c-0.847,3.091 -2.418,5.933 -4.582,8.294c-2.181,2.581 -4.866,4.692 -7.888,6.206c2.9,-0.389 5.649,-1.549 7.946,-3.364c1.555,-1.044 2.929,-2.338 4.06,-3.828l0,0.812c-0.644,2.36 -1.879,4.518 -3.596,6.264c-1.444,1.496 -3.126,2.731 -4.988,3.654c2.129,0.121 4.217,-0.609 5.8,-2.03c2.726,-2.146 2.784,-2.61 2.784,-2.61l0,1.218c-0.406,1.409 -1.137,2.702 -2.146,3.77c-0.939,0.991 -1.989,1.867 -3.132,2.609c1.218,-0.203 2.384,-0.655 3.422,-1.334c0.592,-0.446 1.154,-0.933 1.682,-1.449l1.218,10.265l1.218,-10.265c0.528,0.516 1.09,1.003 1.682,1.449c1.038,0.679 2.204,1.131 3.422,1.334c-1.143,-0.742 -2.192,-1.618 -3.132,-2.609c-1.009,-1.068 -1.74,-2.361 -2.146,-3.77l0,-1.218c0,-0 0,0.464 2.784,2.61c1.583,1.426 3.671,2.157 5.8,2.03c-1.862,-0.923 -3.544,-2.158 -4.988,-3.654c-1.908,-1.682 -3.329,-3.846 -4.118,-6.264" style="fill:#fff;fill-rule:nonzero;"/><path d="M266.386,519.572l0,-0.638c1.131,1.49 2.506,2.784 4.06,3.828c2.291,1.827 5.04,2.987 7.946,3.364c-3.045,-1.601 -5.719,-3.84 -7.83,-6.554c-2.163,-2.361 -3.735,-5.203 -4.582,-8.294c0.232,-1.299 0.563,-2.581 0.986,-3.828c0.476,-1.531 1.224,-2.964 2.204,-4.234c-0.992,-1.241 -1.74,-2.656 -2.204,-4.176c-0.62,-1.885 -1.049,-3.827 -1.276,-5.799c-0.226,1.972 -0.655,3.914 -1.276,5.799c-0.435,1.52 -1.16,2.941 -2.146,4.176c0.975,1.265 1.7,2.703 2.146,4.234l0.986,3.828c-0.846,3.091 -2.418,5.933 -4.582,8.294c-2.169,2.598 -4.854,4.709 -7.887,6.206c2.9,-0.389 5.649,-1.549 7.945,-3.364c1.555,-1.044 2.929,-2.338 4.06,-3.828l0,0.986c-0.609,2.36 -1.827,4.524 -3.538,6.264c-1.455,1.502 -3.16,2.743 -5.045,3.654c2.128,0.127 4.216,-0.604 5.799,-2.03c2.784,-2.146 2.784,-2.61 2.784,-2.61l0,1.218c-0.365,1.415 -1.084,2.708 -2.088,3.77c-0.951,0.974 -2.001,1.85 -3.132,2.609c1.218,-0.214 2.384,-0.667 3.422,-1.334c0.58,-0.44 1.126,-0.922 1.624,-1.449l1.276,10.265l1.218,-10.265c0.528,0.516 1.091,1.003 1.682,1.449c1.038,0.679 2.204,1.131 3.422,1.334c-1.142,-0.742 -2.192,-1.618 -3.132,-2.609c-1.009,-1.068 -1.74,-2.361 -2.146,-3.77l0,-1.218c0,-0 0,0.464 2.842,2.61c1.584,1.426 3.671,2.157 5.8,2.03c-1.885,-0.911 -3.59,-2.152 -5.046,-3.654c-1.972,-1.665 -3.451,-3.828 -4.292,-6.264" style="fill:#fff;fill-rule:nonzero;"/><path d="M221.96,519.572l-0,-0.638c1.131,1.49 2.505,2.784 4.059,3.828c2.297,1.815 5.046,2.975 7.946,3.364c-3.056,-1.613 -5.742,-3.846 -7.888,-6.554c-2.163,-2.361 -3.735,-5.203 -4.581,-8.294c0.232,-1.299 0.562,-2.581 0.986,-3.828c0.475,-1.519 1.2,-2.952 2.146,-4.234c-0.957,-1.252 -1.682,-2.668 -2.146,-4.176c-0.621,-1.885 -1.05,-3.827 -1.276,-5.799c-0.227,1.972 -0.656,3.914 -1.276,5.799c-0.435,1.52 -1.16,2.941 -2.146,4.176c0.974,1.265 1.699,2.703 2.146,4.234l0.986,3.828c-0.847,3.091 -2.419,5.933 -4.582,8.294c-2.181,2.581 -4.866,4.692 -7.888,6.206c2.9,-0.389 5.649,-1.549 7.946,-3.364c1.554,-1.044 2.929,-2.338 4.06,-3.828l-0,0.986c-0.644,2.36 -1.88,4.518 -3.596,6.264c-1.444,1.496 -3.126,2.731 -4.988,3.654c2.128,0.121 4.216,-0.609 5.8,-2.03c2.726,-2.146 2.784,-2.61 2.784,-2.61l-0,1.218c-0.406,1.409 -1.137,2.702 -2.146,3.77c-0.94,0.991 -1.99,1.867 -3.132,2.609c1.218,-0.203 2.384,-0.655 3.422,-1.334c0.591,-0.446 1.154,-0.933 1.682,-1.449l1.218,10.265l1.218,-10.265c0.527,0.516 1.09,1.003 1.682,1.449c1.038,0.679 2.203,1.131 3.421,1.334c-1.142,-0.742 -2.192,-1.618 -3.131,-2.609c-1.01,-1.068 -1.74,-2.361 -2.146,-3.77l-0,-1.218c-0,-0 -0,0.464 2.783,2.61c1.584,1.426 3.672,2.157 5.8,2.03c-1.861,-0.923 -3.543,-2.158 -4.988,-3.654c-1.925,-1.677 -3.369,-3.84 -4.175,-6.264" style="fill:#fff;fill-rule:nonzero;"/><path d="M287.092,431.588c-8.468,0 -15.335,-6.843 -15.37,-15.311c-0.006,-3.306 1.073,-6.525 3.074,-9.164c-0.058,0.731 -0.058,1.473 0,2.204c-0.47,6.902 4.744,12.881 11.646,13.351c6.902,0.47 12.882,-4.744 13.351,-11.646c0.041,-0.568 0.041,-1.137 0,-1.705c0.058,-0.731 0.058,-1.473 0,-2.204c2.001,2.639 3.08,5.858 3.074,9.164c-0.029,8.491 -6.936,15.346 -15.422,15.317c-0.115,0 -0.237,0 -0.353,-0.006m6.902,-32.711c1.125,2.262 1.797,4.727 1.971,7.25c0,4.802 -3.897,8.7 -8.699,8.7c-4.803,-0 -8.7,-3.898 -8.7,-8.7c0.162,-2.529 0.795,-5.005 1.856,-7.308c-7.076,2.935 -11.768,9.744 -12.006,17.4c-0.023,10.347 8.346,18.751 18.693,18.774c10.347,0.017 18.751,-8.352 18.774,-18.699c0.018,-7.714 -4.703,-14.656 -11.889,-17.475l-0,0.058Z" style="fill:#fff;fill-rule:nonzero;"/><path d="M227.643,431.588c-8.467,0 -15.334,-6.843 -15.369,-15.311c-0.006,-3.306 1.073,-6.525 3.074,-9.164c-0.058,0.731 -0.058,1.473 -0,2.204c-0.47,6.902 4.744,12.881 11.646,13.351c6.902,0.47 12.881,-4.744 13.351,-11.646c0.041,-0.568 0.041,-1.137 0,-1.705c0.087,-0.731 0.087,-1.473 0,-2.204c2.024,2.622 3.103,5.852 3.074,9.164c-0.029,8.491 -6.937,15.346 -15.422,15.317c-0.116,0 -0.238,0 -0.354,-0.006m6.844,-32.711c1.125,2.262 1.798,4.727 1.972,7.25c0,4.802 -3.897,8.7 -8.7,8.7c-4.802,-0 -8.699,-3.898 -8.699,-8.7c0.174,-2.534 0.823,-5.017 1.914,-7.308c-7.105,2.906 -11.832,9.727 -12.064,17.4c-0.023,10.347 8.346,18.751 18.693,18.774c10.347,0.017 18.751,-8.352 18.774,-18.699c0.017,-7.714 -4.704,-14.656 -11.89,-17.475l0,0.058Z" style="fill:#fff;fill-rule:nonzero;"/><path d="M346.656,431.588c-8.468,0 -15.341,-6.843 -15.37,-15.311c-0.005,-3.306 1.073,-6.525 3.074,-9.164c-0.087,0.731 -0.087,1.473 0,2.204c-0.469,6.902 4.745,12.881 11.646,13.351c6.902,0.47 12.882,-4.744 13.352,-11.646c0.04,-0.568 0.04,-1.137 -0,-1.705c0.058,-0.731 0.058,-1.473 -0,-2.204c2.001,2.639 3.079,5.858 3.074,9.164c-0.029,8.491 -6.937,15.346 -15.422,15.317c-0.116,0 -0.238,0 -0.354,-0.006m6.844,-32.711c1.125,2.262 1.798,4.727 1.972,7.25c-0.557,4.802 -4.901,8.247 -9.703,7.696c-4.043,-0.469 -7.227,-3.653 -7.697,-7.696c0.174,-2.534 0.824,-5.017 1.914,-7.308c-7.076,2.935 -11.768,9.744 -12.005,17.4c-0.024,10.347 8.345,18.751 18.692,18.774c10.347,0.017 18.751,-8.352 18.774,-18.699c0.018,-7.714 -4.703,-14.656 -11.889,-17.475l-0.058,0.058Z" style="fill:#fff;fill-rule:nonzero;"/><path d="M271.606,302.658c0,1.763 1.427,3.19 3.19,3.19c1.74,-0.029 3.132,-1.45 3.132,-3.19c-0,-1.728 -1.404,-3.132 -3.132,-3.132c-1.74,0 -3.161,1.392 -3.19,3.132" style="fill:#fff;fill-rule:nonzero;"/><clipPath id="_clip1"><path d="M271.606,302.658c0,1.757 1.427,3.19 3.19,3.19c1.74,-0.029 3.132,-1.45 3.132,-3.19c-0,-1.728 -1.404,-3.132 -3.132,-3.132c-1.734,0 -3.155,1.392 -3.19,3.132Z" clip-rule="nonzero"/></clipPath><g clip-path="url(#_clip1)"><path d="M277.928,302.658c-0,1.74 -1.392,3.161 -3.132,3.19c-1.763,-0 -3.19,-1.427 -3.19,-3.19c0.029,-1.74 1.45,-3.132 3.19,-3.132c1.728,0 3.132,1.404 3.132,3.132" style="fill:#fff;fill-rule:nonzero;"/></g><path d="M284.25,302.774c-0,1.728 1.403,3.132 3.132,3.132c1.728,-0 3.132,-1.404 3.132,-3.132c-0,-1.728 -1.404,-3.132 -3.132,-3.132c-1.729,0 -3.132,1.404 -3.132,3.132" style="fill:#fff;fill-rule:nonzero;"/><clipPath id="_clip2"><path d="M284.25,302.774c-0,1.728 1.403,3.132 3.132,3.132c1.728,-0 3.132,-1.404 3.132,-3.132c-0,-1.728 -1.404,-3.132 -3.132,-3.132c-1.729,0 -3.132,1.404 -3.132,3.132Z" clip-rule="nonzero"/></clipPath><g clip-path="url(#_clip2)"><path d="M290.514,302.774c-0,1.728 -1.404,3.132 -3.132,3.132c-1.729,-0 -3.132,-1.404 -3.132,-3.132c-0,-1.728 1.403,-3.132 3.132,-3.132c1.728,0 3.132,1.404 3.132,3.132" style="fill:#fff;fill-rule:nonzero;"/></g><path d="M309.943,482.221l-22.097,-36.307l-22.04,36.307l22.04,37.061l22.097,-37.061Z" style="fill:#fff;fill-rule:nonzero;"/><path d="M309.943,556.459l-22.097,-37.003l-22.04,37.003l22.04,37.061l22.097,-37.061Z" style="fill:#fff;fill-rule:nonzero;"/><path d="M354.37,482.221l-22.098,-36.307l-22.039,36.307l22.039,37.061l22.098,-37.061Z" style="fill:#fff;fill-rule:nonzero;"/><path d="M265.516,482.221l-22.097,-36.307l-22.039,36.307l22.039,37.061l22.097,-37.061Z" style="fill:#fff;fill-rule:nonzero;"/><path d="M193.656,588.01l-0.522,0.812c-0.133,0.301 -0.249,0.609 -0.348,0.928c-0.058,0.365 -0.058,0.736 0,1.102c-0.04,0.325 -0.04,0.661 0,0.986c0.116,0.243 0.25,0.475 0.406,0.696l-0.348,-0l-0.58,-0.464l-0.986,-0.348c-0.365,-0.058 -0.736,-0.058 -1.101,-0c-0.325,-0.058 -0.662,-0.058 -0.986,-0l-0.87,0.406l-0,-0.29c0.214,-0.244 0.388,-0.516 0.522,-0.812c0.185,-0.279 0.301,-0.598 0.348,-0.928c0.029,-0.389 0.029,-0.772 -0,-1.16c0.04,-0.308 0.04,-0.621 -0,-0.928l-0.348,-0.696l0.638,0.464l0.928,0.348l1.101,-0c0.325,0.04 0.662,0.04 0.986,-0l0.87,-0.406" style="fill:#fff;fill-rule:nonzero;"/><path d="M379.889,591.548l0.87,0.406l0.986,-0c0.365,0.058 0.737,0.058 1.102,-0c0.331,-0.076 0.644,-0.215 0.928,-0.406l0.638,-0.464l0.29,0.29c-0.139,0.22 -0.255,0.452 -0.348,0.696c-0.064,0.307 -0.064,0.62 -0,0.928c-0.058,0.382 -0.058,0.777 -0,1.16c0.046,0.33 0.162,0.649 0.348,0.928c0.156,0.278 0.354,0.533 0.58,0.754l-0,0.348c-0.267,-0.18 -0.563,-0.319 -0.87,-0.406c-0.325,-0.058 -0.661,-0.058 -0.986,-0c-0.365,-0.058 -0.737,-0.058 -1.102,-0l-0.928,0.348l-0.638,0.464l-0.29,-0c0.151,-0.215 0.267,-0.447 0.348,-0.696c0.064,-0.325 0.064,-0.662 0,-0.986c0.058,-0.366 0.058,-0.737 0,-1.102c-0.035,-0.337 -0.157,-0.656 -0.348,-0.928l-0.522,-0.812" style="fill:#fff;fill-rule:nonzero;"/><path d="M239.997,624.549l0.406,-0c-0.023,0.33 -0.023,0.655 0,0.986c-0.023,0.33 -0.023,0.655 0,0.986c0.064,0.371 0.203,0.725 0.406,1.044c0.128,0.313 0.331,0.585 0.58,0.812l0.58,0.464l0,0.348l-1.74,-0c-0.383,0.052 -0.754,0.174 -1.102,0.348l-0.812,0.522l-0.638,0.754l-0.348,-0c0.052,-0.308 0.052,-0.621 0,-0.928c0.058,-0.348 0.058,-0.696 0,-1.044c-0.11,-0.36 -0.243,-0.708 -0.406,-1.044c-0.168,-0.29 -0.359,-0.563 -0.58,-0.812l-0.58,-0.464l0,-0.348l0.754,-0c0.325,0.052 0.661,0.052 0.986,-0c0.696,-0.145 1.346,-0.447 1.914,-0.87c0.209,-0.238 0.4,-0.493 0.58,-0.754" style="fill:#fff;fill-rule:nonzero;"/><path d="M311.741,633.423l0.348,-0c0.128,0.301 0.284,0.591 0.464,0.87c0.162,0.289 0.377,0.545 0.638,0.753c0.296,0.25 0.626,0.441 0.986,0.58c0.284,0.169 0.603,0.267 0.928,0.29l0.986,0l-0,0.406l-0.696,0.29c-0.284,0.174 -0.534,0.389 -0.754,0.638c-0.267,0.273 -0.481,0.586 -0.638,0.928c-0.168,0.29 -0.284,0.604 -0.348,0.928c-0.029,0.308 -0.029,0.621 -0,0.928l-0.406,0c-0.11,-0.301 -0.249,-0.591 -0.406,-0.87c-0.186,-0.29 -0.418,-0.545 -0.696,-0.754c-0.273,-0.266 -0.586,-0.481 -0.928,-0.638l-0.928,-0.29l-0.812,0l0,-0.406l0.696,-0.29c0.278,-0.179 0.534,-0.394 0.754,-0.638c0.284,-0.266 0.516,-0.58 0.696,-0.928c0.157,-0.29 0.273,-0.603 0.348,-0.927l-0,-0.986" style="fill:#fff;fill-rule:nonzero;"/></g></svg>