<?xml version="1.0" encoding="UTF-8" standalone="no"?><!DOCTYPE svg PUBLIC "-//W3C//DTD SVG 1.1//EN" "http://www.w3.org/Graphics/SVG/1.1/DTD/svg11.dtd"><svg width="100%" height="100%" viewBox="0 0 11163 3292" version="1.1" xmlns="http://www.w3.org/2000/svg" xmlns:xlink="http://www.w3.org/1999/xlink" xml:space="preserve" xmlns:serif="http://www.serif.com/" style="fill-rule:evenodd;clip-rule:evenodd;stroke-miterlimit:2;"><g><path d="M849.221,804.971c-0,-0 100.096,-25.717 179.067,-11.025c78.049,14.696 14.687,63.362 14.687,63.362c-0,0 -78.046,44.996 -156.104,56.013c-78.05,14.696 -37.65,-89.071 -37.65,-89.071" style="fill:#bba551;fill-rule:nonzero;"/><path d="M849.221,804.971c-0,-0 100.096,-25.717 179.067,-11.025c78.049,14.696 14.687,63.362 14.687,63.362c-0,0 -78.046,44.996 -156.104,56.013c-78.05,14.696 -37.65,-89.071 -37.65,-89.071" style="fill:none;stroke:#bba551;stroke-width:0.86px;"/><path d="M570.067,469.796c-0,-0 -63.363,179.066 33.058,249.771c92.742,67.033 175.388,-22.042 190.088,-22.042c11.016,-3.667 -29.388,-25.708 -29.388,-25.708c-0,-0 -18.363,22.041 -63.367,33.062c-115.7,33.05 -152.429,-119.379 -115.7,-223.146c0,-4.591 -7.341,-19.287 -14.691,-11.937Z" style="fill:#bba551;fill-rule:nonzero;"/><path d="M570.067,469.796c-0,-0 -63.363,179.066 33.058,249.771c92.742,67.033 175.388,-22.042 190.088,-22.042c11.016,-3.667 -29.388,-25.708 -29.388,-25.708c-0,-0 -18.363,22.041 -63.367,33.062c-115.7,33.05 -152.429,-119.379 -115.7,-223.146c0,-4.591 -7.341,-19.287 -14.691,-11.937Z" style="fill:none;stroke:#bba551;stroke-width:1.19px;"/><path d="M718.825,399.088c0,-0 -119.375,179.062 -33.054,268.137c81.729,85.4 193.754,-0 208.45,-0c11.017,-0 -25.717,-29.388 -25.717,-29.388c0,0 -25.708,22.038 -78.05,25.717c-134.066,18.367 -130.392,-145.091 -63.362,-249.771c6.433,0 2.758,-18.366 -8.267,-14.695Z" style="fill:#bba551;fill-rule:nonzero;"/><path d="M718.825,399.088c0,-0 -119.375,179.062 -33.054,268.137c81.729,85.4 193.754,-0 208.45,-0c11.017,-0 -25.717,-29.388 -25.717,-29.388c0,0 -25.708,22.038 -78.05,25.717c-134.066,18.367 -130.392,-145.091 -63.362,-249.771c6.433,0 2.758,-18.366 -8.267,-14.695Z" style="fill:none;stroke:#bba551;stroke-width:1.19px;"/><path d="M818.921,786.6c-0,-0 -33.059,-223.142 89.071,-364.558c123.05,-141.409 197.433,-186.405 223.145,-264.463c25.709,-74.379 33.05,-145.083 25.709,-152.429c-7.346,-7.346 -14.688,29.388 -14.688,37.65c0,25.708 -18.366,96.417 -52.341,137.742c-81.734,115.7 -179.067,171.716 -226.821,246.091c-33.05,56.017 -100.088,163.459 -81.725,313.138c19.283,146.921 37.65,46.829 37.65,46.829Z" style="fill:#bba551;fill-rule:nonzero;"/><path d="M818.921,786.6c-0,-0 -33.059,-223.142 89.071,-364.558c123.05,-141.409 197.433,-186.405 223.145,-264.463c25.709,-74.379 33.05,-145.083 25.709,-152.429c-7.346,-7.346 -14.688,29.388 -14.688,37.65c0,25.708 -18.366,96.417 -52.341,137.742c-81.734,115.7 -179.067,171.716 -226.821,246.091c-33.05,56.017 -100.088,163.459 -81.725,313.138c19.283,146.921 37.65,46.829 37.65,46.829Z" style="fill:none;stroke:#bba551;stroke-width:1.19px;"/><path d="M1027.37,265.021c-63.363,-63.363 -48.671,-167.125 -0,-208.446c3.671,0 -0,-18.367 -7.35,-18.367c-0,0 -104.679,85.396 -37.646,204.771c7.342,14.696 18.367,29.388 29.383,41.325l15.613,-19.283Z" style="fill:#bba551;fill-rule:nonzero;"/><path d="M1027.37,265.021c-63.363,-63.363 -48.671,-167.125 -0,-208.446c3.671,0 -0,-18.367 -7.35,-18.367c-0,0 -104.679,85.396 -37.646,204.771c7.342,14.696 18.367,29.388 29.383,41.325l15.613,-19.283Z" style="fill:none;stroke:#bba551;stroke-width:1.19px;"/><path d="M863.913,473.467c-48.671,-63.359 -33.055,-156.105 14.695,-193.755c0,0 0,-18.366 -7.341,-18.366c-0,-0 -104.688,85.404 -37.659,204.775c3.68,7.346 11.021,18.371 14.7,25.712l15.605,-18.366Z" style="fill:#bba551;fill-rule:nonzero;"/><path d="M863.913,473.467c-48.671,-63.359 -33.055,-156.105 14.695,-193.755c0,0 0,-18.366 -7.341,-18.366c-0,-0 -104.688,85.404 -37.659,204.775c3.68,7.346 11.021,18.371 14.7,25.712l15.605,-18.366Z" style="fill:none;stroke:#bba551;stroke-width:1.19px;"/><path d="M1378.15,321.033c-0,0 45,223.146 -81.721,275.484c-119.375,48.67 -197.429,-78.054 -212.133,-85.4c-11.009,-7.35 41.329,-22.038 41.329,-22.038c-0,0 18.367,29.384 67.042,59.692c126.72,74.375 197.429,-89.075 171.712,-219.471c-1.833,-0.917 10.104,-20.2 13.771,-8.267Z" style="fill:#bba551;fill-rule:nonzero;"/><path d="M1378.15,321.033c-0,0 45,223.146 -81.721,275.484c-119.375,48.67 -197.429,-78.054 -212.133,-85.4c-11.009,-7.35 41.329,-22.038 41.329,-22.038c-0,0 18.367,29.384 67.042,59.692c126.72,74.375 197.429,-89.075 171.712,-219.471c-1.833,-0.917 10.104,-20.2 13.771,-8.267Z" style="fill:none;stroke:#bba551;stroke-width:1.19px;"/><path d="M841.879,793.946c0,-0 74.379,-226.813 290.171,-286.5c215.796,-59.688 320.483,-56.017 394.858,-119.371c74.388,-63.367 152.442,-193.762 137.742,-193.762c-14.688,-3.667 -44.988,33.058 -52.342,44.995c-18.366,25.713 -85.4,108.359 -141.408,134.071c-104.688,48.663 -324.15,67.029 -394.858,100.088c-70.709,37.65 -204.78,104.687 -275.488,290.179c-70.704,186.408 41.325,30.3 41.325,30.3Z" style="fill:#bba551;fill-rule:nonzero;"/><path d="M841.879,793.946c0,-0 74.379,-226.813 290.171,-286.5c215.796,-59.688 320.483,-56.017 394.858,-119.371c74.388,-63.367 152.442,-193.762 137.742,-193.762c-14.688,-3.667 -44.988,33.058 -52.342,44.995c-18.366,25.713 -85.4,108.359 -141.408,134.071c-104.688,48.663 -324.15,67.029 -394.858,100.088c-70.709,37.65 -204.78,104.687 -275.488,290.179c-70.704,186.408 41.325,30.3 41.325,30.3Z" style="fill:none;stroke:#bba551;stroke-width:1.19px;"/><path d="M1504.88,379.804c-41.325,-104.683 7.342,-219.466 92.738,-264.462c3.679,-3.675 25.712,-25.709 14.691,-29.384c0,0 -190.079,81.729 -148.754,271.809c3.667,14.691 7.346,25.716 11.013,41.321l30.312,-19.284Z" style="fill:#bba551;fill-rule:nonzero;"/><path d="M1504.88,379.804c-41.325,-104.683 7.342,-219.466 92.738,-264.462c3.679,-3.675 25.712,-25.709 14.691,-29.384c0,0 -190.079,81.729 -148.754,271.809c3.667,14.691 7.346,25.716 11.013,41.321l30.312,-19.284Z" style="fill:none;stroke:#bba551;stroke-width:1.19px;"/><path d="M1072.36,410.108c-0,0 112.029,186.409 11.02,293.846c-92.741,100.096 -208.45,18.371 -223.141,18.371c-11.021,-0 29.387,-37.654 29.387,-37.654c0,-0 25.713,18.367 78.054,22.042c141.413,7.345 156.109,-175.392 89.067,-279.159c0.925,0.921 4.592,-21.117 15.613,-17.446Z" style="fill:#bba551;fill-rule:nonzero;"/><path d="M1072.36,410.108c-0,0 112.029,186.409 11.02,293.846c-92.741,100.096 -208.45,18.371 -223.141,18.371c-11.021,-0 29.387,-37.654 29.387,-37.654c0,-0 25.713,18.367 78.054,22.042c141.413,7.345 156.109,-175.392 89.067,-279.159c0.925,0.921 4.592,-21.117 15.613,-17.446Z" style="fill:none;stroke:#bba551;stroke-width:1.19px;"/><path d="M3851.08,477.142c-29.383,37.65 -29.383,92.746 -29.383,141.412l-0,402.208c-0,48.667 -0,104.684 29.383,141.417l-156.108,7.342l3.666,-70.704c0,-3.671 -3.666,-3.671 -7.341,-3.671c-3.679,-0 -7.342,7.341 -14.692,11.017c-52.342,37.65 -134.075,74.383 -257.116,74.383c-152.438,-0 -257.117,-52.35 -260.796,-182.738l-0,-380.166c-0,-48.671 -0,-104.688 -29.384,-141.421l179.063,-0c-29.388,37.654 -29.388,92.75 -29.388,141.421l0,313.129c3.675,115.7 63.367,186.408 212.13,186.408c152.433,0 201.095,-78.058 204.775,-204.775c-0,-41.321 3.675,-81.725 3.675,-123.05l-0,-167.121c-0,-48.675 -0,-104.687 -29.384,-141.42" style="fill:#2c557f;fill-rule:nonzero;"/><path d="M3973.21,1162.18c44.992,-89.075 44.992,-219.467 44.992,-313.133l-0,-226.813c-0,-52.345 -3.667,-112.033 -41.325,-141.42l134.075,-0c25.708,-0 37.646,-0 52.342,18.366c25.708,29.388 112.037,145.092 152.416,193.754l264.459,301.2c7.375,11.017 18.375,25.713 25.75,25.713c11,-0 11,-11.025 11,-18.367l-0,-380.171c-0,-74.379 -14.709,-108.354 -33.042,-137.741l137.709,-0c-33.042,48.67 -41.292,104.687 -41.292,159.779l-0,427.917c-0,37.658 -0,67.037 3.666,100.1l-92.75,-0l-483.933,-558.313c-3.671,-7.35 -11.025,-11.025 -14.692,-11.025c-3.679,0 -7.341,7.346 -7.341,14.692l-0,275.483c-0,85.404 -3.675,193.767 41.321,275.483" style="fill:#2c557f;fill-rule:nonzero;"/><path d="M4871.29,618.554c-0,-48.666 -0,-104.679 -29.375,-141.412l179.041,-0c-29.375,37.65 -29.375,92.746 -29.375,141.412l0,402.208c0,48.667 0,104.684 29.375,141.417l-179.041,0c29.375,-37.654 29.375,-92.75 29.375,-141.417" style="fill:#2c557f;fill-rule:nonzero;"/><path d="M5347.88,1165.85l-18.375,-56.017c-63.375,-171.712 -156.083,-435.262 -249.75,-599.633l-22.042,-37.646l119.375,0c25.709,0 33.042,25.709 41.292,41.321c70.708,167.125 145.083,331.496 201.125,502.296c7.333,18.367 14.666,29.383 22.042,29.383c7.333,0 14.666,-18.362 22.041,-33.054c37.625,-92.746 201.084,-402.204 201.084,-502.3c-0,-14.688 -3.667,-25.708 -7.334,-37.646l163.459,0l-22.042,33.054c-126.708,182.742 -226.833,398.534 -316.833,595.967l-25.709,59.688" style="fill:#2c557f;fill-rule:nonzero;"/><path d="M6018.21,1121.78l152.417,0c81.75,0 167.166,-14.696 230.5,-59.687l-22.042,100.091c-37.625,3.671 -78.041,3.671 -126.708,3.671l-383.834,-0c29.376,-37.654 33.042,-92.746 33.042,-141.417l0,-402.2c0,-48.675 0,-104.687 -29.375,-141.42l461.876,-0l3.707,81.729c-44.999,-33.059 -119.374,-41.321 -197.457,-41.321l-122.126,-0l0,257.117c100.084,-0 208.459,-0 313.125,-7.351c-45,59.692 -197.416,59.692 -279.166,59.692l-33.042,0" style="fill:#2c557f;fill-rule:nonzero;"/><path d="M7042.08,1062.09c37.667,41.324 56.042,59.687 112.042,100.091l-108.375,0c-56,0 -81.708,-25.712 -112,-59.692l-159.792,-186.408c-56.041,-63.362 -63.375,-81.729 -141.416,-89.075l-0,193.758c-0,48.667 -0,104.684 29.375,141.417l-182.75,0c37.666,-48.667 37.666,-100.091 37.666,-148.767l0,-398.533c0,-48.662 0,-104.679 -29.375,-141.412c112.042,-0 215.792,-11.021 320.459,-11.021c134.083,-0 204.792,59.691 204.792,145.087c-0,100.096 -100.084,163.454 -197.417,193.763m-182.75,-14.696c18.375,3.675 41.333,3.675 59.666,3.675c130.417,0 197.459,-56.017 197.459,-156.108c-0,-108.354 -74.375,-119.375 -193.75,-123.05l-63.375,-0c-0,14.696 -3.667,33.062 -3.667,52.341l0,223.142l3.667,-0Z" style="fill:#2c557f;fill-rule:nonzero;"/><path d="M7157.79,1028.11c41.333,44.996 96.416,108.359 234.166,108.359c100.084,-0 175.375,-48.675 175.375,-134.071c0,-179.063 -380.166,-156.104 -380.166,-357.209c-0,-123.05 126.75,-186.412 268.166,-186.412c70.667,0 137.75,7.346 204.751,7.346l-0,100.096c-59.667,-52.342 -96.417,-63.363 -182.75,-63.363c-92.709,0 -159.751,37.646 -159.751,119.379c0,163.45 380.167,145.084 380.167,349.859c-0,134.071 -159.792,208.454 -309.459,208.454c-63.374,-0 -167.125,-18.367 -226.833,-37.654" style="fill:#2c557f;fill-rule:nonzero;"/><path d="M7831.79,618.554c-0,-48.666 -0,-104.679 -29.376,-141.412l179.084,-0c-29.375,37.65 -29.375,92.746 -29.375,141.412l0,402.208c0,48.667 0,104.684 29.375,141.417l-179.084,0c29.376,-37.654 29.376,-92.75 29.376,-141.417" style="fill:#2c557f;fill-rule:nonzero;"/><path d="M8293.71,1162.18c29.375,-37.654 29.375,-92.75 29.375,-141.417l0,-487.604l-174.458,0c-29.375,0 -59.708,3.671 -92.75,22.038l25.708,-78.054l666.667,-0c-22.042,44.995 -104.667,52.341 -156.083,52.341l-145.125,0l-0,491.279c-0,48.667 -0,104.684 29.416,141.417" style="fill:#2c557f;fill-rule:nonzero;"/><path d="M8971.42,1162.18c29.375,-37.654 29.375,-92.75 29.375,-141.417l0,-96.416c0,-74.383 -41.333,-148.767 -92.75,-234.163c-52.332,-89.075 -119.374,-171.72 -175.416,-212.125l115.709,0c48.666,0 56.041,11.021 81.749,41.325c52.334,67.03 112.001,190.088 137.709,264.463c3.708,14.691 11.041,33.058 22.042,33.058c7.375,0 18.374,-18.367 29.416,-37.65l89.042,-130.392c29.417,-44.995 59.708,-96.42 59.708,-126.725c0,-14.691 -3.667,-29.383 -18.375,-44.995l167.125,-0l-152.417,190.083c-92.75,115.704 -141.416,167.125 -141.416,309.454l-0,45.004c-0,48.663 -0,104.684 29.375,141.413" style="fill:#2c557f;fill-rule:nonzero;"/><path d="M10159.7,1180.55c-279.167,-0 -398.542,-156.113 -398.542,-346.196c-0,-204.775 145.083,-372.817 420.542,-372.817c279.167,0 402.208,156.109 402.208,346.188c-3.667,202.025 -148.75,372.825 -424.208,372.825Zm11,-674.021c-190.083,-0 -271.792,141.417 -271.792,297.525c-0,141.413 59.667,327.825 271.792,327.825c190.083,0 271.791,-141.417 271.791,-297.525c0,-141.417 -59.666,-327.825 -271.791,-327.825Z" style="fill:#2c557f;fill-rule:nonzero;"/><path d="M10837.3,1020.76c0,48.667 0,104.684 29.375,141.417l-179.041,0c29.375,-37.654 29.375,-92.75 29.375,-141.417l0,-402.208c0,-48.666 3.666,-104.679 -25.709,-141.412l409.542,-0c33.959,-0 59.708,-0 59.708,11.02l0,85.396l-3.667,0c-37.666,-48.666 -119.374,-52.337 -182.749,-52.337l-137.75,-0l-0,275.483c100.083,0 208.458,0 313.124,-7.35c-44.999,59.692 -197.416,59.692 -279.166,59.692l-33.958,-0" style="fill:#2c557f;fill-rule:nonzero;"/><path d="M3101.76,2607.55c78.055,100.087 193.759,242.417 472.913,242.417c201.108,-0 353.537,-108.355 353.537,-301.188c0,-402.208 -759.416,-353.533 -759.416,-797.066c-0,-279.163 253.45,-416.9 532.6,-416.9c137.741,-0 271.816,14.695 409.558,14.695l-0,223.142c-119.375,-112.029 -190.092,-141.421 -368.233,-141.421c-186.413,0 -324.15,85.396 -324.15,264.467c-0,368.233 759.433,324.15 759.433,786.046c-0,297.521 -320.5,465.566 -618.017,465.566c-130.395,0 -335.17,-37.645 -454.55,-85.395" style="fill:#2c557f;fill-rule:nonzero;"/><path d="M5742.75,1374.3c-59.708,85.396 -59.708,208.45 -59.708,316.804l-0,904.5c-0,108.354 -0,234.167 59.708,313.142l-316.833,14.687l11.041,-159.779c0,-7.35 -3.708,-11.017 -14.708,-11.017c-3.667,0 -14.708,14.688 -33.042,25.709c-104.708,78.054 -242.458,167.129 -491.291,167.129c-309.459,0 -510.584,-112.029 -521.584,-409.562l0,-845.726c0,-108.354 0,-234.162 -59.708,-316.808l353.542,0c-59.667,85.4 -59.667,208.454 -59.667,316.808l0,703.396c7.333,257.121 123.042,413.23 424.25,413.23c309.458,-0 383.833,-175.392 391.167,-461.896c3.666,-92.738 11.041,-186.405 11.041,-275.484l0,-376.491c0,-108.359 0,-234.163 -59.708,-316.804" style="fill:#2c557f;fill-rule:nonzero;"/><path d="M7060.46,2685.6c78.042,92.742 115.709,134.067 223.126,223.142l-215.792,-0c-115.709,-0 -163.459,-56.017 -223.125,-134.067l-324.167,-416.904c-112,-145.087 -130.375,-186.404 -282.833,-197.429l-0,431.596c-0,108.35 -0,234.158 59.708,316.804l-368.25,-0c78.083,-112.034 70.708,-226.817 70.708,-327.829l0,-893.48c0,-108.358 0,-234.162 -59.666,-316.808c223.124,0 435.25,-22.046 640.958,-22.046c271.791,0 409.542,134.071 409.542,324.163c-0,219.458 -201.084,364.546 -391.167,435.258m-365.5,-40.408c41.333,3.675 78.083,7.346 119.375,7.346c257.125,-0 398.542,-126.725 398.542,-353.538c-0,-242.421 -152.417,-268.129 -387.5,-275.479l-123.083,0c-3.667,37.65 -3.667,78.05 -3.667,115.7l-0,506.896l-3.667,-0l0,-0.925Z" style="fill:#2c557f;fill-rule:nonzero;"/><path d="M8431.46,2685.6c78.041,92.742 115.708,134.067 223.125,223.142l-215.792,-0c-115.709,-0 -163.459,-56.017 -223.125,-134.067l-324.167,-416.904c-112.042,-145.087 -130.375,-186.404 -282.834,-197.429l0,431.596c0,108.35 0,234.158 59.709,316.804l-368.25,-0c78.042,-112.034 70.708,-226.817 70.708,-327.829l0,-893.48c0,-108.358 0,-234.162 -59.666,-316.808c223.125,0 435.25,-22.046 640.958,-22.046c271.792,0 409.542,134.071 409.542,324.163c-0,219.458 -201.125,364.546 -391.209,435.258m-384.75,-40.408c41.334,3.675 78.042,7.346 119.375,7.346c257.126,-0 398.542,-126.725 398.542,-353.538c-0,-242.421 -152.417,-268.129 -387.5,-275.479l-123.042,0c-3.708,37.65 -3.708,78.05 -3.708,115.7l-0,506.896l-3.667,-0l0,-0.925Z" style="fill:#2c557f;fill-rule:nonzero;"/><path d="M8982.42,2812.33l305.791,0c163.458,0 335.167,-37.658 458.208,-137.746l-48.666,219.459c-70.708,3.683 -159.791,11.029 -253.459,11.029l-766.749,-0c59.708,-81.734 67.041,-208.45 67.041,-316.809l0,-900.825c0,-108.366 0,-234.162 -59.671,-316.808l927.463,0l11,186.408c-92.75,-70.712 -234.167,-89.074 -391.167,-89.074l-246.125,-0l-0,573.925c204.792,-0 416.917,-0 621.667,-18.367c-92.75,137.737 -391.167,137.737 -558.291,137.737l-67.042,0" style="fill:#2c557f;fill-rule:nonzero;"/><path d="M10147.7,2908.75c59.667,-81.733 59.667,-208.454 59.667,-316.804l0,-219.475c0,-167.134 -78.042,-327.829 -186.375,-525.259c-108.375,-197.429 -242.458,-383.837 -349.875,-472.916l226.833,-0c96.417,-0 119.375,18.366 159.751,92.754c100.124,182.733 201.125,416.891 275.499,595.954c14.709,33.988 22.042,70.713 41.333,70.713c14.667,-0 33.959,-41.321 59.667,-85.4l179.083,-290.175c59.667,-96.421 119.376,-215.8 119.376,-286.501c0,-37.649 -11.042,-67.037 -41.334,-96.416l335.167,-0l-301.208,424.233c-186.375,257.121 -286.5,376.496 -286.5,692.388l-0,100.1c-0,108.35 -0,234.158 59.708,316.804" style="fill:#2c557f;fill-rule:nonzero;"/><path d="M1046.65,3064.85c431.592,-81.737 953.171,-18.371 1236,22.029c156.108,22.046 208.454,11.025 208.454,11.025c0,0 -163.454,-33.983 -253.441,-59.691c-454.551,-130.4 -1668.52,-338.846 -1735.55,253.445c-2.75,0.921 149.683,-155.187 544.541,-226.808Z" style="fill:#bba551;fill-rule:nonzero;"/><path d="M2371.72,2104.32c-7.342,-52.338 14.7,-301.192 14.7,-301.192l22.033,260.796c0,0 48.663,-78.054 56.021,-238.754c7.342,-193.75 -85.408,-324.15 -234.162,-372.817c-74.392,-25.716 -141.417,-11.025 -186.417,-3.675c-148.754,14.688 -279.15,3.675 -335.171,3.675c-331.496,14.688 -413.229,-89.075 -476.583,-186.416c-123.05,-186.409 -145.088,-159.779 -264.463,-402.205c-100.096,-201.104 -193.762,-74.379 -357.212,-22.041c-48.667,14.696 -212.125,78.058 -226.817,81.729c-14.691,7.346 -11.021,41.325 -7.346,56.017c0,7.341 41.321,48.666 52.342,56.016c11.025,3.671 249.775,67.029 316.812,81.725c0,0 25.709,56.017 -33.062,257.117c-44.996,152.437 7.35,242.425 7.35,242.425c0,0 -89.075,-63.354 -171.721,-119.375c-81.729,-56.013 -342.516,59.687 -494.958,167.129c-63.35,45 -52.338,108.354 -52.338,108.354l74.38,167.13l70.712,-41.325c-25.717,-7.346 -45,-33.975 -45,-59.688c-0,-33.975 29.387,-63.367 63.362,-63.367c33.055,0 63.359,29.392 63.359,63.367l-0,3.679c11.017,-22.046 33.062,-37.654 56.021,-37.654c33.054,0 63.354,29.383 63.354,63.363c-0,33.979 -29.379,63.358 -63.354,63.358l-4.592,-0c18.363,11.017 29.379,29.383 29.379,52.342c0,33.974 -29.379,63.366 -63.358,63.366c-33.058,0 -63.367,-29.392 -63.367,-63.366c0,-7.351 0,-11.021 3.679,-18.367l-74.383,33.975l74.383,145.087l208.45,-100.087l223.142,532.604l-96.417,309.454l320.479,119.371l115.7,-316.804l-238.75,-137.742l-391.191,-927.462l7.35,-3.663c41.321,-14.7 78.054,-25.708 115.7,-37.654c74.379,-22.037 297.525,309.454 342.517,338.85c63.362,41.317 100.095,33.975 141.416,37.638l-2.75,-0c-3.679,-3.663 -11.021,-7.342 -14.696,-11.009c-201.1,-156.108 -119.379,-447.204 -119.379,-447.204c3.675,297.517 179.067,487.604 182.742,502.3l-0,3.671c3.671,7.342 7.346,11.016 11.021,22.041c56.012,112.03 -29.388,920.117 -29.388,920.117l85.4,-37.658c0,-0 156.108,-804.409 179.063,-800.742c376.491,67.042 550.966,-226.804 696.054,324.163c22.042,78.05 -435.258,472.912 -435.258,472.912c-0,0 89.062,14.688 152.429,-33.975c171.72,-126.721 483.933,-450.879 469.237,-461.896c-22.033,-14.7 -85.4,-141.416 -85.4,-163.458c0,-18.362 14.7,-85.396 33.063,-108.354c-3.675,-3.671 -11.021,-3.671 -14.696,-7.346c-208.45,-104.692 -208.45,-443.525 -208.45,-443.525c74.387,309.454 260.792,458.213 275.483,476.579c67.038,74.383 208.45,249.771 219.471,324.158c14.692,89.067 -335.171,502.292 -335.171,502.292c0,0 137.742,18.367 159.784,-37.646c18.366,-41.325 368.224,-480.258 360.883,-517.912c-18.367,-33.979 -133.15,-280.075 -141.421,-332.421Zm-1645.55,584.946c44.996,-0 85.404,41.325 85.404,89.075c0,48.667 -37.658,89.075 -85.404,89.075c-48.671,-0 -85.4,-41.321 -85.4,-89.075c-0,-52.346 36.729,-89.075 85.4,-89.075Z" style="fill:#bba551;fill-rule:nonzero;"/></g></svg>