<?xml version="1.0" encoding="UTF-8" standalone="no"?><!DOCTYPE svg PUBLIC "-//W3C//DTD SVG 1.1//EN" "http://www.w3.org/Graphics/SVG/1.1/DTD/svg11.dtd"><svg width="100%" height="100%" viewBox="0 0 1155 819" version="1.1" xmlns="http://www.w3.org/2000/svg" xmlns:xlink="http://www.w3.org/1999/xlink" xml:space="preserve" xmlns:serif="http://www.serif.com/" style="fill-rule:evenodd;clip-rule:evenodd;stroke-linejoin:round;stroke-miterlimit:2;"><g id="Layer-1" serif:id="Layer 1"><g><path d="M213.412,591.969c-197.928,-77.146 -136.252,-340.274 -136.252,-340.274c35.743,-18.807 116.802,-25.551 136.252,-25.551c19.444,-0 100.504,6.744 136.253,25.551c-0,-0 61.676,263.128 -136.253,340.274" style="fill:#fff;fill-rule:nonzero;"/><path d="M213.392,591.975c-197.929,-77.138 -136.252,-340.273 -136.252,-340.273c35.742,-18.8 116.801,-25.544 136.252,-25.544c19.444,-0 100.503,6.744 136.259,25.544c-0,-0 61.663,263.135 -136.259,340.273m144.511,-342.213l-0.884,-3.77l-3.427,-1.802c-37.819,-19.883 -121.181,-26.517 -140.2,-26.517c-19.005,-0 -102.388,6.634 -140.207,26.517l-3.427,1.802l-0.884,3.77c-0.637,2.748 -15.647,68.133 -6.257,144.189c5.572,45.015 18.614,84.314 38.778,116.78c25.373,40.883 62.02,70.868 108.92,89.14l3.077,1.206l3.091,-1.206c46.886,-18.272 83.526,-48.257 108.906,-89.14c20.163,-32.466 33.213,-71.765 38.764,-116.78c9.411,-76.056 -5.606,-141.441 -6.25,-144.189" style="fill:#004e8e;fill-rule:nonzero;"/><path d="M89.429,445.594c8.724,28.717 22.473,56.892 43.637,81.257l-16.366,-90.085c-12.029,3.379 -21.46,6.662 -27.258,8.821l-0.013,0.007Z" style="fill:#004e8e;fill-rule:nonzero;"/><path d="M166.012,299.856c0,3.434 0.713,6.305 1.556,6.669c-0,-0 -3.742,2.583 -4.832,3.659c-1.069,1.083 -5.812,6.827 -5.812,6.827c0,-0 -4.743,-5.744 -5.826,-6.827c-1.069,-1.076 -4.811,-3.659 -4.811,-3.659c0.843,-0.364 1.549,-3.235 1.549,-6.669c-0,-4.16 -2.419,-7.875 -5.949,-7.875c-5.127,-0 -5.819,3.509 -5.819,3.509c0,0 -4.722,-4.441 -4.722,-8.725c-0,-9.753 5.25,-9.095 7.512,-9.095c5.236,0 12.371,8.156 12.371,8.156c-0.789,-1.782 -2.152,-4.948 -2.55,-5.949c-0.158,-0.404 -0.377,-0.891 -0.589,-1.453c-0.761,-1.994 -1.563,-4.962 -0.254,-8.999c1.206,-3.762 3.804,-5.38 5.935,-8.005c2.283,-2.803 3.153,-3.701 3.153,-3.701c0,0 0.877,0.898 3.146,3.701c2.131,2.625 4.736,4.243 5.942,8.005c1.309,4.037 0.507,7.005 -0.26,8.999c-0.206,0.562 -0.425,1.049 -0.583,1.453c-0.404,1.001 -1.761,4.167 -2.55,5.949c0,0 7.135,-8.156 12.371,-8.156c2.269,0 7.519,-0.658 7.519,9.095c0,4.284 -4.736,8.725 -4.736,8.725c0,0 -0.692,-3.509 -5.812,-3.509c-3.543,-0 -5.949,3.715 -5.949,7.875m7.066,74.198l26.483,-137.348c-20.068,1.542 -53.418,4.955 -81.504,11.685l22.144,130.68c11.117,-2.138 22.124,-3.81 32.72,-5.003l0.157,-0.014Z" style="fill:#004e8e;fill-rule:nonzero;"/><path d="M110.709,401.983c4.928,-1.295 9.897,-2.508 14.75,-3.625l1.268,-0.288c2.069,-0.473 4.18,-0.932 6.325,-1.385l0.295,-0.061c0.542,-0.117 1.076,-0.233 1.618,-0.343c2.988,-0.624 5.49,-1.124 7.881,-1.576l0.371,-0.069l0.006,0.014c9.047,-1.721 17.991,-3.139 26.579,-4.208l0.124,-0.007l0.226,-1.193l2.124,-11.021c-10.205,1.179 -20.814,2.81 -31.527,4.86c-10.836,2.083 -21.747,4.578 -32.425,7.422c-10.034,2.673 -19.738,5.6 -28.861,8.698c-0.041,0.02 -0.096,0.034 -0.137,0.041l-0.02,-0c0.335,2.309 0.925,6.566 1.83,11.514c9.156,-3.05 19.265,-6.052 29.231,-8.677l0.342,-0.096Z" style="fill:#004e8e;fill-rule:nonzero;"/><path d="M148.713,429.247l6.422,38.416l7.772,-40.835c-4.557,0.685 -9.197,1.474 -14.187,2.419l-0.007,0Z" style="fill:#004e8e;fill-rule:nonzero;"/><path d="M120.572,416.157l0.343,-0.089c2.535,-0.665 5.058,-1.303 7.491,-1.892l0.527,-0.13c2.612,-0.631 5.23,-1.241 7.793,-1.81l0.487,-0.109c2.913,-0.644 5.613,-1.213 8.265,-1.741c7.252,-1.467 14.373,-2.694 21.185,-3.674l0.178,-0.027l2.276,-12.022c-8.314,1.077 -16.915,2.461 -25.565,4.113c-2.734,0.521 -5.503,1.083 -8.478,1.713l-0.486,0.096c-2.522,0.535 -5.113,1.11 -7.69,1.7l-0.459,0.103c-5.12,1.178 -10.233,2.44 -15.195,3.749c-9.479,2.494 -19.033,5.359 -29.218,8.766l-0.13,0.041c0.405,2.076 0.816,4.365 1.289,6.456c0.13,0.562 0.253,1.096 0.37,1.61c0.308,1.426 0.658,2.858 0.994,4.284c8.944,-3.221 18.882,-6.381 28.73,-9.157c2.605,-0.726 4.969,-1.37 7.293,-1.98" style="fill:#004e8e;fill-rule:nonzero;"/><path d="M138.2,416.088l-0.926,0.206c-7.751,1.741 -15.558,3.715 -23.199,5.873c-9.863,2.783 -19.465,5.847 -28.553,9.109l-0.028,0.014c0.85,3.44 1.769,6.881 2.756,10.322c0.096,-0.055 0.171,-0.11 0.315,-0.165c16.401,-6.018 42.767,-14.18 75.144,-18.896l0.124,-0.013l2.206,-11.624c-6.613,0.987 -13.453,2.186 -20.376,3.591c-2.556,0.514 -5.071,1.049 -7.463,1.583" style="fill:#004e8e;fill-rule:nonzero;"/><path d="M107.57,386.542l-23.014,-126.657c-0.062,0.034 -0.124,0.062 -0.186,0.096c0,-0 -14.762,63.157 -5.558,135.231c9.164,-3.105 18.827,-6.018 28.731,-8.663c0.007,-0 0.014,-0.007 0.027,-0.007" style="fill:#004e8e;fill-rule:nonzero;"/><path d="M221.102,371.868l-7.696,-38.58l-7.635,38.58c2.453,-0.062 4.989,-0.123 7.518,-0.123c2.618,-0 5.195,0.061 7.813,0.123" style="fill:#004e8e;fill-rule:nonzero;"/><path d="M224.495,387.817c-0.37,-1.769 -2.125,-10.11 -2.55,-11.878l-0.102,0c-2.653,-0.075 -5.483,-0.137 -8.369,-0.137c-2.913,0 -5.771,0.062 -8.444,0.137l-0.096,0c-0.404,1.768 -2.145,10.109 -2.515,11.878c3.989,-0.131 7.608,-0.206 11.055,-0.206c3.406,-0 7.018,0.069 11.021,0.206" style="fill:#004e8e;fill-rule:nonzero;"/><path d="M202.357,388.132l-0.006,0.014l0.006,-0l0,-0.014Z" style="fill:#004e8e;fill-rule:nonzero;"/><path d="M213.474,403.203c4.208,0 8.704,0.117 14.133,0.377l-2.296,-11.665l-0.247,-0.007c-4.441,-0.164 -8.122,-0.246 -11.59,-0.246c-3.509,-0 -7.217,0.082 -11.644,0.246l-0.22,0.007l-2.316,11.672l0.013,0c5.518,-0.26 10.021,-0.384 14.167,-0.384" style="fill:#004e8e;fill-rule:nonzero;"/><path d="M230.725,419.385l-2.31,-11.706l-0.164,-0.007c-5.661,-0.281 -10.356,-0.418 -14.777,-0.418c-4.468,-0 -9.204,0.137 -14.9,0.425l-0.089,0.007l-2.317,11.692c6.251,-0.329 11.851,-0.487 17.121,-0.487c5.483,0 11.185,0.165 17.436,0.494" style="fill:#004e8e;fill-rule:nonzero;"/><path d="M240.896,521.67c-0.973,18.841 -13.063,23.529 -17.895,23.529c-0,-0 -6.806,0.219 -6.806,-7.601c0,-0 13.989,-0.398 13.989,-19.807l7.408,-13.536c0,-0 4.003,3.646 3.304,17.415m-25.941,29.019l-3.427,-0l-0,-20.061c-1.851,-0.802 -5.929,-2.817 -5.84,-10.37c0.124,-8.937 -1.076,-15.016 -2.234,-19.177c-1.179,-4.235 -8.355,-8.704 -8.355,-8.704c7.3,-8.122 13.687,2.892 13.42,1.522c-0.5,-2.461 0.822,-6.936 1.761,-9.178c0.939,-2.227 3.126,-5.016 3.126,-5.016c-0,-0 2.186,2.789 3.125,5.016c0.946,2.242 2.262,6.717 1.768,9.178c-0.267,1.37 6.121,-9.644 13.42,-1.522c-0,0 -7.176,4.469 -8.362,8.704c-1.151,4.161 -2.351,10.24 -2.234,19.177c0.11,8.074 -4.565,9.821 -6.168,10.521l-0,19.91Zm-11.193,-5.49c-4.825,-0 -16.915,-4.688 -17.881,-23.529c-0.699,-13.769 3.297,-17.415 3.297,-17.415l7.409,13.536c-0,19.409 13.995,19.807 13.995,19.807c-0,7.82 -6.82,7.601 -6.82,7.601m27.676,-121.729c-6.402,-0.357 -12.275,-0.521 -17.964,-0.521c-5.675,-0 -11.548,0.171 -17.97,0.528l-0.096,0.006l-27.107,135.046c13.207,9.225 28.183,17.326 45.214,23.968c17.066,-6.648 32.083,-14.777 45.303,-24.029l-27.291,-134.991l-0.089,-0.007Z" style="fill:#004e8e;fill-rule:nonzero;"/><path d="M315.821,406.198c-5.003,-1.322 -10.089,-2.584 -15.106,-3.749l-0.644,-0.144c-2.289,-0.521 -4.626,-1.035 -6.998,-1.549l-1.412,-0.301c-2.94,-0.617 -5.565,-1.152 -8.018,-1.618c-8.684,-1.665 -17.34,-3.063 -25.716,-4.146l-0.185,-0.028l2.324,12.036l0.418,0.061c6.751,0.98 13.536,2.159 20.719,3.605l0.425,0.076c10.664,2.159 21.5,4.791 32.212,7.82c9.602,2.721 19.06,5.736 28.121,8.978l0.521,0.185c0.973,-4.174 1.864,-8.334 2.645,-12.487l-0.472,-0.151c-9.26,-3.084 -18.951,-5.97 -28.834,-8.588" style="fill:#004e8e;fill-rule:nonzero;"/><path d="M313.093,422.263l-0.034,0l-0.096,-0.041c-2.248,-0.637 -4.661,-1.295 -7.32,-2.001l-0.151,-0.041c-2.556,-0.679 -5.161,-1.343 -7.731,-1.974c-5.538,-1.357 -11.158,-2.611 -16.764,-3.749c-6.765,-1.364 -13.474,-2.55 -19.944,-3.509l-0.165,-0.021l2.529,11.727l0.137,0.021c4.681,0.685 9.52,1.514 15.202,2.597l0.349,0.034c0.843,0.165 1.673,0.329 2.495,0.501l2.139,0.418c0.472,0.096 0.939,0.192 1.398,0.288c2.57,0.534 5.236,1.117 8.142,1.789c0.74,0.164 1.446,0.335 2.166,0.507c3.002,0.706 5.627,1.357 8.032,1.974c0.288,0.075 0.569,0.144 0.864,0.226c1.953,0.514 3.852,1.028 5.709,1.549l1.391,0.397c9.328,2.632 18.314,5.531 26.716,8.629c0.24,0.089 0.425,0.158 0.596,0.226c1.001,-3.475 1.933,-6.956 2.79,-10.431l-0.61,-0.213c-9.026,-3.235 -18.395,-6.223 -27.84,-8.903" style="fill:#004e8e;fill-rule:nonzero;"/><path d="M264.24,426.883l7.765,40.78l6.408,-38.34l-0.007,-0c-4.914,-0.946 -9.554,-1.741 -14.166,-2.44" style="fill:#004e8e;fill-rule:nonzero;"/><path d="M310.42,436.896l-16.319,89.811c21.055,-24.296 34.769,-52.376 43.487,-80.99l-0.02,-0c-8.622,-3.194 -17.758,-6.168 -27.148,-8.821" style="fill:#004e8e;fill-rule:nonzero;"/><path d="M348.212,395.39c9.252,-72.142 -5.552,-135.402 -5.552,-135.402c-0.034,-0.014 -0.062,-0.035 -0.089,-0.048l-23.029,126.766c0.007,0.007 0.014,0.007 0.021,0.007c9.849,2.646 19.492,5.565 28.649,8.677" style="fill:#004e8e;fill-rule:nonzero;"/><path d="M251.485,292.762l4.791,-2.748l-11.802,-6.799l1.96,-0.665l-4.661,-8.464l9.643,-0.178l-0.39,-2.043l12.014,6.943l0,-13.872l1.556,1.357l4.757,-8.259l4.749,8.259l1.57,-1.357l-0,13.872l12.007,-6.943l-0.397,2.043l9.657,0.178l-4.668,8.464l1.961,0.665l-11.802,6.799l4.783,2.748l-1.953,0.672l4.661,8.451l-9.664,0.185l0.411,2.035l-9.109,-5.264l0,17.861l-4.413,0l-0,-17.861l-9.109,5.264l0.398,-2.035l-9.65,-0.185l4.667,-8.451l-1.967,-0.672Zm35.427,86.426l22.165,-130.769c-28.066,-6.738 -61.396,-10.151 -81.512,-11.707l26.511,137.418l0.102,0.013c10.624,1.207 21.638,2.906 32.734,5.045" style="fill:#004e8e;fill-rule:nonzero;"/><path d="M318.624,390.668c-2.186,-0.59 -4.53,-1.2 -6.984,-1.816l-0.747,-0.186c-8.142,-2.035 -16.408,-3.872 -24.577,-5.455c-10.72,-2.077 -21.309,-3.729 -31.466,-4.914c0.254,1.802 1.768,10.349 2.09,12.158l0.103,0.014c8.705,1.097 17.724,2.522 26.812,4.256l0.418,0.076c2.529,0.479 5.134,1.007 7.985,1.603l1.466,0.316c2.721,0.575 5.127,1.11 7.361,1.624l0.24,0.055c2.241,0.514 4.661,1.089 7.375,1.761l1.987,0.507c1.837,0.46 3.64,0.926 5.401,1.385l0.213,0.055c0.157,0.034 0.308,0.075 0.452,0.109l0.254,0.076c9.869,2.625 19.45,5.483 28.504,8.498l0.343,0.11c0.678,-3.831 1.261,-7.649 1.796,-11.453l-0.364,-0.116c-9.149,-3.105 -18.786,-6.018 -28.662,-8.663" style="fill:#004e8e;fill-rule:nonzero;"/><path d="M221.089,371.847c-2.625,-0.068 -5.182,-0.102 -7.8,-0.102c-2.522,-0 -5.065,0.061 -7.518,0.123c-0.021,-0 -0.837,4.071 -0.837,4.071l0.103,-0.007c2.673,-0.068 5.524,-0.13 8.437,-0.13c2.886,0 5.723,0.062 8.369,0.13l0.109,0.007c0,0 -0.836,-4.092 -0.863,-4.092" style="fill:#ffcd00;fill-rule:nonzero;"/><path d="M172.921,374.068c-10.596,1.193 -21.603,2.865 -32.72,5.003l-0.007,0c-10.897,2.091 -21.877,4.599 -32.631,7.478l-0.02,-0c-9.904,2.645 -19.567,5.558 -28.731,8.663c0.014,0.123 0.021,0.24 0.034,0.363c0.144,1.097 0.275,2.193 0.432,3.297c-0.007,0.007 -0.02,0.007 -0.027,0.013l-0,0.014c0.02,0.096 0.034,0.233 0.048,0.343l0.02,-0c0.041,-0.007 0.096,-0.021 0.144,-0.041c9.116,-3.098 18.821,-6.018 28.854,-8.698c10.678,-2.844 21.59,-5.339 32.425,-7.415c10.72,-2.057 21.322,-3.688 31.528,-4.86l0.808,-4.174l-0.157,0.014Z" style="fill:#ffcd00;fill-rule:nonzero;"/><path d="M78.853,395.575c-0.013,0.007 -0.034,0.014 -0.055,0.014l0.46,3.296c0.006,-0.006 0.013,-0.006 0.02,-0.013c-0.157,-1.104 -0.281,-2.194 -0.425,-3.297" style="fill:#ffcd00;fill-rule:nonzero;"/><path d="M319.563,386.713c-0.014,-0.007 -0.021,-0.007 -0.027,-0.007c-10.788,-2.892 -21.754,-5.421 -32.624,-7.511l-0,-0.007c-11.096,-2.139 -22.11,-3.838 -32.734,-5.045l-0.109,-0.013l0.068,0.363c0,-0 0.651,3.441 0.665,3.441c-0.014,-0 0.007,0.15 0.041,0.363c10.164,1.185 20.746,2.844 31.466,4.914c8.169,1.583 16.435,3.42 24.577,5.455l0.747,0.186c2.454,0.616 4.798,1.226 6.984,1.816c9.876,2.645 19.52,5.565 28.662,8.663l0.364,0.116c0.082,-0.541 0.192,-1.096 0.26,-1.638c0.096,-0.692 0.178,-1.377 0.267,-2.069c0.014,-0.117 0.028,-0.24 0.042,-0.35c-9.164,-3.118 -18.807,-6.031 -28.649,-8.677" style="fill:#ffcd00;fill-rule:nonzero;"/><path d="M163.709,422.558c-32.377,4.716 -58.743,12.871 -75.151,18.896c-0.144,0.055 -0.219,0.11 -0.308,0.158c0.034,0.116 1.144,3.865 1.172,3.982l0.02,-0c5.798,-2.166 15.229,-5.449 27.258,-8.828c0.006,-0.007 0.013,-0.007 0.02,-0.014c10.452,-2.926 21.212,-5.448 31.986,-7.498l0.007,-0.007c4.99,-0.939 9.637,-1.734 14.187,-2.419l0.933,-4.284l-0.124,0.014Z" style="fill:#ffcd00;fill-rule:nonzero;"/><path d="M338.15,441.584c-8.402,-3.098 -17.388,-5.997 -26.716,-8.629l-1.391,-0.397c-1.857,-0.521 -3.756,-1.035 -5.709,-1.549c-0.288,-0.082 -0.576,-0.151 -0.864,-0.226c-2.405,-0.624 -5.03,-1.268 -8.025,-1.974c-0.727,-0.172 -1.433,-0.343 -2.166,-0.507c-2.913,-0.672 -5.579,-1.255 -8.149,-1.789c-0.459,-0.103 -0.925,-0.192 -1.391,-0.288l-2.139,-0.425c-0.829,-0.165 -1.658,-0.336 -2.495,-0.494l-0.356,-0.034c-5.682,-1.083 -10.52,-1.912 -15.202,-2.597l-0.137,-0.021l0.083,0.363l0.671,3.496l0.076,0.37c4.612,0.699 9.252,1.494 14.166,2.44l0.007,-0c10.754,2.063 21.514,4.605 31.959,7.566c0.014,0 0.034,0 0.041,0.007c9.397,2.653 18.526,5.627 27.155,8.821l0.013,-0c0.035,-0.11 0.069,-0.219 0.103,-0.329c0.329,-1.083 0.658,-2.166 0.974,-3.249c0.034,-0.103 0.054,-0.226 0.089,-0.336c-0.172,-0.061 -0.357,-0.13 -0.597,-0.219" style="fill:#ffcd00;fill-rule:nonzero;"/><path d="M337.719,445.395l0.966,-3.249c-0.007,0 -0.021,0 -0.027,-0.007c-0.316,1.083 -0.638,2.166 -0.967,3.242c0.014,0.007 0.021,0.014 0.028,0.014" style="fill:#ffcd00;fill-rule:nonzero;"/><path d="M230.725,419.385c-6.251,-0.329 -11.953,-0.494 -17.436,-0.494c-5.27,0 -10.87,0.158 -17.121,0.487l-0.76,4.105l0.096,-0.006c6.422,-0.357 12.295,-0.528 17.97,-0.528c5.689,-0 11.562,0.164 17.964,0.521l0.089,0.007l-0.802,-4.092Z" style="fill:#ffcd00;fill-rule:nonzero;"/><path d="M230.78,419.741l0.637,3.146l-0.617,-3.146l-0.02,0Z" style="fill:#ffcd00;fill-rule:nonzero;"/><path d="M224.495,387.817c-4.003,-0.137 -7.615,-0.206 -11.021,-0.206c-3.447,-0 -7.066,0.075 -11.055,0.206c-0.034,0.171 -0.809,4.098 -0.809,4.098l0.22,-0.007c4.427,-0.164 8.135,-0.246 11.644,-0.246c3.468,-0 7.149,0.082 11.59,0.239l0.24,0.014c-0,0 -0.768,-3.886 -0.809,-4.098" style="fill:#ffcd00;fill-rule:nonzero;"/><path d="M169.802,390.448c-8.588,1.07 -17.532,2.481 -26.579,4.202l-0.006,-0.014l-0.371,0.069c-2.391,0.459 -4.893,0.959 -7.881,1.576c-0.542,0.11 -1.083,0.226 -1.618,0.343l-0.295,0.061c-2.145,0.46 -4.256,0.919 -6.325,1.385l-1.268,0.294c-4.853,1.111 -9.822,2.331 -14.75,3.626l-0.342,0.089c-9.966,2.625 -20.075,5.627 -29.231,8.684c0.02,0.116 0.041,0.226 0.061,0.349c0.007,0 0.007,-0.006 0.014,-0.006c0.206,1.137 0.404,2.275 0.61,3.413l-0.007,-0c0.027,0.137 0.055,0.288 0.082,0.432l0.13,-0.048c10.185,-3.4 19.739,-6.265 29.218,-8.76c4.962,-1.309 10.075,-2.57 15.195,-3.749l0.459,-0.109c2.577,-0.583 5.168,-1.158 7.69,-1.693l0.486,-0.103c2.975,-0.624 5.744,-1.186 8.478,-1.706c8.65,-1.652 17.251,-3.037 25.565,-4.113l0.068,-0.363l-0.013,0l0.678,-3.502l0.076,-0.37l-0.124,0.013Z" style="fill:#ffcd00;fill-rule:nonzero;"/><path d="M169.85,390.805l-0.007,-0l-0.678,3.502l0.02,0l0.665,-3.502Z" style="fill:#ffcd00;fill-rule:nonzero;"/><path d="M81.197,411.112c0.206,1.104 0.384,2.18 0.617,3.407l0.007,-0c-0.206,-1.138 -0.404,-2.276 -0.61,-3.413c-0,-0 -0.007,0.006 -0.014,0.006" style="fill:#ffcd00;fill-rule:nonzero;"/><path d="M345.504,410.79c-9.053,-3.022 -18.635,-5.873 -28.497,-8.498l-0.261,-0.076c-0.144,-0.034 -0.295,-0.075 -0.445,-0.109l-0.22,-0.055c-1.761,-0.459 -3.557,-0.925 -5.394,-1.392l-1.987,-0.5c-2.714,-0.672 -5.134,-1.247 -7.375,-1.761l-0.24,-0.055c-2.241,-0.514 -4.646,-1.049 -7.367,-1.624l-1.467,-0.316c-2.844,-0.596 -5.456,-1.124 -7.978,-1.61l-0.418,-0.069c-9.095,-1.734 -18.107,-3.166 -26.812,-4.256l-0.109,-0.014c0.034,0.22 0.068,0.364 0.068,0.364l0.665,3.481l0.069,0.363l0.185,0.028c8.382,1.083 17.038,2.481 25.722,4.14c2.453,0.472 5.078,1.007 8.018,1.624l1.412,0.301c2.372,0.508 4.709,1.028 6.998,1.549l0.644,0.144c5.017,1.159 10.096,2.427 15.106,3.749c9.883,2.618 19.574,5.504 28.834,8.588l0.472,0.151c0.028,-0.117 0.048,-0.233 0.069,-0.35c0.212,-1.11 0.404,-2.22 0.603,-3.331c0.014,-0.116 0.028,-0.233 0.055,-0.356l-0.35,-0.11Z" style="fill:#ffcd00;fill-rule:nonzero;"/><path d="M345.23,414.601l0.569,-3.345c-0.199,1.118 -0.391,2.228 -0.603,3.331c0.014,0.007 0.021,0.014 0.034,0.014" style="fill:#ffcd00;fill-rule:nonzero;"/><path d="M227.613,403.58c-5.428,-0.26 -9.924,-0.377 -14.132,-0.377c-4.147,0 -8.649,0.124 -14.167,0.377l-0.02,0.007l-0.069,0.35l-0.665,3.392l-0.075,0.357l0.089,-0c5.702,-0.295 10.438,-0.432 14.907,-0.432c4.421,-0 9.115,0.137 14.777,0.418l0.164,0.014l-0.809,-4.106Z" style="fill:#ffcd00;fill-rule:nonzero;"/><path d="M166.663,406.712c-6.812,0.98 -13.933,2.214 -21.185,3.674c-2.645,0.528 -5.352,1.097 -8.265,1.741l-0.487,0.109c-2.563,0.569 -5.181,1.179 -7.793,1.817l-0.52,0.123c-2.44,0.596 -4.963,1.227 -7.492,1.892l-0.349,0.089c-2.324,0.61 -4.681,1.254 -7.293,1.987c-9.848,2.769 -19.779,5.929 -28.723,9.15c0.26,1.138 0.514,2.282 0.788,3.413c0.02,0.082 0.041,0.165 0.055,0.233c0.034,0.117 0.068,0.233 0.095,0.35l0.028,-0.014c9.088,-3.269 18.69,-6.326 28.553,-9.109c7.648,-2.158 15.455,-4.132 23.199,-5.873l0.926,-0.206c2.398,-0.534 4.907,-1.069 7.463,-1.583c6.923,-1.405 13.763,-2.611 20.376,-3.591c0.042,-0.007 0.802,-4.229 0.802,-4.229l-0.178,0.027Z" style="fill:#ffcd00;fill-rule:nonzero;"/><path d="M85.344,430.707c0.013,0.076 0.034,0.165 0.048,0.24l0.007,0c-0.021,-0.075 -0.035,-0.158 -0.055,-0.24" style="fill:#ffcd00;fill-rule:nonzero;"/><path d="M341.961,427.239c-9.061,-3.235 -18.519,-6.257 -28.121,-8.978c-10.712,-3.029 -21.548,-5.661 -32.219,-7.813l-0.418,-0.083c-7.183,-1.446 -13.968,-2.618 -20.719,-3.605l-0.418,-0.061l0.068,0.37l0.679,3.488l0.075,0.37l0.165,0.021c6.463,0.966 13.173,2.145 19.944,3.509c5.6,1.138 11.226,2.392 16.764,3.749c2.57,0.631 5.175,1.295 7.724,1.974l0.151,0.041c2.659,0.706 5.079,1.364 7.32,2.001l0.103,0.041l0.027,0c9.452,2.68 18.821,5.675 27.84,8.903l0.617,0.213c0.027,-0.117 0.062,-0.226 0.089,-0.35c0.274,-1.083 0.521,-2.165 0.774,-3.255c0.028,-0.124 0.048,-0.233 0.076,-0.35l-0.521,-0.185Z" style="fill:#ffcd00;fill-rule:nonzero;"/><path d="M177.773,295.49c0,0 4.729,-4.441 4.729,-8.732c0,-9.746 -5.243,-9.088 -7.512,-9.088c-5.236,0 -12.371,8.156 -12.371,8.156c0.789,-1.789 2.146,-4.948 2.55,-5.949c0.158,-0.404 0.37,-0.898 0.583,-1.453c0.767,-1.994 1.569,-4.962 0.26,-8.999c-1.206,-3.762 -3.811,-5.387 -5.942,-8.005c-2.269,-2.803 -3.146,-3.701 -3.146,-3.701c0,0 -0.87,0.898 -3.153,3.701c-2.131,2.618 -4.729,4.243 -5.942,8.005c-1.309,4.037 -0.5,7.005 0.261,8.999c0.212,0.555 0.431,1.049 0.589,1.453c0.398,1.001 1.761,4.16 2.543,5.949c-0,0 -7.128,-8.156 -12.364,-8.156c-2.262,0 -7.512,-0.658 -7.512,9.088c-0,4.291 4.722,8.732 4.722,8.732c0,0 0.692,-3.516 5.819,-3.516c3.53,0 5.942,3.722 5.942,7.882c0,3.427 -0.699,6.305 -1.542,6.669c0,-0 3.735,2.583 4.811,3.659c1.083,1.083 5.826,6.827 5.826,6.827c0,-0 4.743,-5.744 5.812,-6.827c1.09,-1.076 4.832,-3.659 4.832,-3.659c-0.85,-0.364 -1.556,-3.242 -1.556,-6.669c0,-4.16 2.406,-7.882 5.949,-7.882c5.12,0 5.812,3.516 5.812,3.516" style="fill:#ffcd00;fill-rule:nonzero;"/><path d="M216.202,537.598c-0,7.82 6.806,7.601 6.806,7.601c4.825,-0 16.922,-4.688 17.895,-23.529c0.699,-13.769 -3.304,-17.415 -3.304,-17.415l-7.409,13.536c0,19.409 -13.988,19.807 -13.988,19.807" style="fill:#ffcd00;fill-rule:nonzero;"/><path d="M196.587,517.791l-7.409,-13.536c-0,-0 -4.003,3.646 -3.297,17.415c0.96,18.841 13.056,23.529 17.881,23.529c0,-0 6.82,0.219 6.82,-7.601c-0,-0 -13.995,-0.398 -13.995,-19.807" style="fill:#ffcd00;fill-rule:nonzero;"/><path d="M221.13,520.258c-0.117,-8.937 1.083,-15.023 2.234,-19.177c1.179,-4.235 8.355,-8.704 8.355,-8.704c-7.293,-8.122 -13.687,2.892 -13.413,1.522c0.493,-2.461 -0.822,-6.936 -1.768,-9.178c-0.939,-2.227 -3.132,-5.016 -3.132,-5.016c-0,-0 -2.187,2.789 -3.126,5.016c-0.939,2.242 -2.255,6.717 -1.761,9.178c0.267,1.37 -6.12,-9.644 -13.413,-1.522c0,0 7.176,4.469 8.355,8.704c1.151,4.154 2.358,10.24 2.234,19.177c-0.096,7.553 3.989,9.568 5.833,10.37l-0,20.061l3.427,-0l-0,-19.91c1.603,-0.7 6.278,-2.454 6.175,-10.521" style="fill:#ffcd00;fill-rule:nonzero;"/><path d="M258.435,302.07l-0.398,2.035l9.116,-5.264l-0,17.861l4.406,0l0,-17.861l9.116,5.264l-0.411,-2.035l9.657,-0.185l-4.661,-8.451l1.96,-0.672l-4.79,-2.748l11.802,-6.799l-1.961,-0.665l4.668,-8.464l-9.65,-0.178l0.39,-2.043l-12.007,6.943l-0,-13.872l-1.563,1.357l-4.756,-8.259l-4.75,8.259l-1.563,-1.357l0,13.872l-12.014,-6.943l0.397,2.043l-9.65,0.178l4.661,8.464l-1.96,0.665l11.802,6.799l-4.791,2.748l1.974,0.672l-4.674,8.451l9.65,0.185Z" style="fill:#ffcd00;fill-rule:nonzero;"/><path d="M510.974,367.968c-0,15.743 -9.815,25.914 -24.996,25.914c-15.092,0 -24.844,-10.171 -24.844,-25.914l-0,-73.321l-14.434,0l-0,74.24c-0,22.137 16.517,38.202 39.278,38.202c22.844,0 39.423,-16.065 39.423,-38.202l0,-74.24l-14.427,0l-0,73.321Z" style="fill:#535454;fill-rule:nonzero;"/><path d="M561.184,358.503c0,-11.809 6.272,-18.587 17.21,-18.587c11,-0 17.059,6.6 17.059,18.587l0,47.668l13.817,-0l0,-49.505c0,-9.252 -2.762,-16.634 -8.197,-21.911c-4.866,-4.866 -11.864,-7.436 -20.239,-7.436c-7.683,-0 -14.407,2.453 -19.65,7.134l0,-6.223l-13.824,0l0,77.941l13.824,-0l0,-47.668Z" style="fill:#535454;fill-rule:nonzero;"/><rect x="629.619" y="294.496" width="15.195" height="15.195" style="fill:#535454;"/><rect x="630.222" y="328.237" width="13.824" height="77.941" style="fill:#535454;"/><path d="M696.696,406.171l28.676,-77.941l-14.948,0l-19.595,57.332l-19.444,-57.332l-14.948,0l28.512,77.941l11.747,-0Z" style="fill:#535454;fill-rule:nonzero;"/><path d="M745.09,360.45c0.281,-4.969 0.652,-6.991 2.098,-10.555c2.721,-6.436 8.951,-10.431 16.257,-10.431c7.306,-0 13.536,3.995 16.243,10.417c1.46,3.571 1.83,5.6 2.111,10.569l-36.709,-0Zm18.355,-33.124c-20.198,-0 -32.254,14.906 -32.254,39.881c0,25.722 12.159,39.889 34.234,39.889c13.715,0 21.062,-4.599 28.485,-12.021l1.069,-1.069l-9.616,-8.431l-0.932,0.939c-6.086,6.08 -10.802,8.136 -18.697,8.136c-12.961,-0 -20.273,-8.197 -20.698,-23.125l50.656,0l-0,-6.456c-0,-23.282 -12.358,-37.743 -32.247,-37.743" style="fill:#535454;fill-rule:nonzero;"/><path d="M847.074,327.319c-7.765,-0 -14.941,2.817 -19.657,7.539l0,-6.628l-13.817,0l0,77.941l13.817,-0l0,-47.517c0,-11.035 6.827,-18.738 16.607,-18.738c5.346,-0 8.033,1.144 11.974,5.078l1.007,1.015l10.075,-10.26l-0.994,-0.994c-5.209,-5.216 -10.897,-7.436 -19.012,-7.436" style="fill:#535454;fill-rule:nonzero;"/><path d="M933.061,382.779c-0,-17.504 -13.365,-20.78 -23.426,-21.713l-12.07,-1.069c-10.424,-0.843 -11.829,-5.318 -11.829,-9.581c-0,-7.066 5.462,-10.952 15.38,-10.952c7.827,-0 14.269,1.905 19.135,5.654l0.98,0.761l9.164,-9.157l-1.213,-0.987c-6.724,-5.503 -16.374,-8.409 -27.916,-8.409c-17.374,-0 -29.046,9.403 -29.046,23.391c0,12.995 7.985,20.253 23.735,21.562l12.364,1.069c9.951,0.871 11.226,5.579 11.226,9.582c0,10.328 -11.644,11.871 -18.58,11.871c-9.739,-0 -17.045,-2.708 -22.336,-8.266l-1.001,-1.049l-9.369,9.369l1.035,1.001c8.073,7.772 17.881,11.24 31.822,11.24c19.403,0 31.945,-9.547 31.945,-24.317" style="fill:#535454;fill-rule:nonzero;"/><rect x="947.323" y="294.496" width="15.195" height="15.195" style="fill:#535454;"/><rect x="947.94" y="328.237" width="13.817" height="77.941" style="fill:#535454;"/><path d="M986.287,384.609c-0,13.104 8.108,21.569 20.65,21.569l9.198,-0l-0,-12.296l-7.21,0c-5.936,0 -8.814,-3.132 -8.814,-9.581l-0,-44.378l16.024,-0l-0,-11.227l-16.024,0l-0,-23.515l-13.824,0l-0,23.515l-9.465,0l-0,11.227l9.465,-0l-0,44.686Z" style="fill:#535454;fill-rule:nonzero;"/><path d="M1059.7,423.415l34.892,-95.178l-14.948,0l-19.444,57.332l-19.594,-57.332l-14.942,0l27.539,75l-5.168,14.181c-2.269,6.381 -4.085,8.368 -11.035,8.368l-4.77,0l0,12.597l6.148,0c6.429,0 11.83,-1.925 15.613,-5.565c2.316,-2.145 4.126,-5.133 5.709,-9.403" style="fill:#535454;fill-rule:nonzero;"/><path d="M475.533,534.754c-2.097,2.097 -4.996,3.248 -8.162,3.248c-3.146,0 -5.936,-1.124 -8.06,-3.248c-3.222,-3.215 -3.66,-8.855 -3.66,-14.475c-0,-5.62 0.438,-11.261 3.66,-14.482c2.124,-2.125 4.914,-3.249 8.06,-3.249c3.166,0 6.065,1.158 8.162,3.249c3.283,3.283 3.557,9.197 3.557,14.482c0,5.284 -0.274,11.192 -3.557,14.475m-8.162,-41.548c-6.045,0 -11.357,2.111 -15.367,6.128c-5.743,5.853 -6.511,13.872 -6.511,20.945c0,7.073 0.768,15.092 6.518,20.958c4.003,3.996 9.315,6.114 15.36,6.114c6.038,-0 11.356,-2.118 15.366,-6.127c5.743,-5.853 6.511,-13.872 6.511,-20.945c-0,-7.073 -0.768,-15.092 -6.518,-20.959c-4.003,-4.003 -9.321,-6.114 -15.359,-6.114" style="fill:#535454;fill-rule:nonzero;"/><path d="M502.208,486.065l0,8.053l-6.415,-0l-0,8.43l6.415,0l0,44.186l10.157,0l0,-44.186l10.692,0l0,-8.43l-10.692,-0l0,-7.848c0,-4.091 1.638,-5.914 5.305,-5.914l5.387,-0l0,-9.15l-6.71,-0c-8.587,-0 -14.139,5.832 -14.139,14.859" style="fill:#535454;fill-rule:nonzero;"/><path d="M637.631,518.593l-22.802,-83.376l-12.543,-0l-22.809,83.376l-20.184,-83.376l-15.305,-0l28.512,111.524l13.008,-0l23.049,-83.136l23.043,83.136l13.015,-0l28.504,-111.524l-15.297,-0l-20.191,83.376Z" style="fill:#535454;fill-rule:nonzero;"/><rect x="684.545" y="468.8" width="13.817" height="77.941" style="fill:#535454;"/><rect x="683.935" y="435.059" width="15.195" height="15.195" style="fill:#535454;"/><path d="M755.111,467.882c-7.683,-0 -14.407,2.453 -19.65,7.135l-0,-6.224l-13.824,0l0,77.941l13.824,0l-0,-47.668c-0,-11.809 6.271,-18.587 17.21,-18.587c11,0 17.052,6.6 17.052,18.587l-0,47.668l13.824,0l-0,-49.504c-0,-9.253 -2.762,-16.634 -8.197,-21.912c-4.866,-4.866 -11.864,-7.436 -20.239,-7.436" style="fill:#535454;fill-rule:nonzero;"/><path d="M833.271,535.055c-15.435,0 -17.519,-13.789 -17.519,-27.284c0,-13.495 2.084,-27.285 17.519,-27.285c15.256,-0 17.36,13.111 17.36,27.285c0,14.166 -2.104,27.284 -17.36,27.284m17.36,-59.881c-6.333,-6.333 -13.228,-7.292 -19.807,-7.292c-7.724,-0 -14.948,2.611 -19.314,6.977c-8.581,8.581 -9.575,22.891 -9.575,32.912c0,10.013 0.994,24.323 9.575,32.904c4.373,4.366 11.59,6.977 19.314,6.977c6.305,0 13.481,-0.966 19.965,-7.552l-0,6.634l13.666,0l0,-111.517l-13.824,-0l0,39.957Z" style="fill:#535454;fill-rule:nonzero;"/><path d="M921.176,501.63l-12.069,-1.07c-10.424,-0.843 -11.829,-5.318 -11.829,-9.581c-0,-7.059 5.462,-10.952 15.379,-10.952c7.827,-0 14.27,1.905 19.136,5.661l0.987,0.754l9.156,-9.157l-1.213,-0.987c-6.723,-5.503 -16.373,-8.409 -27.915,-8.409c-17.374,-0 -29.046,9.403 -29.046,23.398c-0,12.988 7.991,20.246 23.734,21.555l12.365,1.069c9.951,0.878 11.226,5.579 11.226,9.582c-0,10.329 -11.645,11.871 -18.581,11.871c-9.739,-0 -17.045,-2.708 -22.336,-8.266l-1,-1.049l-9.369,9.376l1.041,1.001c8.067,7.772 17.875,11.233 31.815,11.233c19.41,0 31.946,-9.547 31.946,-24.317c-0,-17.504 -13.365,-20.773 -23.427,-21.712" style="fill:#535454;fill-rule:nonzero;"/><path d="M1002.64,529.97c-3.276,3.276 -7.807,5.085 -12.741,5.085c-4.907,0 -9.26,-1.761 -12.584,-5.085c-5.01,-5.003 -5.695,-13.625 -5.695,-22.199c-0,-8.581 0.685,-17.21 5.695,-22.213c3.324,-3.318 7.677,-5.079 12.584,-5.079c4.941,0 9.465,1.803 12.741,5.079c5.113,5.113 5.538,14.146 5.538,22.213c-0,8.06 -0.425,17.086 -5.538,22.199m-12.741,-62.088c-8.876,-0 -16.662,3.098 -22.535,8.971c-8.423,8.595 -9.561,20.452 -9.561,30.918c-0,10.458 1.138,22.308 9.574,30.917c5.86,5.867 13.646,8.964 22.522,8.964c8.875,0 16.661,-3.097 22.535,-8.978c8.43,-8.595 9.568,-20.445 9.568,-30.903c-0,-10.466 -1.138,-22.323 -9.575,-30.924c-5.867,-5.867 -13.653,-8.965 -22.528,-8.965" style="fill:#535454;fill-rule:nonzero;"/><path d="M1093.64,475.318c-5.216,-5.216 -10.898,-7.436 -19.012,-7.436c-7.766,-0 -14.942,2.817 -19.65,7.539l-0,-6.628l-13.824,0l-0,77.941l13.824,0l-0,-47.517c-0,-11.034 6.819,-18.738 16.593,-18.738c5.353,0 8.039,1.145 11.98,5.079l1.008,1.014l10.075,-10.26l-0.994,-0.994Z" style="fill:#535454;fill-rule:nonzero;"/></g></g></svg>